<?xml version="1.0" encoding="utf-8"?>
<svg version="1.0" id="atboxlogo-v" xmlns="http://www.w3.org/2000/svg" xmlns:xlink="http://www.w3.org/1999/xlink" x="0px" y="0px"
	 viewBox="115 -470 1024 1024" style="enable-background:new 115 -470 1024 1024;" xml:space="preserve">
<style type="text/css">
	rect,path{fill:#232D35;}
</style>
<g>
	<rect class="center"       x="483"   y="-191.9" transform="matrix(0.7071 -0.7071 0.7071 0.7071 217.5198 429.2717)"     width="287.8" height="288"/>
	<rect class="top_right"    x="733.1" y="-370.1" transform="matrix(0.7071 -0.7071 0.7071 0.7071 395.6523 503.0662)"     width="144"   height="288"/>
	<rect class="bottom_right" x="661.1" y="58.2"   transform="matrix(-0.7071 0.7071 -0.7071 -0.7071 1466.3024 -347.0896)" width="287.8" height="143.9"/>
	<rect class="bottom_left"  x="376.9" y="-13.8"  transform="matrix(-0.7071 0.7071 -0.7071 -0.7071 858.2336 -95.1384)"   width="143.9" height="288"/>
	<rect class="top_left"     x="304.9" y="-298.1" transform="matrix(0.7071 -0.7071 0.7071 0.7071 291.343 251.1517)"      width="287.8" height="144"/>
</g>
<path d="M427.2,371.5c10.6,0,21.2,0,31.8,0c3.1,0,6.3,0,9.4,0c1.5,0,3.5-0.2,4.6,0.2c0,41.9,0,83.7,0,125.6
	c9.7,0,19.3,0,29,0c0-41.9,0-83.9,0-125.8c15.2,0,30.4,0,45.6,0c0-8.2,0-16.4,0-24.6c-40.1,0-80.3,0-120.4,0
	C427.2,355.1,427.2,363.3,427.2,371.5z M658.6,449.9c0-0.4,0-0.8,0-1.2c-0.1,0-0.1,0-0.2,0c0-0.4,0-0.8,0-1.2c-0.1,0-0.1,0-0.2,0
	c0-0.3,0-0.5,0-0.8c-0.1,0-0.1,0-0.2,0c-0.1-0.6-0.1-1.2-0.2-1.8c-0.1,0-0.1,0-0.2,0c0-0.2,0-0.4,0-0.6c-0.1,0-0.1,0-0.2,0
	c0-0.2,0-0.4,0-0.6c-0.1,0-0.1,0-0.2,0c0-0.2,0-0.4,0-0.6c-0.1,0-0.1,0-0.2,0c0-0.2,0-0.4,0-0.6c-0.1,0-0.1,0-0.2,0
	c-0.1-0.4-0.1-0.8-0.2-1.2c-0.1,0-0.1,0-0.2,0c-0.1-0.3-0.1-0.5-0.2-0.8c-0.1,0-0.1,0-0.2,0c0-0.2,0-0.4,0-0.6c-0.1,0-0.1,0-0.2,0
	c-0.1-0.4-0.3-0.8-0.4-1.2c-0.1,0-0.1,0-0.2,0c0-0.1,0-0.3,0-0.4c-0.1,0-0.1,0-0.2,0c-0.1-0.4-0.3-0.8-0.4-1.2
	c-0.1-0.1-0.3-0.1-0.4-0.2c-0.1-0.3-0.1-0.5-0.2-0.8c-0.1-0.1-0.3-0.1-0.4-0.2c0-0.1,0-0.3,0-0.4c-0.1,0-0.1,0-0.2,0
	c-0.1-0.2-0.1-0.4-0.2-0.6c-0.1-0.1-0.3-0.1-0.4-0.2c0-0.1,0-0.3,0-0.4c-0.2-0.1-0.4-0.3-0.6-0.4c0-0.1,0-0.3,0-0.4
	c-0.2-0.1-0.4-0.3-0.6-0.4c0-0.1,0-0.3,0-0.4c-0.4-0.3-0.8-0.7-1.2-1c0-0.1,0-0.3,0-0.4c-0.2-0.1-0.4-0.3-0.6-0.4
	c-0.5-0.5-0.9-1.1-1.4-1.6c-0.1,0-0.3,0-0.4,0c-0.3-0.4-0.7-0.8-1-1.2c-0.1,0-0.3,0-0.4,0c-0.1-0.2-0.3-0.4-0.4-0.6
	c-0.1,0-0.3,0-0.4,0c-0.1-0.2-0.3-0.4-0.4-0.6c-0.1,0-0.3,0-0.4,0c-0.1-0.1-0.1-0.3-0.2-0.4c-0.2-0.1-0.4-0.1-0.6-0.2
	c0-0.1,0-0.1,0-0.2c-0.1,0-0.3,0-0.4,0c-0.1-0.1-0.1-0.3-0.2-0.4c-0.2-0.1-0.4-0.1-0.6-0.2c0-0.1,0-0.1,0-0.2
	c-0.4-0.1-0.8-0.3-1.2-0.4c-0.1-0.1-0.1-0.3-0.2-0.4c-0.3-0.1-0.5-0.1-0.8-0.2c0-0.1,0-0.1,0-0.2c-0.4-0.1-0.8-0.3-1.2-0.4
	c0-0.1,0-0.1,0-0.2c-0.2,0-0.4,0-0.6,0c0-0.1,0-0.1,0-0.2c-0.3-0.1-0.5-0.1-0.8-0.2c0-0.1,0-0.1,0-0.2c-0.2,0-0.4,0-0.6,0
	c0-0.1,0-0.1,0-0.2c-0.1,0-0.3,0-0.4,0c0-0.1,0-0.1,0-0.2c-0.2,0-0.4,0-0.6,0c0-0.1,0-0.1,0-0.2c-0.1,0-0.3,0-0.4,0
	c0-0.1,0-0.1,0-0.2c-0.2,0-0.4,0-0.6,0c0-0.1,0-0.1,0-0.2c-0.2,0-0.4,0-0.6,0c0-0.1,0-0.1,0-0.2c-0.2,0-0.4,0-0.6,0
	c0-0.1,0-0.1,0-0.2c-0.3,0-0.5,0-0.8,0c0-0.1,0-0.1,0-0.2c-0.2,0-0.4,0-0.6,0c0-0.1,0-0.1,0-0.2c-0.3,0-0.5,0-0.8,0
	c0-0.1,0-0.1,0-0.2c-0.3,0-0.5,0-0.8,0c-1.1-0.4-2.4-0.8-3.8-0.8c0-0.1,0-0.1,0-0.2c0.4-0.1,0.8-0.1,1.2-0.2c0-0.1,0-0.1,0-0.2
	c0.3,0,0.5,0,0.8,0c0-0.1,0-0.1,0-0.2c0.3,0,0.5,0,0.8,0c2.2-0.8,4.4-1.6,6.6-2.4c5.2-2.7,10.3-5.6,13.6-10.2c0.3-0.3,0.7-0.5,1-0.8
	c0.1-0.2,0.1-0.4,0.2-0.6c0.1-0.1,0.3-0.1,0.4-0.2c0-0.1,0-0.3,0-0.4c0.1-0.1,0.3-0.1,0.4-0.2c0.1-0.2,0.1-0.4,0.2-0.6
	c0.1,0,0.1,0,0.2,0c0-0.1,0-0.3,0-0.4c0.1-0.1,0.3-0.1,0.4-0.2c0.1-0.3,0.1-0.5,0.2-0.8c0.1-0.1,0.3-0.1,0.4-0.2
	c0.1-0.4,0.3-0.8,0.4-1.2c0.1,0,0.1,0,0.2,0c0-0.1,0-0.3,0-0.4c0.1,0,0.1,0,0.2,0c0-0.1,0-0.3,0-0.4c0.1,0,0.1,0,0.2,0
	c0.1-0.4,0.3-0.8,0.4-1.2c0.1,0,0.1,0,0.2,0c0-0.2,0-0.4,0-0.6c0.1,0,0.1,0,0.2,0c0-0.1,0-0.3,0-0.4c0.1,0,0.1,0,0.2,0
	c0.1-0.4,0.1-0.8,0.2-1.2c0.1,0,0.1,0,0.2,0c0-0.2,0-0.4,0-0.6c0.1,0,0.1,0,0.2,0c0-0.2,0-0.4,0-0.6c0.1,0,0.1,0,0.2,0
	c0-0.2,0-0.4,0-0.6c0.1,0,0.1,0,0.2,0c0-0.3,0-0.5,0-0.8c0.1,0,0.1,0,0.2,0c0-0.3,0-0.5,0-0.8c0.1,0,0.1,0,0.2,0c0-0.3,0-0.7,0-1
	c0.1,0,0.1,0,0.2,0c0-0.3,0-0.7,0-1c0.1,0,0.1,0,0.2,0c0.1-1.1,0.1-2.3,0.2-3.4c0.1,0,0.1,0,0.2,0c0-2.3,0-4.5,0-6.8
	c-0.1,0-0.1,0-0.2,0c0-0.7,0-1.3,0-2c-0.1,0-0.1,0-0.2,0c0-0.5,0-0.9,0-1.4c-0.1,0-0.1,0-0.2,0c0-0.4,0-0.8,0-1.2
	c-0.1,0-0.1,0-0.2,0c-0.1-0.6-0.1-1.2-0.2-1.8c-0.1,0-0.1,0-0.2,0c0-0.3,0-0.5,0-0.8c-0.1,0-0.1,0-0.2,0c0-0.2,0-0.4,0-0.6
	c-0.1,0-0.1,0-0.2,0c0-0.2,0-0.4,0-0.6c-0.1,0-0.1,0-0.2,0c0-0.3,0-0.5,0-0.8c-0.1,0-0.1,0-0.2,0c0-0.1,0-0.3,0-0.4
	c-0.1,0-0.1,0-0.2,0c-0.1-0.4-0.1-0.8-0.2-1.2c-0.1,0-0.1,0-0.2,0c0-0.1,0-0.3,0-0.4c-0.1,0-0.1,0-0.2,0c0-0.2,0-0.4,0-0.6
	c-0.1,0-0.1,0-0.2,0c-0.1-0.4-0.3-0.8-0.4-1.2c-0.1,0-0.1,0-0.2,0c0-0.1,0-0.3,0-0.4c-0.1,0-0.1,0-0.2,0c0-0.1,0-0.3,0-0.4
	c-0.1,0-0.1,0-0.2,0c0-0.1,0-0.3,0-0.4c-0.1,0-0.1,0-0.2,0c0-0.1,0-0.3,0-0.4l-0.4-0.4c0-0.1,0-0.3,0-0.4c-0.1-0.1-0.3-0.1-0.4-0.2
	c-0.1-0.3-0.1-0.5-0.2-0.8c-0.1,0-0.1,0-0.2,0c-0.1-0.2-0.1-0.4-0.2-0.6c-0.1-0.1-0.3-0.1-0.4-0.2c0-0.1,0-0.3,0-0.4
	c-0.1-0.1-0.3-0.1-0.4-0.2c0-0.1,0-0.3,0-0.4c-0.2-0.1-0.4-0.3-0.6-0.4c0-0.1,0-0.3,0-0.4c-0.3-0.2-0.5-0.4-0.8-0.6
	c0-0.1,0-0.3,0-0.4c-0.3-0.3-0.7-0.5-1-0.8c0-0.1,0-0.3,0-0.4c-0.3-0.3-0.7-0.5-1-0.8c-0.5-0.6-1.1-1.2-1.6-1.8c-0.1,0-0.3,0-0.4,0
	c-0.3-0.4-0.7-0.8-1-1.2c-0.1,0-0.3,0-0.4,0c-0.2-0.3-0.4-0.5-0.6-0.8c-0.2-0.1-0.4-0.1-0.6-0.2c-0.1-0.1-0.1-0.3-0.2-0.4
	c-0.1,0-0.3,0-0.4,0c-0.1-0.1-0.1-0.3-0.2-0.4c-0.2-0.1-0.4-0.1-0.6-0.2c0-0.1,0-0.1,0-0.2c-0.1,0-0.3,0-0.4,0
	c-0.1-0.1-0.1-0.3-0.2-0.4c-0.1,0-0.3,0-0.4,0c-0.1-0.1-0.1-0.3-0.2-0.4c-0.1,0-0.3,0-0.4,0c-0.1-0.1-0.1-0.3-0.2-0.4
	c-0.3-0.1-0.5-0.1-0.8-0.2c-0.1-0.1-0.1-0.3-0.2-0.4c-0.1,0-0.3,0-0.4,0l-0.4-0.4c-0.1,0-0.3,0-0.4,0c0-0.1,0-0.1,0-0.2
	c-0.1,0-0.3,0-0.4,0c-0.1-0.1-0.1-0.3-0.2-0.4c-0.3-0.1-0.5-0.1-0.8-0.2c0-0.1,0-0.1,0-0.2c-0.3-0.1-0.5-0.1-0.8-0.2
	c0-0.1,0-0.1,0-0.2c-0.2,0-0.4,0-0.6,0c0-0.1,0-0.1,0-0.2c-0.3-0.1-0.5-0.1-0.8-0.2c0-0.1,0-0.1,0-0.2c-0.1,0-0.3,0-0.4,0
	c0-0.1,0-0.1,0-0.2c-0.2,0-0.4,0-0.6,0c0-0.1,0-0.1,0-0.2c-0.3-0.1-0.5-0.1-0.8-0.2c0-0.1,0-0.1,0-0.2c-0.2,0-0.4,0-0.6,0
	c0-0.1,0-0.1,0-0.2c-0.1,0-0.3,0-0.4,0c0-0.1,0-0.1,0-0.2c-0.6-0.1-1.2-0.3-1.8-0.4c0-0.1,0-0.1,0-0.2c-0.2,0-0.4,0-0.6,0
	c0-0.1,0-0.1,0-0.2c-0.2,0-0.4,0-0.6,0c0-0.1,0-0.1,0-0.2c-0.2,0-0.4,0-0.6,0c0-0.1,0-0.1,0-0.2c-0.2,0-0.4,0-0.6,0
	c0-0.1,0-0.1,0-0.2c-0.2,0-0.4,0-0.6,0c0-0.1,0-0.1,0-0.2c-0.3,0-0.5,0-0.8,0c0-0.1,0-0.1,0-0.2c-0.3,0-0.5,0-0.8,0
	c0-0.1,0-0.1,0-0.2c-0.2,0-0.4,0-0.6,0c0-0.1,0-0.1,0-0.2c-0.3,0-0.5,0-0.8,0c0-0.1,0-0.1,0-0.2c-0.3,0-0.7,0-1,0
	c-1.5-0.5-3.5-0.7-5-1.2c-0.9-0.1-1.7-0.1-2.6-0.2c0-0.1,0-0.1,0-0.2c-0.5,0-1.1,0-1.6,0c0-0.1,0-0.1,0-0.2c-0.6,0-1.2,0-1.8,0
	c0-0.1,0-0.1,0-0.2c-1.9-0.1-3.7-0.1-5.6-0.2c-1.2-0.3-3.1-0.2-4.6-0.2c-2.6,0-6.9-0.4-9,0.2c-3.1,0.1-6.3,0.1-9.4,0.2
	c0,0.1,0,0.1,0,0.2c-0.7,0-1.5,0-2.2,0c-1.5,0.1-2.9,0.1-4.4,0.2c0,0.1,0,0.1,0,0.2c-0.9,0-1.9,0-2.8,0c0,0.1,0,0.1,0,0.2
	c-0.8,0-1.6,0-2.4,0c0,0.1,0,0.1,0,0.2c-0.8,0-1.6,0-2.4,0c0,0.1,0,0.1,0,0.2c-0.7,0-1.5,0-2.2,0c0,0.1,0,0.1,0,0.2
	c-0.7,0-1.3,0-2,0c0,0.1,0,0.1,0,0.2c-0.6,0-1.2,0-1.8,0c0,0.1,0,0.1,0,0.2c-0.8,0.1-1.6,0.1-2.4,0.2c0,50.4,0,100.8,0,151.2
	c4,0.6,8,1.2,12,1.8c0.7,0,1.3,0,2,0c0,0.1,0,0.1,0,0.2c0.8,0,1.6,0,2.4,0c0,0.1,0,0.1,0,0.2c0.7,0,1.5,0,2.2,0
	c0.4,0,0.4,0.2,0.4,0.2c0.9,0,1.9,0,2.8,0c0,0.1,0,0.1,0,0.2c1.3,0,2.5,0,3.8,0c0,0.1,0,0.1,0,0.2c1.7,0,3.3,0,5,0
	c1,0.3,2.8,0.2,4.2,0.2c2.4,0,5.7,0.4,7.8-0.2c1.9-0.1,3.7-0.1,5.6-0.2c0-0.1,0-0.1,0-0.2c0.6,0,1.2,0,1.8,0c0-0.1,0-0.1,0-0.2
	c0.5,0,1.1,0,1.6,0c1.8-0.5,4.1-0.7,5.8-1.2c0.7-0.1,1.3-0.1,2-0.2c2.9-0.9,5.9-1.7,8.8-2.6c0-0.1,0-0.1,0-0.2c0.1,0,0.3,0,0.4,0
	c0-0.1,0-0.1,0-0.2c0.4-0.1,0.8-0.1,1.2-0.2c0-0.1,0-0.1,0-0.2c0.1,0,0.3,0,0.4,0c0-0.1,0-0.1,0-0.2c0.2,0,0.4,0,0.6,0
	c0-0.1,0-0.1,0-0.2c0.3-0.1,0.5-0.1,0.8-0.2c0-0.1,0-0.1,0-0.2c0.3-0.1,0.7-0.1,1-0.2c0-0.1,0-0.1,0-0.2c0.4-0.1,0.8-0.3,1.2-0.4
	c0-0.1,0-0.1,0-0.2c0.1,0,0.3,0,0.4,0c0-0.1,0-0.1,0-0.2c0.1,0,0.3,0,0.4,0c0-0.1,0-0.1,0-0.2c0.1,0,0.3,0,0.4,0c0-0.1,0-0.1,0-0.2
	c0.1,0,0.3,0,0.4,0c0-0.1,0-0.1,0-0.2c0.1,0,0.3,0,0.4,0l0.4-0.4c0.1,0,0.3,0,0.4,0c0.1-0.1,0.1-0.3,0.2-0.4
	c0.4-0.1,0.8-0.3,1.2-0.4c0-0.1,0-0.1,0-0.2c0.2-0.1,0.4-0.1,0.6-0.2c0.1-0.1,0.1-0.3,0.2-0.4c0.3-0.1,0.5-0.1,0.8-0.2
	c0-0.1,0-0.1,0-0.2c0.2-0.1,0.4-0.1,0.6-0.2c0.1-0.1,0.1-0.3,0.2-0.4c0.1,0,0.3,0,0.4,0c0.1-0.2,0.3-0.4,0.4-0.6c0.1,0,0.3,0,0.4,0
	c0.1-0.1,0.1-0.3,0.2-0.4c0.1,0,0.3,0,0.4,0c0.1-0.2,0.3-0.4,0.4-0.6c0.1,0,0.3,0,0.4,0c0.2-0.3,0.4-0.5,0.6-0.8c0.1,0,0.3,0,0.4,0
	c0.4-0.5,0.8-0.9,1.2-1.4c0.1,0,0.3,0,0.4,0c0.5-0.6,1.1-1.2,1.6-1.8c0.3-0.3,0.7-0.5,1-0.8c0-0.1,0-0.3,0-0.4
	c0.4-0.3,0.8-0.7,1.2-1c0.1-0.2,0.1-0.4,0.2-0.6c0.2-0.1,0.4-0.3,0.6-0.4c0-0.1,0-0.3,0-0.4c0.2-0.1,0.4-0.3,0.6-0.4
	c0.1-0.2,0.1-0.4,0.2-0.6c0.1-0.1,0.3-0.1,0.4-0.2c0-0.1,0-0.3,0-0.4c0.1-0.1,0.3-0.1,0.4-0.2c0.1-0.3,0.1-0.5,0.2-0.8
	c0.1-0.1,0.3-0.1,0.4-0.2c0.1-0.2,0.1-0.4,0.2-0.6c0.1,0,0.1,0,0.2,0c0.1-0.4,0.3-0.8,0.4-1.2c0.1-0.1,0.3-0.1,0.4-0.2
	c0.1-0.3,0.1-0.5,0.2-0.8c0.1,0,0.1,0,0.2,0c0.1-0.3,0.1-0.5,0.2-0.8c0.1,0,0.1,0,0.2,0c0-0.2,0-0.4,0-0.6c0.1,0,0.1,0,0.2,0
	c0-0.1,0-0.3,0-0.4c0.1,0,0.1,0,0.2,0c0.1-0.3,0.1-0.5,0.2-0.8c0.1,0,0.1,0,0.2,0c0.6-1.9,1.2-3.7,1.8-5.6c0.1-0.7,0.1-1.3,0.2-2
	c0.6-1.8,0.8-4.1,0.8-6.4c-0.1-2.7-0.1-5.3-0.2-8C658.7,449.9,658.7,449.9,658.6,449.9z M590,369.1c0.9-0.3,2.2-0.4,3.4-0.4
	c0.5,0,1.1,0,1.6,0c0.9-0.3,2.5-0.2,3.8-0.2c2.1,0,4.9-0.3,6.6,0.2c0.7,0,1.3,0,2,0c0,0.1,0,0.1,0,0.2c0.5,0,0.9,0,1.4,0
	c0,0.1,0,0.1,0,0.2c0.7,0.1,1.3,0.1,2,0.2c0,0.1,0,0.1,0,0.2c0.3,0,0.5,0,0.8,0c0,0.1,0,0.1,0,0.2c0.3,0,0.5,0,0.8,0
	c0,0.1,0,0.1,0,0.2c0.2,0,0.4,0,0.6,0c0,0.1,0,0.1,0,0.2c0.2,0,0.4,0,0.6,0c0,0.1,0,0.1,0,0.2c0.2,0,0.4,0,0.6,0
	c3.8,1.6,7,3.7,9.2,6.8c0.2,0.1,0.4,0.3,0.6,0.4c0,0.1,0,0.3,0,0.4c0.1,0.1,0.3,0.1,0.4,0.2c0.1,0.3,0.1,0.5,0.2,0.8
	c0.1,0.1,0.3,0.1,0.4,0.2c0.1,0.3,0.1,0.5,0.2,0.8c0.1,0,0.1,0,0.2,0c0.1,0.4,0.3,0.8,0.4,1.2c0.1,0,0.1,0,0.2,0c0,0.2,0,0.4,0,0.6
	c0.1,0,0.1,0,0.2,0c0,0.2,0,0.4,0,0.6c0.1,0,0.1,0,0.2,0c0,0.2,0,0.4,0,0.6c0.1,0,0.1,0,0.2,0c0,0.2,0,0.4,0,0.6c0.1,0,0.1,0,0.2,0
	c0.1,0.5,0.1,1.1,0.2,1.6c0.1,0,0.1,0,0.2,0c0,0.5,0,0.9,0,1.4c0.6,2.2,0.2,6.1-0.4,7.8c0,0.3,0,0.5,0,0.8
	c-2.8,8-7.5,11.4-15.4,14.2c-0.3,0-0.5,0-0.8,0c0,0.1,0,0.1,0,0.2c-0.3,0-0.5,0-0.8,0c0,0.1,0,0.1,0,0.2c-0.3,0-0.5,0-0.8,0
	c0,0.1,0,0.1,0,0.2c-0.3,0-0.7,0-1,0c0,0.1,0,0.1,0,0.2c-0.3,0-0.7,0-1,0c0,0.1,0,0.1,0,0.2c-0.4,0-0.8,0-1.2,0c0,0.1,0,0.1,0,0.2
	c-0.5,0-1.1,0-1.6,0c0,0.1,0,0.1,0,0.2c-0.7,0-1.3,0-2,0c0,0.1,0,0.1,0,0.2c-4.1,0-8.1,0-12.2,0C590,397,590,383.1,590,369.1z
	 M628.4,457.3c-0.1,0-0.1,0-0.2,0c0,0.6,0,1.2,0,1.8c-0.1,0-0.1,0-0.2,0c0,0.3,0,0.7,0,1c-0.1,0-0.1,0-0.2,0c0,0.3,0,0.5,0,0.8
	c-0.1,0-0.1,0-0.2,0c-0.1,0.5-0.1,0.9-0.2,1.4c-0.1,0-0.1,0-0.2,0c0,0.1,0,0.3,0,0.4c-0.1,0-0.1,0-0.2,0c0,0.2,0,0.4,0,0.6
	c-0.1,0-0.1,0-0.2,0c-0.1,0.4-0.3,0.8-0.4,1.2c-0.1,0-0.1,0-0.2,0c-0.1,0.3-0.1,0.5-0.2,0.8c-0.1,0.1-0.3,0.1-0.4,0.2
	c0,0.1,0,0.3,0,0.4c-0.1,0.1-0.3,0.1-0.4,0.2c0,0.1,0,0.3,0,0.4c-0.3,0.2-0.5,0.4-0.8,0.6c-2.6,3.7-6.9,5.7-11.6,7.4
	c-2,0.4-4,0.8-6,1.2c-0.8,0-1.6,0-2.4,0c-1.5,0.4-7.1,0.4-8.6,0c-0.6,0-1.2,0-1.8,0c-1.3,0-3,0-4-0.4c0-9.5,0-18.9,0-28.4
	c0-2.8,0-5.6,0-8.4c0-1.3-0.2-3,0.2-4c6.6,0,14.8-0.6,20,1c0.9,0.1,1.7,0.3,2.6,0.4c0,0.1,0,0.1,0,0.2c0.2,0,0.4,0,0.6,0
	c0,0.1,0,0.1,0,0.2c0.2,0,0.4,0,0.6,0c0,0.1,0,0.1,0,0.2c0.2,0,0.4,0,0.6,0c0,0.1,0,0.1,0,0.2c0.4,0.1,0.8,0.1,1.2,0.2
	c0,0.1,0,0.1,0,0.2c0.3,0.1,0.5,0.1,0.8,0.2c0,0.1,0,0.1,0,0.2c0.6,0.2,1.2,0.4,1.8,0.6c0.1,0.1,0.1,0.3,0.2,0.4
	c0.3,0.1,0.5,0.1,0.8,0.2c0,0.1,0,0.1,0,0.2c0.2,0.1,0.4,0.1,0.6,0.2c0.1,0.1,0.1,0.3,0.2,0.4c0.1,0,0.3,0,0.4,0
	c0.1,0.2,0.3,0.4,0.4,0.6c0.1,0,0.3,0,0.4,0c0.3,0.3,0.5,0.7,0.8,1c0.1,0,0.3,0,0.4,0c0.1,0.2,0.3,0.4,0.4,0.6c0.1,0,0.1,0,0.2,0
	c0,0.1,0,0.3,0,0.4c0.4,0.3,0.8,0.7,1.2,1c0.1,0.2,0.1,0.4,0.2,0.6c0.1,0.1,0.3,0.1,0.4,0.2c0,0.1,0,0.3,0,0.4
	c0.1,0.1,0.3,0.1,0.4,0.2c0.1,0.3,0.1,0.5,0.2,0.8c0.1,0,0.1,0,0.2,0c0,0.1,0,0.3,0,0.4c0.1,0,0.1,0,0.2,0c0,0.1,0,0.3,0,0.4
	c0.1,0,0.1,0,0.2,0c0.1,0.4,0.3,0.8,0.4,1.2c0.1,0,0.1,0,0.2,0c0,0.2,0,0.4,0,0.6c0.1,0,0.1,0,0.2,0c0,0.2,0,0.4,0,0.6
	c0.1,0,0.1,0,0.2,0c0,0.2,0,0.4,0,0.6c0.1,0,0.1,0,0.2,0c0,0.2,0,0.4,0,0.6c0.1,0,0.1,0,0.2,0c0,0.3,0,0.5,0,0.8c0.1,0,0.1,0,0.2,0
	c0,0.3,0,0.7,0,1c0.1,0,0.1,0,0.2,0c0,0.4,0,0.8,0,1.2c0.1,0,0.1,0,0.2,0c0,0.8,0,1.6,0,2.4c0.1,0,0.1,0,0.2,0
	C628.4,455.9,628.4,456.6,628.4,457.3z M353.2,346.1c-0.2,0.6-0.4,1.2-0.6,1.8c-0.1,0-0.1,0-0.2,0c0,0.2,0,0.4,0,0.6
	c-0.1,0-0.1,0-0.2,0c0,0.2,0,0.4,0,0.6c-0.1,0-0.1,0-0.2,0c0,0.2,0,0.4,0,0.6c-0.1,0-0.1,0-0.2,0c0,0.2,0,0.4,0,0.6
	c-0.1,0-0.1,0-0.2,0c0,0.2,0,0.4,0,0.6c-0.1,0-0.1,0-0.2,0c0,0.2,0,0.4,0,0.6c-0.1,0-0.1,0-0.2,0c-0.1,0.4-0.1,0.8-0.2,1.2
	c-0.1,0-0.1,0-0.2,0c-0.1,0.4-0.1,0.8-0.2,1.2c-0.1,0-0.1,0-0.2,0c-0.1,0.6-0.3,1.2-0.4,1.8c-1.9,4.7-3.3,9.9-5.2,14.6
	c-0.1,0.6-0.3,1.2-0.4,1.8c-0.1,0-0.1,0-0.2,0c-0.1,0.4-0.1,0.8-0.2,1.2c-0.1,0-0.1,0-0.2,0c0,0.2,0,0.4,0,0.6c-0.1,0-0.1,0-0.2,0
	c0,0.2,0,0.4,0,0.6c-0.1,0-0.1,0-0.2,0c0,0.2,0,0.4,0,0.6c-0.1,0-0.1,0-0.2,0c0,0.2,0,0.4,0,0.6c-0.1,0-0.1,0-0.2,0
	c0,0.2,0,0.4,0,0.6c-0.1,0-0.1,0-0.2,0c-0.1,0.4-0.1,0.8-0.2,1.2c-0.1,0-0.1,0-0.2,0c0,0.1,0,0.3,0,0.4c-0.1,0-0.1,0-0.2,0
	c0,0.2,0,0.4,0,0.6c-0.1,0-0.1,0-0.2,0c0,0.2,0,0.4,0,0.6c-0.1,0-0.1,0-0.2,0c0,0.2,0,0.4,0,0.6c-0.1,0-0.1,0-0.2,0
	c0,0.2,0,0.4,0,0.6c-0.1,0-0.1,0-0.2,0c0,0.2,0,0.4,0,0.6c-0.1,0-0.1,0-0.2,0c0,0.2,0,0.4,0,0.6c-0.1,0-0.1,0-0.2,0
	c0,0.2,0,0.4,0,0.6c-0.1,0-0.1,0-0.2,0c-0.1,0.4-0.1,0.8-0.2,1.2c-0.1,0-0.1,0-0.2,0c0,0.2,0,0.4,0,0.6c-0.1,0-0.1,0-0.2,0
	c0,0.2,0,0.4,0,0.6c-0.1,0-0.1,0-0.2,0c0,0.2,0,0.4,0,0.6c-0.1,0-0.1,0-0.2,0c0,0.2,0,0.4,0,0.6c-0.1,0-0.1,0-0.2,0
	c0,0.2,0,0.4,0,0.6c-0.1,0-0.1,0-0.2,0c0,0.2,0,0.4,0,0.6c-0.1,0-0.1,0-0.2,0c-0.1,0.4-0.1,0.8-0.2,1.2c-0.1,0-0.1,0-0.2,0
	c0,0.1,0,0.3,0,0.4c-0.1,0-0.1,0-0.2,0c-0.1,0.6-0.3,1.2-0.4,1.8c-0.1,0-0.1,0-0.2,0c-0.1,0.4-0.1,0.8-0.2,1.2c-0.1,0-0.1,0-0.2,0
	c0,0.2,0,0.4,0,0.6c-0.1,0-0.1,0-0.2,0c0,0.2,0,0.4,0,0.6c-0.1,0-0.1,0-0.2,0c0,0.2,0,0.4,0,0.6c-0.1,0-0.1,0-0.2,0
	c0,0.2,0,0.4,0,0.6c-0.1,0-0.1,0-0.2,0c0,0.2,0,0.4,0,0.6c-0.1,0-0.1,0-0.2,0c-0.1,0.6-0.3,1.2-0.4,1.8c-2,5.1-3.6,10.7-5.6,15.8
	c0,0.2,0,0.4,0,0.6c-0.1,0-0.1,0-0.2,0c0,0.2,0,0.4,0,0.6c-0.1,0-0.1,0-0.2,0c0,0.2,0,0.4,0,0.6c-0.1,0-0.1,0-0.2,0
	c0,0.2,0,0.4,0,0.6c-0.1,0-0.1,0-0.2,0c0,0.2,0,0.4,0,0.6c-1.1,2.6-1.9,5.6-3,8.2c-0.3,1.2-0.7,2.4-1,3.6c-1.2,3-2.2,6.4-3.4,9.4
	c-0.3,1.2-0.7,2.4-1,3.6c-0.1,0-0.1,0-0.2,0c0,0.1,0,0.3,0,0.4c-0.1,0-0.1,0-0.2,0c-0.4,1.4-0.8,2.8-1.2,4.2
	c-1.5,3.8-2.7,8-4.2,11.8c-0.4,1.4-0.8,2.8-1.2,4.2c-0.1,0-0.1,0-0.2,0c0,0.1,0,0.3,0,0.4c-0.1,0-0.1,0-0.2,0c0,0.2,0,0.4,0,0.6
	c-0.1,0-0.1,0-0.2,0c0,0.2,0,0.4,0,0.6c-0.1,0-0.1,0-0.2,0c0,0.2,0,0.4,0,0.6c-0.1,0-0.1,0-0.2,0c0,0.2,0,0.4,0,0.6
	c-0.1,0-0.1,0-0.2,0c0,0.2,0,0.4,0,0.6c-0.1,0-0.1,0-0.2,0c0,0.2,0,0.4,0,0.6c-0.1,0-0.1,0-0.2,0c-0.1,0.4-0.1,0.8-0.2,1.2
	c-1.4,3.6-2.6,7.6-4,11.2c-0.4,1.4-0.8,2.8-1.2,4.2c-0.1,0-0.1,0-0.2,0c0,0.1,0,0.3,0,0.4c-0.1,0-0.1,0-0.2,0
	c-0.3,1.2-0.7,2.4-1,3.6c-0.1,0-0.1,0-0.2,0c-0.1,0.4-0.1,0.8-0.2,1.2c-0.1,0-0.1,0-0.2,0c0,0.2,0,0.4,0,0.6c-0.1,0-0.1,0-0.2,0
	c0,0.2,0,0.4,0,0.6c-0.1,0-0.1,0-0.2,0c0,0.2,0,0.4,0,0.6c-0.1,0-0.1,0-0.2,0c0,0.2,0,0.4,0,0.6c-0.1,0-0.1,0-0.2,0
	c0,0.2,0,0.4,0,0.6c-0.1,0-0.1,0-0.2,0c-0.1,0.6-0.3,1.2-0.4,1.8c-0.1,0-0.1,0-0.2,0c0,0.1,0,0.3,0,0.4c-0.1,0-0.1,0-0.2,0
	c-0.1,0.6-0.3,1.2-0.4,1.8c-0.1,0-0.1,0-0.2,0c-0.4,1.4-0.8,2.8-1.2,4.2c10.4,0,20.8,0,31.2,0c4.5-15.1,9.1-30.3,13.6-45.4
	c15.7,0,31.3,0,47,0c4.5,15.1,9.1,30.3,13.6,45.4c10.7,0,21.5,0,32.2,0C422.3,447,405.1,396.6,388,346.1
	C376.4,346.1,364.8,346.1,353.2,346.1z M354.2,427.5c0.1-1,0.4-1.3,0.6-2c0-0.3,0-0.5,0-0.8c0.1,0,0.1,0,0.2,0
	c0.1-0.7,0.3-1.3,0.4-2c0.1,0,0.1,0,0.2,0c0-0.2,0-0.4,0-0.6c0.1,0,0.1,0,0.2,0c0-0.2,0-0.4,0-0.6c0.1,0,0.1,0,0.2,0
	c0-0.3,0-0.5,0-0.8c0.1,0,0.1,0,0.2,0c0-0.2,0-0.4,0-0.6c0.1,0,0.1,0,0.2,0c0-0.2,0-0.4,0-0.6c0.1,0,0.1,0,0.2,0c0-0.3,0-0.5,0-0.8
	c0.1,0,0.1,0,0.2,0c0.1-0.7,0.3-1.3,0.4-2c0.1,0,0.1,0,0.2,0c0.1-0.7,0.3-1.3,0.4-2c0.1,0,0.1,0,0.2,0c0-0.2,0-0.4,0-0.6
	c0.1,0,0.1,0,0.2,0c0-0.2,0-0.4,0-0.6c0.1,0,0.1,0,0.2,0c0-0.3,0-0.5,0-0.8c0.1,0,0.1,0,0.2,0c0.1-0.7,0.3-1.3,0.4-2
	c0.1,0,0.1,0,0.2,0c0-0.2,0-0.4,0-0.6c0.1,0,0.1,0,0.2,0c0-0.2,0-0.4,0-0.6c0.1,0,0.1,0,0.2,0c0-0.3,0-0.5,0-0.8
	c2.2-6.2,3.8-13,6-19.2c0-0.3,0-0.5,0-0.8c0.1,0,0.1,0,0.2,0c0-0.2,0-0.4,0-0.6c0.1,0,0.1,0,0.2,0c0-0.2,0-0.4,0-0.6
	c0.1,0,0.1,0,0.2,0c0-0.3,0-0.5,0-0.8c0.1,0,0.1,0,0.2,0c0.1-0.7,0.3-1.3,0.4-2c0.1,0,0.1,0,0.2,0c0.1-0.7,0.3-1.3,0.4-2
	c0.1,0,0.1,0,0.2,0c0.1-0.7,0.3-1.3,0.4-2c0.1,0,0.1,0,0.2,0c0-0.2,0-0.4,0-0.6c0.1,0,0.1,0,0.2,0c0-0.2,0-0.4,0-0.6
	c0.1,0,0.1,0,0.2,0c0-0.3,0-0.5,0-0.8c0.1,0,0.1,0,0.2,0c0-0.2,0-0.4,0-0.6c0.1,0,0.1,0,0.2,0c0-0.2,0-0.4,0-0.6c0.1,0,0.1,0,0.2,0
	c0-0.3,0-0.5,0-0.8c0.1,0,0.1,0,0.2,0c0.1-0.7,0.3-1.3,0.4-2c0.1,0,0.1,0,0.2,0c0.1-0.4,0-0.2,0.2-0.4c0.2,0.8,0.4,1.6,0.6,2.4
	c0.1,0,0.1,0,0.2,0c0,0.3,0,0.5,0,0.8c0.1,0,0.1,0,0.2,0c0.1,0.7,0.3,1.3,0.4,2c0.1,0,0.1,0,0.2,0c0.1,0.7,0.3,1.3,0.4,2
	c0.1,0,0.1,0,0.2,0c0,0.2,0,0.4,0,0.6c0.1,0,0.1,0,0.2,0c0,0.2,0,0.4,0,0.6c0.1,0,0.1,0,0.2,0c0,0.3,0,0.5,0,0.8c0.1,0,0.1,0,0.2,0
	c0,0.2,0,0.4,0,0.6c0.1,0,0.1,0,0.2,0c0,0.2,0,0.4,0,0.6c0.1,0,0.1,0,0.2,0c0,0.3,0,0.5,0,0.8c0.1,0,0.1,0,0.2,0
	c0.1,0.7,0.3,1.3,0.4,2c0.1,0,0.1,0,0.2,0c0.1,0.7,0.3,1.3,0.4,2c0.1,0,0.1,0,0.2,0c0.1,0.7,0.3,1.3,0.4,2c0.1,0,0.1,0,0.2,0
	c0,0.2,0,0.4,0,0.6c0.1,0,0.1,0,0.2,0c0,0.2,0,0.4,0,0.6c0.1,0,0.1,0,0.2,0c0,0.3,0,0.5,0,0.8c0.1,0,0.1,0,0.2,0
	c0.1,0.7,0.3,1.3,0.4,2c0.1,0,0.1,0,0.2,0c0,0.2,0,0.4,0,0.6c0.1,0,0.1,0,0.2,0c0,0.2,0,0.4,0,0.6c0.1,0,0.1,0,0.2,0
	c0,0.3,0,0.5,0,0.8c1.5,4.2,2.7,9,4.2,13.2c0,0.3,0,0.5,0,0.8c0.1,0,0.1,0,0.2,0c0,0.2,0,0.4,0,0.6c0.1,0,0.1,0,0.2,0
	c0,0.2,0,0.4,0,0.6c0.1,0,0.1,0,0.2,0c0,0.3,0,0.5,0,0.8c0.1,0,0.1,0,0.2,0c0.1,0.7,0.3,1.3,0.4,2c0.1,0,0.1,0,0.2,0
	c0.1,0.7,0.3,1.3,0.4,2c0.1,0,0.1,0,0.2,0c0,0.2,0,0.4,0,0.6c0.1,0,0.1,0,0.2,0c0,0.2,0,0.4,0,0.6c0.1,0,0.1,0,0.2,0
	c0,0.3,0,0.5,0,0.8c0.1,0,0.1,0,0.2,0c0,0.2,0,0.4,0,0.6c0.1,0,0.1,0,0.2,0c0,0.2,0,0.4,0,0.6c0.1,0,0.1,0,0.2,0c0,0.3,0,0.5,0,0.8
	c0.1,0,0.1,0,0.2,0c0.2,0.9,0.4,1.7,0.6,2.6c0.1,0,0.1,0,0.2,0c0,0.2,0,0.4,0,0.6c0.1,0,0.1,0,0.2,0c0,0.2,0,0.4,0,0.6
	c0.1,0,0.1,0,0.2,0c0,0.3,0,0.5,0,0.8c0.1,0,0.1,0,0.2,0c0.1,0.5,0.1,0.9,0.2,1.4C375.4,427.5,364.8,427.5,354.2,427.5z
	 M918.4,346.7c-0.1,0.1-0.3,0.1-0.4,0.2c-0.1,0.4-0.3,0.8-0.4,1.2c-0.1,0.1-0.3,0.1-0.4,0.2c-0.1,0.3-0.1,0.5-0.2,0.8
	c-0.1,0.1-0.3,0.1-0.4,0.2c-0.1,0.4-0.3,0.8-0.4,1.2c-0.1,0.1-0.3,0.1-0.4,0.2c-0.1,0.4-0.3,0.8-0.4,1.2c-0.1,0.1-0.3,0.1-0.4,0.2
	c-0.1,0.3-0.1,0.5-0.2,0.8c-0.1,0.1-0.3,0.1-0.4,0.2c-0.1,0.4-0.3,0.8-0.4,1.2c-0.1,0.1-0.3,0.1-0.4,0.2c-0.1,0.4-0.3,0.8-0.4,1.2
	c-0.1,0.1-0.3,0.1-0.4,0.2c0,0.1,0,0.3,0,0.4c-0.1,0-0.1,0-0.2,0c0,0.1,0,0.3,0,0.4c-0.1,0.1-0.3,0.1-0.4,0.2
	c-0.1,0.4-0.3,0.8-0.4,1.2c-0.1,0.1-0.3,0.1-0.4,0.2c0,0.1,0,0.3,0,0.4c-0.1,0-0.1,0-0.2,0c0,0.1,0,0.3,0,0.4
	c-4.7,7.5-8.9,15.5-13.6,23c-0.1,0.4-0.3,0.8-0.4,1.2c-0.1,0.1-0.3,0.1-0.4,0.2c-0.1,0.3-0.1,0.5-0.2,0.8c-0.1,0.1-0.3,0.1-0.4,0.2
	c-0.1,0.4-0.3,0.8-0.4,1.2c-0.1,0.1-0.3,0.1-0.4,0.2c-0.1,0.4-0.3,0.8-0.4,1.2c-0.1,0.1-0.3,0.1-0.4,0.2c-0.1,0.3-0.1,0.5-0.2,0.8
	c-0.1,0.1-0.3,0.1-0.4,0.2c-0.1,0.4-0.3,0.8-0.4,1.2c-0.1,0.1-0.3,0.1-0.4,0.2c-0.1,0.4-0.3,0.8-0.4,1.2c-0.1,0.1-0.3,0.1-0.4,0.2
	c0,0.1,0,0.3,0,0.4c-0.1,0-0.1,0-0.2,0c0,0.1,0,0.3,0,0.4c-0.1,0.1-0.3,0.1-0.4,0.2c-0.1,0.4-0.3,0.8-0.4,1.2
	c-0.1,0.1-0.3,0.1-0.4,0.2c-0.1,0.4-0.3,0.8-0.4,1.2c-0.1,0.1-0.3,0.1-0.4,0.2c0,0.1,0,0.3,0,0.4c-0.1,0-0.1,0-0.2,0
	c0,0.1,0,0.3,0,0.4c-0.1,0.1-0.3,0.1-0.4,0.2c-0.1,0.4-0.3,0.8-0.4,1.2c-0.1,0.1-0.3,0.1-0.4,0.2c-0.1,0.4-0.3,0.8-0.4,1.2
	c-0.1,0.1-0.3,0.1-0.4,0.2c-0.1,0.3-0.1,0.5-0.2,0.8c-0.1,0.1-0.3,0.1-0.4,0.2c-0.1,0.4-0.3,0.8-0.4,1.2c-0.1,0-0.3,0-0.4,0
	c-0.3-1.2-1.1-2.2-1.6-3.2c0-0.1,0-0.3,0-0.4c-0.1,0-0.1,0-0.2,0c0-0.1,0-0.3,0-0.4l-0.4-0.4c0-0.1,0-0.3,0-0.4
	c-0.1-0.1-0.3-0.1-0.4-0.2c0-0.1,0-0.3,0-0.4l-0.4-0.4c0-0.1,0-0.3,0-0.4c-0.1,0-0.1,0-0.2,0c0-0.1,0-0.3,0-0.4c-0.1,0-0.1,0-0.2,0
	c0-0.1,0-0.3,0-0.4c-0.1,0-0.1,0-0.2,0c0-0.1,0-0.3,0-0.4c-0.1,0-0.1,0-0.2,0c0-0.1,0-0.3,0-0.4c-0.1,0-0.1,0-0.2,0
	c0-0.1,0-0.3,0-0.4c-0.1,0-0.1,0-0.2,0c0-0.1,0-0.3,0-0.4l-0.4-0.4c-0.1-0.3-0.1-0.5-0.2-0.8c-0.1-0.1-0.3-0.1-0.4-0.2
	c0-0.1,0-0.3,0-0.4l-0.4-0.4c0-0.1,0-0.3,0-0.4c-0.1,0-0.1,0-0.2,0c0-0.1,0-0.3,0-0.4c-0.1,0-0.1,0-0.2,0c0-0.1,0-0.3,0-0.4
	c-0.1,0-0.1,0-0.2,0c0-0.1,0-0.3,0-0.4c-0.1,0-0.1,0-0.2,0c0-0.1,0-0.3,0-0.4c-0.1,0-0.1,0-0.2,0c0-0.1,0-0.3,0-0.4
	c-0.1,0-0.1,0-0.2,0c0-0.1,0-0.3,0-0.4c-0.1,0-0.1,0-0.2,0c0-0.1,0-0.3,0-0.4l-0.4-0.4c0-0.1,0-0.3,0-0.4c-0.1-0.1-0.3-0.1-0.4-0.2
	c-0.1-0.4-0.3-0.8-0.4-1.2c-0.1,0-0.1,0-0.2,0c-0.1-0.3-0.1-0.5-0.2-0.8c-0.1,0-0.1,0-0.2,0c-0.1-0.3-0.1-0.5-0.2-0.8
	c-0.1,0-0.1,0-0.2,0c0-0.1,0-0.3,0-0.4c-0.1,0-0.1,0-0.2,0c0-0.1,0-0.3,0-0.4c-0.1,0-0.1,0-0.2,0c0-0.1,0-0.3,0-0.4l-0.4-0.4
	c-0.1-0.3-0.1-0.5-0.2-0.8c-0.1-0.1-0.3-0.1-0.4-0.2c0-0.1,0-0.3,0-0.4l-0.4-0.4c0-0.1,0-0.3,0-0.4c-0.1,0-0.1,0-0.2,0
	c0-0.1,0-0.3,0-0.4c-0.1,0-0.1,0-0.2,0c0-0.1,0-0.3,0-0.4c-0.1,0-0.1,0-0.2,0c0-0.1,0-0.3,0-0.4c-0.1,0-0.1,0-0.2,0
	c0-0.1,0-0.3,0-0.4c-0.1,0-0.1,0-0.2,0c0-0.1,0-0.3,0-0.4c-0.1,0-0.1,0-0.2,0c0-0.1,0-0.3,0-0.4l-0.4-0.4c-0.1-0.3-0.1-0.5-0.2-0.8
	c-0.1-0.1-0.3-0.1-0.4-0.2c0-0.1,0-0.3,0-0.4l-0.4-0.4c0-0.1,0-0.3,0-0.4c-0.1,0-0.1,0-0.2,0c0-0.1,0-0.3,0-0.4c-0.1,0-0.1,0-0.2,0
	c0-0.1,0-0.3,0-0.4c-0.1,0-0.1,0-0.2,0c0-0.1,0-0.3,0-0.4c-0.1,0-0.1,0-0.2,0c0-0.1,0-0.3,0-0.4c-0.1,0-0.1,0-0.2,0
	c0-0.1,0-0.3,0-0.4c-0.1,0-0.1,0-0.2,0c0-0.1,0-0.3,0-0.4c-0.1,0-0.1,0-0.2,0c0-0.1,0-0.3,0-0.4c-0.1,0-0.1,0-0.2,0
	c0-0.1,0-0.3,0-0.4l-0.4-0.4c0-0.1,0-0.3,0-0.4c-0.1-0.1-0.3-0.1-0.4-0.2c0-0.1,0-0.3,0-0.4c-0.1,0-0.1,0-0.2,0
	c-0.1-0.3-0.1-0.5-0.2-0.8c-0.1,0-0.1,0-0.2,0c-0.1-0.3-0.1-0.5-0.2-0.8c-0.1,0-0.1,0-0.2,0c0-0.1,0-0.3,0-0.4c-0.1,0-0.1,0-0.2,0
	c0-0.1,0-0.3,0-0.4c-0.1,0-0.1,0-0.2,0c0-0.1,0-0.3,0-0.4c-0.1,0-0.1,0-0.2,0c0-0.1,0-0.3,0-0.4l-0.4-0.4c-0.1-0.3-0.1-0.5-0.2-0.8
	c-0.1-0.1-0.3-0.1-0.4-0.2c-0.1-0.4-0.3-0.8-0.4-1.2c-0.1,0-0.1,0-0.2,0c-0.1-0.3-0.1-0.5-0.2-0.8c-0.1,0-0.1,0-0.2,0
	c0-0.1,0-0.3,0-0.4c-0.1,0-0.1,0-0.2,0c0-0.1,0-0.3,0-0.4c-0.1,0-0.1,0-0.2,0c0-0.1,0-0.3,0-0.4c-0.1,0-0.1,0-0.2,0
	c0-0.1,0-0.3,0-0.4l-0.4-0.4c-0.1-0.3-0.1-0.5-0.2-0.8c-0.1-0.1-0.3-0.1-0.4-0.2c0-0.1,0-0.3,0-0.4l-0.4-0.4c0-0.1,0-0.3,0-0.4
	c-0.1,0-0.1,0-0.2,0c0-0.1,0-0.3,0-0.4c-0.1,0-0.1,0-0.2,0c0-0.1,0-0.3,0-0.4c-0.1,0-0.1,0-0.2,0c0-0.1,0-0.3,0-0.4
	c-0.1,0-0.1,0-0.2,0c0-0.1,0-0.3,0-0.4c-0.1,0-0.1,0-0.2,0c0-0.1,0-0.3,0-0.4c-0.1,0-0.1,0-0.2,0c0-0.1,0-0.3,0-0.4
	c-0.1,0-0.1,0-0.2,0c0-0.1,0-0.3,0-0.4l-0.4-0.4c-0.1-0.3-0.1-0.5-0.2-0.8c-0.1-0.1-0.3-0.1-0.4-0.2c-0.1-0.3-0.1-0.5-0.2-0.8
	l-0.4-0.4c0-0.1,0-0.3,0-0.4c-0.1,0-0.1,0-0.2,0c0-0.1,0-0.3,0-0.4c-0.1,0-0.1,0-0.2,0c0-0.1,0-0.3,0-0.4c-0.1,0-0.1,0-0.2,0
	c-0.1-0.3-0.1-0.5-0.2-0.8c-0.1,0-0.1,0-0.2,0c-0.1-0.3-0.1-0.5-0.2-0.8l-0.4-0.4c0-0.1,0-0.3,0-0.4c-0.1-0.1-0.3-0.1-0.4-0.2
	c0-0.1,0-0.3,0-0.4l-0.4-0.4c0-0.1,0-0.3,0-0.4c-0.1,0-0.1,0-0.2,0c0-0.1,0-0.3,0-0.4c-0.1,0-0.1,0-0.2,0c0-0.1,0-0.3,0-0.4
	c-0.1,0-0.1,0-0.2,0c0-0.1,0-0.3,0-0.4c-0.1,0-0.1,0-0.2,0c-0.1-0.4-0.3-0.8-0.4-1.2c-11.6,0-23.2,0-34.8,0c0.1,0.2,0.1,0.4,0.2,0.6
	c0.1,0,0.1,0,0.2,0c0,0.1,0,0.3,0,0.4c0.1,0,0.1,0,0.2,0c0,0.1,0,0.3,0,0.4c0.1,0.1,0.3,0.1,0.4,0.2c0.1,0.3,0.1,0.5,0.2,0.8
	c0.1,0.1,0.3,0.1,0.4,0.2c0.1,0.3,0.1,0.5,0.2,0.8c0.1,0.1,0.3,0.1,0.4,0.2c0.1,0.3,0.1,0.5,0.2,0.8c0.1,0.1,0.3,0.1,0.4,0.2
	c0.1,0.3,0.1,0.5,0.2,0.8c0.1,0.1,0.3,0.1,0.4,0.2c0.1,0.3,0.1,0.5,0.2,0.8c0.1,0.1,0.3,0.1,0.4,0.2c0,0.1,0,0.3,0,0.4
	c0.1,0,0.1,0,0.2,0c0,0.1,0,0.3,0,0.4c0.1,0.1,0.3,0.1,0.4,0.2c0.1,0.3,0.1,0.5,0.2,0.8c0.1,0.1,0.3,0.1,0.4,0.2
	c0.1,0.3,0.1,0.5,0.2,0.8c0.1,0.1,0.3,0.1,0.4,0.2c0.1,0.3,0.1,0.5,0.2,0.8c0.1,0.1,0.3,0.1,0.4,0.2c0.1,0.3,0.1,0.5,0.2,0.8
	c0.1,0.1,0.3,0.1,0.4,0.2c0.1,0.3,0.1,0.5,0.2,0.8c0.1,0.1,0.3,0.1,0.4,0.2c0.1,0.4,0.3,0.8,0.4,1.2c0.1,0.1,0.3,0.1,0.4,0.2
	c0.1,0.3,0.1,0.5,0.2,0.8c0.1,0.1,0.3,0.1,0.4,0.2c0.1,0.3,0.1,0.5,0.2,0.8c0.1,0.1,0.3,0.1,0.4,0.2c0.1,0.3,0.1,0.5,0.2,0.8
	c0.1,0.1,0.3,0.1,0.4,0.2c0.1,0.3,0.1,0.5,0.2,0.8c0.1,0.1,0.3,0.1,0.4,0.2c0,0.1,0,0.3,0,0.4c0.1,0,0.1,0,0.2,0c0,0.1,0,0.3,0,0.4
	c0.1,0.1,0.3,0.1,0.4,0.2c0.1,0.3,0.1,0.5,0.2,0.8c0.1,0.1,0.3,0.1,0.4,0.2c0.1,0.3,0.1,0.5,0.2,0.8c0.1,0.1,0.3,0.1,0.4,0.2
	c0.1,0.3,0.1,0.5,0.2,0.8c0.1,0.1,0.3,0.1,0.4,0.2c0.1,0.3,0.1,0.5,0.2,0.8c0.1,0.1,0.3,0.1,0.4,0.2c0.1,0.3,0.1,0.5,0.2,0.8
	c6,9.4,11.5,19.2,17.4,28.6c0.1,0.3,0.1,0.5,0.2,0.8c0.1,0.1,0.3,0.1,0.4,0.2c0.1,0.3,0.1,0.5,0.2,0.8c0.1,0.1,0.3,0.1,0.4,0.2
	c0.1,0.3,0.1,0.5,0.2,0.8c0.1,0.1,0.3,0.1,0.4,0.2c0.1,0.3,0.1,0.5,0.2,0.8c0.1,0.1,0.3,0.1,0.4,0.2c0.1,0.4,0.3,0.8,0.4,1.2
	c0.1,0.1,0.3,0.1,0.4,0.2c0.1,0.3,0.1,0.5,0.2,0.8c0.1,0.1,0.3,0.1,0.4,0.2c0,0.1,0,0.3,0,0.4c0.1,0,0.1,0,0.2,0c0,0.1,0,0.3,0,0.4
	c0.1,0.1,0.3,0.1,0.4,0.2c0.1,0.3,0.1,0.5,0.2,0.8c0.1,0.1,0.3,0.1,0.4,0.2c0.1,0.3,0.1,0.5,0.2,0.8c0.1,0.1,0.3,0.1,0.4,0.2
	c0.1,0.3,0.1,0.5,0.2,0.8c0.1,0.1,0.3,0.1,0.4,0.2c0.1,0.3,0.1,0.5,0.2,0.8c0.1,0.1,0.3,0.1,0.4,0.2c0.1,0.3,0.1,0.5,0.2,0.8
	c0.1,0.1,0.3,0.1,0.4,0.2c0,0.1,0,0.3,0,0.4c0.1,0,0.1,0,0.2,0c0,0.1,0,0.3,0,0.4c0.1,0.1,0.3,0.1,0.4,0.2c0.1,0.3,0.1,0.5,0.2,0.8
	c0.1,0.1,0.3,0.1,0.4,0.2c0,0.1,0,0.3,0,0.4c0.1,0,0.1,0,0.2,0c0,0.1,0,0.3,0,0.4c0.1,0.1,0.3,0.1,0.4,0.2c0.1,0.3,0.1,0.5,0.2,0.8
	c0.1,0.1,0.3,0.1,0.4,0.2c0.1,0.3,0.1,0.5,0.2,0.8c0.1,0.1,0.3,0.1,0.4,0.2c0.1,0.3,0.1,0.5,0.2,0.8c0.1,0.1,0.3,0.1,0.4,0.2
	c0.1,0.3,0.1,0.5,0.2,0.8c0.1,0.1,0.3,0.1,0.4,0.2c0.1,0.3,0.1,0.5,0.2,0.8c0.1,0.1,0.3,0.1,0.4,0.2c0,0.1,0,0.3,0,0.4
	c0.1,0,0.1,0,0.2,0c0,0.1,0,0.3,0,0.4c0.1,0.1,0.3,0.1,0.4,0.2c0,0.1,0,0.3,0,0.4c0.1,0,0.1,0,0.2,0c-0.1,0.3-0.1,0.7-0.2,1
	c-0.1,0.1-0.3,0.1-0.4,0.2c-0.1,0.3-0.1,0.5-0.2,0.8c-0.1,0.1-0.3,0.1-0.4,0.2c0,0.1,0,0.3,0,0.4c-0.1,0.1-0.3,0.1-0.4,0.2
	c0,0.1,0,0.3,0,0.4c-0.1,0.1-0.3,0.1-0.4,0.2c-0.1,0.3-0.1,0.5-0.2,0.8c-0.1,0.1-0.3,0.1-0.4,0.2c0,0.1,0,0.3,0,0.4
	c-0.1,0.1-0.3,0.1-0.4,0.2c-0.1,0.3-0.1,0.5-0.2,0.8c-0.1,0.1-0.3,0.1-0.4,0.2c-0.1,0.2-0.1,0.4-0.2,0.6c-0.1,0-0.1,0-0.2,0
	c-0.1,0.3-0.1,0.5-0.2,0.8c-0.1,0.1-0.3,0.1-0.4,0.2c0,0.1,0,0.3,0,0.4c-0.1,0.1-0.3,0.1-0.4,0.2c-0.1,0.3-0.1,0.5-0.2,0.8
	c-0.1,0.1-0.3,0.1-0.4,0.2c-0.1,0.2-0.1,0.4-0.2,0.6c-0.1,0-0.1,0-0.2,0c-0.1,0.3-0.1,0.5-0.2,0.8c-0.1,0.1-0.3,0.1-0.4,0.2
	c0,0.1,0,0.3,0,0.4c-0.1,0.1-0.3,0.1-0.4,0.2c-0.1,0.3-0.1,0.5-0.2,0.8c-0.1,0.1-0.3,0.1-0.4,0.2c0,0.1,0,0.3,0,0.4
	c-0.1,0.1-0.3,0.1-0.4,0.2c-0.1,0.3-0.1,0.5-0.2,0.8c-0.1,0.1-0.3,0.1-0.4,0.2c0,0.1,0,0.3,0,0.4c-0.1,0.1-0.3,0.1-0.4,0.2
	c0,0.1,0,0.3,0,0.4c-0.1,0-0.1,0-0.2,0c0,0.1,0,0.3,0,0.4c-0.1,0.1-0.3,0.1-0.4,0.2c0,0.1,0,0.3,0,0.4c-0.1,0.1-0.3,0.1-0.4,0.2
	c0,0.1,0,0.3,0,0.4c-0.1,0.1-0.3,0.1-0.4,0.2c-0.1,0.3-0.1,0.5-0.2,0.8c-0.1,0.1-0.3,0.1-0.4,0.2c-0.1,0.2-0.1,0.4-0.2,0.6
	c-0.1,0-0.1,0-0.2,0c-0.1,0.3-0.1,0.5-0.2,0.8c-0.1,0.1-0.3,0.1-0.4,0.2c-0.1,0.2-0.1,0.4-0.2,0.6c-0.1,0-0.1,0-0.2,0
	c-0.1,0.3-0.1,0.5-0.2,0.8c-0.1,0.1-0.3,0.1-0.4,0.2c0,0.1,0,0.3,0,0.4c-0.1,0.1-0.3,0.1-0.4,0.2c-0.1,0.3-0.1,0.5-0.2,0.8
	c-0.1,0.1-0.3,0.1-0.4,0.2c0,0.1,0,0.3,0,0.4c-0.1,0.1-0.3,0.1-0.4,0.2c-0.1,0.3-0.1,0.5-0.2,0.8c-0.1,0.1-0.3,0.1-0.4,0.2
	c-0.1,0.2-0.1,0.4-0.2,0.6c-0.1,0-0.1,0-0.2,0c-0.1,0.3-0.1,0.5-0.2,0.8c-0.1,0.1-0.3,0.1-0.4,0.2c0,0.1,0,0.3,0,0.4
	c-0.1,0.1-0.3,0.1-0.4,0.2c-0.1,0.3-0.1,0.5-0.2,0.8c-0.1,0.1-0.3,0.1-0.4,0.2c0,0.1,0,0.3,0,0.4c-0.1,0.1-0.3,0.1-0.4,0.2
	c-0.1,0.3-0.1,0.5-0.2,0.8c-0.1,0.1-0.3,0.1-0.4,0.2c0,0.1,0,0.3,0,0.4c-0.1,0.1-0.3,0.1-0.4,0.2c-0.1,0.2-0.1,0.4-0.2,0.6
	c-0.1,0-0.1,0-0.2,0c-0.1,0.3-0.1,0.5-0.2,0.8c-0.1,0.1-0.3,0.1-0.4,0.2c0,0.1,0,0.3,0,0.4c-0.1,0.1-0.3,0.1-0.4,0.2
	c0,0.1,0,0.3,0,0.4c-0.1,0-0.1,0-0.2,0c0,0.1,0,0.3,0,0.4c-0.1,0.1-0.3,0.1-0.4,0.2c-0.1,0.2-0.1,0.4-0.2,0.6c-0.1,0-0.1,0-0.2,0
	c-0.1,0.3-0.1,0.5-0.2,0.8c-0.1,0.1-0.3,0.1-0.4,0.2c-0.1,0.2-0.1,0.4-0.2,0.6c-0.1,0-0.1,0-0.2,0c-0.1,0.3-0.1,0.5-0.2,0.8
	c-0.1,0.1-0.3,0.1-0.4,0.2c0,0.1,0,0.3,0,0.4c-0.1,0.1-0.3,0.1-0.4,0.2c-0.1,0.3-0.1,0.5-0.2,0.8c-0.1,0.1-0.3,0.1-0.4,0.2
	c-0.1,0.2-0.1,0.4-0.2,0.6c-0.1,0-0.1,0-0.2,0c-0.1,0.3-0.1,0.5-0.2,0.8c-0.1,0.1-0.3,0.1-0.4,0.2c-0.1,0.2-0.1,0.4-0.2,0.6
	c-0.1,0-0.1,0-0.2,0c-0.1,0.3-0.1,0.5-0.2,0.8c-0.1,0.1-0.3,0.1-0.4,0.2c0,0.1,0,0.3,0,0.4c-0.1,0.1-0.3,0.1-0.4,0.2
	c-0.1,0.3-0.1,0.5-0.2,0.8c-0.1,0.1-0.3,0.1-0.4,0.2c0,0.1,0,0.3,0,0.4c-0.1,0.1-0.3,0.1-0.4,0.2c0,0.1,0,0.3,0,0.4
	c-0.1,0.1-0.3,0.1-0.4,0.2c-0.1,0.3-0.1,0.5-0.2,0.8c-0.1,0.1-0.3,0.1-0.4,0.2c-0.1,0.2-0.1,0.4-0.2,0.6c-0.1,0-0.1,0-0.2,0
	c-0.1,0.3-0.1,0.5-0.2,0.8c-0.1,0.1-0.3,0.1-0.4,0.2c0,0.1,0,0.3,0,0.4c-0.1,0.1-0.3,0.1-0.4,0.2c-0.1,0.3-0.1,0.5-0.2,0.8
	c-0.1,0.1-0.3,0.1-0.4,0.2c0,0.1,0,0.3,0,0.4c-0.1,0.1-0.3,0.1-0.4,0.2c-0.1,0.3-0.1,0.5-0.2,0.8c-0.1,0.1-0.3,0.1-0.4,0.2
	c-0.1,0.2-0.1,0.4-0.2,0.6c-0.1,0-0.1,0-0.2,0c-0.1,0.3-0.1,0.5-0.2,0.8c-0.1,0.1-0.3,0.1-0.4,0.2c0,0.1,0,0.3,0,0.4
	c-0.1,0.1-0.3,0.1-0.4,0.2c0,0.1,0,0.3,0,0.4c-0.1,0-0.1,0-0.2,0c0,0.1,0,0.3,0,0.4c-0.1,0.1-0.3,0.1-0.4,0.2
	c-0.1,0.2-0.1,0.4-0.2,0.6c-0.1,0-0.1,0-0.2,0c-0.1,0.3-0.1,0.5-0.2,0.8c-0.1,0.1-0.3,0.1-0.4,0.2c-0.1,0.2-0.1,0.4-0.2,0.6
	c-0.1,0-0.1,0-0.2,0c-0.1,0.3-0.1,0.5-0.2,0.8c-0.1,0-0.1,0-0.2,0c-0.1,0.2-0.1,0.4-0.2,0.6c-0.1,0.1-0.3,0.1-0.4,0.2
	c0,0.1,0,0.3,0,0.4c-0.1,0.1-0.3,0.1-0.4,0.2c-0.1,0.3-0.1,0.5-0.2,0.8c-0.1,0.1-0.3,0.1-0.4,0.2c-0.1,0.2-0.1,0.4-0.2,0.6
	c-0.1,0-0.1,0-0.2,0c-0.1,0.3-0.1,0.5-0.2,0.8c-0.1,0.1-0.3,0.1-0.4,0.2c-0.1,0.2-0.1,0.4-0.2,0.6c-0.1,0-0.1,0-0.2,0
	c-0.1,0.3-0.1,0.5-0.2,0.8c-0.1,0.1-0.3,0.1-0.4,0.2c0,0.1,0,0.3,0,0.4c-0.1,0.1-0.3,0.1-0.4,0.2c-0.1,0.3-0.1,0.5-0.2,0.8
	c-0.1,0.1-0.3,0.1-0.4,0.2c0,0.1,0,0.3,0,0.4c-0.1,0.1-0.3,0.1-0.4,0.2c-0.1,0.3-0.1,0.5-0.2,0.8c-0.1,0.1-0.3,0.1-0.4,0.2
	c-0.1,0.2-0.1,0.4-0.2,0.6c-0.1,0-0.1,0-0.2,0c-0.1,0.3-0.1,0.5-0.2,0.8c-0.1,0.1-0.3,0.1-0.4,0.2c-0.1,0.2-0.1,0.4-0.2,0.6
	c-0.1,0-0.1,0-0.2,0c-0.1,0.3-0.1,0.5-0.2,0.8c-0.1,0.1-0.3,0.1-0.4,0.2c0,0.1,0,0.3,0,0.4c-0.1,0.1-0.3,0.1-0.4,0.2
	c0,0.1,0,0.3,0,0.4c-0.1,0-0.1,0-0.2,0c0,0.1,0,0.3,0,0.4c-0.1,0.1-0.3,0.1-0.4,0.2c0,0.1,0,0.3,0,0.4c-0.1,0.1-0.3,0.1-0.4,0.2
	c0,0.1,0,0.3,0,0.4c-0.1,0.1-0.3,0.1-0.4,0.2c-0.1,0.3-0.1,0.5-0.2,0.8c-0.1,0.1-0.3,0.1-0.4,0.2c-0.1,0.2-0.1,0.4-0.2,0.6
	c-0.1,0-0.1,0-0.2,0c-0.1,0.3-0.1,0.5-0.2,0.8c-0.1,0.1-0.3,0.1-0.4,0.2c0,0.1,0,0.3,0,0.4c-0.1,0.1-0.3,0.1-0.4,0.2
	c-0.1,0.3-0.1,0.5-0.2,0.8c-0.1,0.1-0.3,0.1-0.4,0.2c0,0.1,0,0.3,0,0.4c-0.1,0.1-0.3,0.1-0.4,0.2c-0.1,0.3-0.1,0.5-0.2,0.8
	c-0.1,0.1-0.3,0.1-0.4,0.2c0,0.1,0,0.3,0,0.4c-0.1,0-0.1,0-0.2,0c-0.1,0.2-0.1,0.4-0.2,0.6c11.1,0,22.1,0,33.2,0
	c10.4-18.2,20.8-36.4,31.2-54.6c0.1,0,0.3,0,0.4,0c0.2,0.7,0.7,1.2,1,1.8c0,0.1,0,0.3,0,0.4c0.1,0.1,0.3,0.1,0.4,0.2
	c0,0.1,0,0.3,0,0.4l0.4,0.4c0,0.1,0,0.3,0,0.4c0.1,0,0.1,0,0.2,0c0,0.1,0,0.3,0,0.4c0.1,0.1,0.3,0.1,0.4,0.2
	c0.1,0.4,0.3,0.8,0.4,1.2c0.1,0.1,0.3,0.1,0.4,0.2c0,0.1,0,0.3,0,0.4l0.4,0.4c0,0.1,0,0.3,0,0.4c0.1,0,0.1,0,0.2,0
	c0,0.1,0,0.3,0,0.4c0.1,0.1,0.3,0.1,0.4,0.2c0,0.1,0,0.3,0,0.4l0.4,0.4c0,0.1,0,0.3,0,0.4c0.1,0,0.1,0,0.2,0c0,0.1,0,0.3,0,0.4
	c0.1,0.1,0.3,0.1,0.4,0.2c0,0.1,0,0.3,0,0.4l0.4,0.4c0,0.1,0,0.3,0,0.4c0.1,0,0.1,0,0.2,0c0,0.1,0,0.3,0,0.4
	c0.1,0.1,0.3,0.1,0.4,0.2c0,0.1,0,0.3,0,0.4l0.4,0.4c0,0.1,0,0.3,0,0.4c0.1,0,0.1,0,0.2,0c0,0.1,0,0.3,0,0.4
	c0.1,0.1,0.3,0.1,0.4,0.2c0,0.1,0,0.3,0,0.4l0.4,0.4c0,0.1,0,0.3,0,0.4c0.1,0,0.1,0,0.2,0c0,0.1,0,0.3,0,0.4
	c0.1,0.1,0.3,0.1,0.4,0.2c0,0.1,0,0.3,0,0.4l0.4,0.4c0,0.1,0,0.3,0,0.4c0.1,0.1,0.3,0.1,0.4,0.2c0,0.1,0,0.3,0,0.4l0.4,0.4
	c0,0.1,0,0.3,0,0.4c0.1,0,0.1,0,0.2,0c0,0.1,0,0.3,0,0.4c0.1,0.1,0.3,0.1,0.4,0.2c0,0.1,0,0.3,0,0.4l0.4,0.4
	c0.1,0.3,0.1,0.5,0.2,0.8c0.1,0.1,0.3,0.1,0.4,0.2c0,0.1,0,0.3,0,0.4l0.4,0.4c0,0.1,0,0.3,0,0.4c0.1,0,0.1,0,0.2,0
	c0,0.1,0,0.3,0,0.4c0.1,0.1,0.3,0.1,0.4,0.2c0,0.1,0,0.3,0,0.4l0.4,0.4c0,0.1,0,0.3,0,0.4c0.1,0,0.1,0,0.2,0c0,0.1,0,0.3,0,0.4
	c0.1,0.1,0.3,0.1,0.4,0.2c0,0.1,0,0.3,0,0.4l0.4,0.4c0,0.1,0,0.3,0,0.4c0.1,0,0.1,0,0.2,0c0,0.1,0,0.3,0,0.4
	c0.1,0.1,0.3,0.1,0.4,0.2c0.1,0.4,0.3,0.8,0.4,1.2c0.1,0.1,0.3,0.1,0.4,0.2c0,0.1,0,0.3,0,0.4l0.4,0.4c0,0.1,0,0.3,0,0.4
	c0.1,0,0.1,0,0.2,0c0,0.1,0,0.3,0,0.4c0.1,0.1,0.3,0.1,0.4,0.2c0,0.1,0,0.3,0,0.4l0.4,0.4c0,0.1,0,0.3,0,0.4c0.1,0,0.1,0,0.2,0
	c0,0.1,0,0.3,0,0.4c0.1,0.1,0.3,0.1,0.4,0.2c0,0.1,0,0.3,0,0.4l0.4,0.4c0,0.1,0,0.3,0,0.4c0.1,0,0.1,0,0.2,0c0,0.1,0,0.3,0,0.4
	c0.1,0.1,0.3,0.1,0.4,0.2c0,0.1,0,0.3,0,0.4l0.4,0.4c0.1,0.3,0.1,0.5,0.2,0.8c0.1,0.1,0.3,0.1,0.4,0.2c0,0.1,0,0.3,0,0.4l0.4,0.4
	c0,0.1,0,0.3,0,0.4c0.1,0,0.1,0,0.2,0c0,0.1,0,0.3,0,0.4c0.1,0.1,0.3,0.1,0.4,0.2c0.1,0.4,0.3,0.8,0.4,1.2c0.1,0.1,0.3,0.1,0.4,0.2
	c0,0.1,0,0.3,0,0.4l0.4,0.4c0,0.1,0,0.3,0,0.4c0.1,0,0.1,0,0.2,0c0,0.1,0,0.3,0,0.4c0.1,0.1,0.3,0.1,0.4,0.2c0,0.1,0,0.3,0,0.4
	l0.4,0.4c0,0.1,0,0.3,0,0.4c0.1,0,0.1,0,0.2,0c0,0.1,0,0.3,0,0.4c0.1,0.1,0.3,0.1,0.4,0.2c0,0.1,0,0.3,0,0.4l0.4,0.4
	c0,0.1,0,0.3,0,0.4c0.1,0,0.1,0,0.2,0c0,0.1,0,0.3,0,0.4c0.1,0.1,0.3,0.1,0.4,0.2c0,0.1,0,0.3,0,0.4l0.4,0.4c0,0.1,0,0.3,0,0.4
	c0.1,0,0.1,0,0.2,0c0,0.1,0,0.3,0,0.4c0.1,0.1,0.3,0.1,0.4,0.2c0,0.1,0,0.3,0,0.4l0.4,0.4c0.1,0.3,0.1,0.5,0.2,0.8
	c0.1,0.1,0.3,0.1,0.4,0.2c0,0.1,0,0.3,0,0.4l0.4,0.4c0,0.1,0,0.3,0,0.4c0.1,0,0.1,0,0.2,0c0,0.1,0,0.3,0,0.4
	c0.1,0.1,0.3,0.1,0.4,0.2c0,0.1,0,0.3,0,0.4l0.4,0.4c0,0.1,0,0.3,0,0.4c0.1,0.1,0.3,0.1,0.4,0.2c0,0.1,0,0.3,0,0.4l0.4,0.4
	c0,0.1,0,0.3,0,0.4c0.1,0,0.1,0,0.2,0c0,0.1,0,0.3,0,0.4c0.1,0.1,0.3,0.1,0.4,0.2c0,0.1,0,0.3,0,0.4l0.4,0.4c0,0.1,0,0.3,0,0.4
	c0.1,0,0.1,0,0.2,0c0,0.1,0,0.3,0,0.4c0.1,0.1,0.3,0.1,0.4,0.2c0.1,0.3,0.1,0.5,0.2,0.8c0.2,0.4,0.6,0.8,0.8,1.2c11.7,0,23.3,0,35,0
	c-0.2-0.7-0.4-1.3-0.8-1.8c-0.1-0.1-0.3-0.1-0.4-0.2c-0.1-0.3-0.1-0.5-0.2-0.8c-0.1-0.1-0.3-0.1-0.4-0.2c0-0.1,0-0.3,0-0.4
	c-0.1,0-0.1,0-0.2,0c0-0.1,0-0.3,0-0.4c-0.1-0.1-0.3-0.1-0.4-0.2c-0.1-0.2-0.1-0.4-0.2-0.6c-0.1,0-0.1,0-0.2,0
	c-0.1-0.3-0.1-0.5-0.2-0.8c-0.1-0.1-0.3-0.1-0.4-0.2c0-0.1,0-0.3,0-0.4c-0.1-0.1-0.3-0.1-0.4-0.2c-0.1-0.3-0.1-0.5-0.2-0.8
	c-0.1-0.1-0.3-0.1-0.4-0.2c-0.1-0.2-0.1-0.4-0.2-0.6c-0.1,0-0.1,0-0.2,0c-0.1-0.3-0.1-0.5-0.2-0.8c-0.1-0.1-0.3-0.1-0.4-0.2
	c-0.1-0.3-0.1-0.5-0.2-0.8c-0.1-0.1-0.3-0.1-0.4-0.2c-0.1-0.2-0.1-0.4-0.2-0.6c-0.1,0-0.1,0-0.2,0c-0.1-0.3-0.1-0.5-0.2-0.8
	c-0.1-0.1-0.3-0.1-0.4-0.2c0-0.1,0-0.3,0-0.4c-0.1-0.1-0.3-0.1-0.4-0.2c-0.1-0.3-0.1-0.5-0.2-0.8c-0.1-0.1-0.3-0.1-0.4-0.2
	c0-0.1,0-0.3,0-0.4c-0.1,0-0.1,0-0.2,0c0-0.1,0-0.3,0-0.4c-0.1-0.1-0.3-0.1-0.4-0.2c-0.1-0.2-0.1-0.4-0.2-0.6c-0.1,0-0.1,0-0.2,0
	c-0.1-0.3-0.1-0.5-0.2-0.8c-0.1-0.1-0.3-0.1-0.4-0.2c-0.1-0.2-0.1-0.4-0.2-0.6c-0.1,0-0.1,0-0.2,0c-0.1-0.3-0.1-0.5-0.2-0.8
	c-0.1-0.1-0.3-0.1-0.4-0.2c-0.1-0.2-0.1-0.4-0.2-0.6c-0.1,0-0.1,0-0.2,0c-0.1-0.3-0.1-0.5-0.2-0.8c-0.1-0.1-0.3-0.1-0.4-0.2
	c0-0.1,0-0.3,0-0.4c-0.1,0-0.1,0-0.2,0c0-0.1,0-0.3,0-0.4c-0.1-0.1-0.3-0.1-0.4-0.2c-0.1-0.2-0.1-0.4-0.2-0.6c-0.1,0-0.1,0-0.2,0
	c-0.1-0.3-0.1-0.5-0.2-0.8c-0.1-0.1-0.3-0.1-0.4-0.2c0-0.1,0-0.3,0-0.4c-0.1-0.1-0.3-0.1-0.4-0.2c-0.1-0.3-0.1-0.5-0.2-0.8
	c-0.1-0.1-0.3-0.1-0.4-0.2c-0.1-0.3-0.1-0.5-0.2-0.8c-0.1-0.1-0.3-0.1-0.4-0.2c-0.1-0.2-0.1-0.4-0.2-0.6c-0.1,0-0.1,0-0.2,0
	c-0.1-0.3-0.1-0.5-0.2-0.8c-0.1-0.1-0.3-0.1-0.4-0.2c0-0.1,0-0.3,0-0.4c-0.1-0.1-0.3-0.1-0.4-0.2c-0.1-0.3-0.1-0.5-0.2-0.8
	c-0.1-0.1-0.3-0.1-0.4-0.2c0-0.1,0-0.3,0-0.4c-0.1-0.1-0.3-0.1-0.4-0.2c-0.1-0.3-0.1-0.5-0.2-0.8c-0.1-0.1-0.3-0.1-0.4-0.2
	c0-0.1,0-0.3,0-0.4c-0.1,0-0.1,0-0.2,0c0-0.1,0-0.3,0-0.4c-0.1-0.1-0.3-0.1-0.4-0.2c-0.1-0.2-0.1-0.4-0.2-0.6c-0.1,0-0.1,0-0.2,0
	c-0.1-0.3-0.1-0.5-0.2-0.8c-0.1-0.1-0.3-0.1-0.4-0.2c-0.1-0.2-0.1-0.4-0.2-0.6c-0.1,0-0.1,0-0.2,0c-0.1-0.3-0.1-0.5-0.2-0.8
	c-0.1-0.1-0.3-0.1-0.4-0.2c0-0.1,0-0.3,0-0.4c-0.1,0-0.1,0-0.2,0c0-0.1,0-0.3,0-0.4c-0.1-0.1-0.3-0.1-0.4-0.2
	c-0.1-0.2-0.1-0.4-0.2-0.6c-0.1,0-0.1,0-0.2,0c-0.1-0.3-0.1-0.5-0.2-0.8c-0.1-0.1-0.3-0.1-0.4-0.2c-0.1-0.2-0.1-0.4-0.2-0.6
	c-0.1,0-0.1,0-0.2,0c-0.1-0.3-0.1-0.5-0.2-0.8c-0.1-0.1-0.3-0.1-0.4-0.2c0-0.1,0-0.3,0-0.4c-0.1,0-0.1,0-0.2,0c0-0.1,0-0.3,0-0.4
	c-0.1-0.1-0.3-0.1-0.4-0.2c-0.1-0.2-0.1-0.4-0.2-0.6c-0.1,0-0.1,0-0.2,0c-0.1-0.3-0.1-0.5-0.2-0.8c-0.1-0.1-0.3-0.1-0.4-0.2
	c0-0.1,0-0.3,0-0.4c-0.1-0.1-0.3-0.1-0.4-0.2c-0.1-0.3-0.1-0.5-0.2-0.8c-0.1-0.1-0.3-0.1-0.4-0.2c-0.1-0.2-0.1-0.4-0.2-0.6
	c-0.1,0-0.1,0-0.2,0c-0.1-0.3-0.1-0.5-0.2-0.8c-0.1-0.1-0.3-0.1-0.4-0.2c0-0.1,0-0.3,0-0.4c-0.1,0-0.1,0-0.2,0c0-0.1,0-0.3,0-0.4
	c-0.1-0.1-0.3-0.1-0.4-0.2c-0.1-0.2-0.1-0.4-0.2-0.6c-0.1,0-0.1,0-0.2,0c-0.1-0.3-0.1-0.5-0.2-0.8c-0.1-0.1-0.3-0.1-0.4-0.2
	c-0.1-0.2-0.1-0.4-0.2-0.6c-0.1,0-0.1,0-0.2,0c-0.1-0.3-0.1-0.5-0.2-0.8c-0.1-0.1-0.3-0.1-0.4-0.2c0-0.1,0-0.3,0-0.4
	c-0.1,0-0.1,0-0.2,0c0-0.1,0-0.3,0-0.4c-0.1-0.1-0.3-0.1-0.4-0.2c-0.1-0.2-0.1-0.4-0.2-0.6c-0.1,0-0.1,0-0.2,0
	c-0.1-0.3-0.1-0.5-0.2-0.8c-0.1-0.1-0.3-0.1-0.4-0.2c0-0.1,0-0.3,0-0.4c-0.1-0.1-0.3-0.1-0.4-0.2c-0.1-0.3-0.1-0.5-0.2-0.8
	c-0.1-0.1-0.3-0.1-0.4-0.2c-0.1-0.2-0.1-0.4-0.2-0.6c-0.1,0-0.1,0-0.2,0c-0.1-0.3-0.1-0.5-0.2-0.8c-0.1-0.1-0.3-0.1-0.4-0.2
	c0-0.1,0-0.3,0-0.4c-0.1,0-0.1,0-0.2,0c0-0.1,0-0.3,0-0.4c-0.1-0.1-0.3-0.1-0.4-0.2c-0.1-0.2-0.1-0.4-0.2-0.6c-0.1,0-0.1,0-0.2,0
	c-0.1-0.3-0.1-0.5-0.2-0.8c-0.1-0.1-0.3-0.1-0.4-0.2c0-0.1,0-0.3,0-0.4c-0.1-0.1-0.3-0.1-0.4-0.2c-0.1-0.3-0.1-0.5-0.2-0.8
	c-0.1-0.1-0.3-0.1-0.4-0.2c0-0.1,0-0.3,0-0.4c-0.1,0-0.1,0-0.2,0c0-0.1,0-0.3,0-0.4c-0.1-0.1-0.3-0.1-0.4-0.2
	c-0.1-0.2-0.1-0.4-0.2-0.6c-0.1,0-0.1,0-0.2,0c-0.1-0.3-0.1-0.5-0.2-0.8c-0.1-0.1-0.3-0.1-0.4-0.2c-0.1-0.2-0.1-0.4-0.2-0.6
	c-0.1,0-0.1,0-0.2,0c-0.1-0.3-0.1-0.5-0.2-0.8c-0.1-0.1-0.3-0.1-0.4-0.2c0-0.1,0-0.3,0-0.4c-0.1-0.1-0.3-0.1-0.4-0.2
	c-0.1-0.3-0.1-0.5-0.2-0.8c-0.1-0.1-0.3-0.1-0.4-0.2c0-0.1,0-0.3,0-0.4c-0.1,0-0.1,0-0.2,0c0-0.1,0-0.3,0-0.4
	c-0.1-0.1-0.3-0.1-0.4-0.2c-0.1-0.2-0.1-0.4-0.2-0.6c-0.1,0-0.1,0-0.2,0c-0.1-0.3-0.1-0.5-0.2-0.8c-0.1-0.1-0.3-0.1-0.4-0.2
	c-0.1-0.2-0.1-0.4-0.2-0.6c-0.1,0-0.1,0-0.2,0c-0.1-0.3-0.1-0.5-0.2-0.8c-0.1-0.1-0.3-0.1-0.4-0.2c0-0.1,0-0.3,0-0.4
	c-0.1,0-0.1,0-0.2,0c0-0.1,0-0.3,0-0.4c-0.1-0.1-0.3-0.1-0.4-0.2c-0.1-0.2-0.1-0.4-0.2-0.6c-0.1,0-0.1,0-0.2,0
	c-0.1-0.3-0.1-0.5-0.2-0.8c-0.1-0.1-0.3-0.1-0.4-0.2c-0.1-0.2-0.1-0.4-0.2-0.6c-0.1,0-0.1,0-0.2,0c-0.1-0.3-0.1-0.5-0.2-0.8
	c-0.1-0.1-0.3-0.1-0.4-0.2c0-0.1,0-0.3,0-0.4c-0.1-0.1-0.3-0.1-0.4-0.2c-0.1-0.3-0.1-0.5-0.2-0.8c-0.1-0.1-0.3-0.1-0.4-0.2
	c0-0.1,0-0.3,0-0.4c-0.1,0-0.1,0-0.2,0c0-0.1,0-0.3,0-0.4c-0.1-0.1-0.3-0.1-0.4-0.2c0-0.1,0-0.3,0-0.4c-0.1,0-0.1,0-0.2,0
	c-0.1-0.2-0.1-0.4-0.2-0.6c16.1-25.4,32.1-50.8,48.2-76.2c0-0.1,0-0.1,0-0.2c-11.2,0-22.4,0-33.6,0
	C918.5,346.3,918.5,346.5,918.4,346.7z M822.4,442.1c0.5-1.7,0.7-3.8,1.2-5.6c0-0.5,0-0.9,0-1.4c0.1,0,0.1,0,0.2,0
	c0-0.5,0-1.1,0-1.6c0.1,0,0.1,0,0.2,0c0-0.6,0-1.2,0-1.8c0.1,0,0.1,0,0.2,0c0-0.8,0-1.6,0-2.4c0.1,0,0.1,0,0.2,0c0-1.3,0-2.5,0-3.8
	c0.7-2.3,0.1-6.1,0-8.4c-0.1-3.1-0.1-6.3-0.8-8.8c0-0.5,0-0.9,0-1.4c-0.1,0-0.1,0-0.2,0c0-0.5,0-0.9,0-1.4c-0.1,0-0.1,0-0.2,0
	c0-0.3,0-0.7,0-1c-0.1,0-0.1,0-0.2,0c-0.1-0.7-0.1-1.5-0.2-2.2c-0.1,0-0.1,0-0.2,0c0-0.3,0-0.7,0-1c-0.1,0-0.1,0-0.2,0
	c-0.1-0.6-0.1-1.2-0.2-1.8c-0.1,0-0.1,0-0.2,0c0-0.3,0-0.5,0-0.8c-0.1,0-0.1,0-0.2,0c0-0.3,0-0.5,0-0.8c-0.1,0-0.1,0-0.2,0
	c0-0.3,0-0.5,0-0.8c-0.1,0-0.1,0-0.2,0c0-0.3,0-0.5,0-0.8c-0.1,0-0.1,0-0.2,0c0-0.2,0-0.4,0-0.6c-0.1,0-0.1,0-0.2,0
	c-0.2-0.9-0.4-1.7-0.6-2.6c-0.1,0-0.1,0-0.2,0c0-0.2,0-0.4,0-0.6c-0.1,0-0.1,0-0.2,0c0-0.2,0-0.4,0-0.6c-0.1,0-0.1,0-0.2,0
	c0-0.2,0-0.4,0-0.6c-0.1,0-0.1,0-0.2,0c0-0.2,0-0.4,0-0.6c-0.1,0-0.1,0-0.2,0c-0.1-0.4-0.1-0.8-0.2-1.2c-0.1,0-0.1,0-0.2,0
	c0-0.1,0-0.3,0-0.4c-0.1,0-0.1,0-0.2,0c0-0.2,0-0.4,0-0.6c-0.1,0-0.1,0-0.2,0c0-0.1,0-0.3,0-0.4c-0.1,0-0.1,0-0.2,0
	c0-0.2,0-0.4,0-0.6c-0.1,0-0.1,0-0.2,0c0-0.1,0-0.3,0-0.4c-0.1,0-0.1,0-0.2,0c0-0.2,0-0.4,0-0.6c-0.1,0-0.1,0-0.2,0
	c-0.1-0.3-0.1-0.5-0.2-0.8c-0.1,0-0.1,0-0.2,0c0-0.2,0-0.4,0-0.6c-0.1,0-0.1,0-0.2,0c-0.1-0.4-0.3-0.8-0.4-1.2c-0.1,0-0.1,0-0.2,0
	c0-0.1,0-0.3,0-0.4c-0.1,0-0.1,0-0.2,0c-0.2-0.6-0.4-1.2-0.6-1.8c-0.1-0.1-0.3-0.1-0.4-0.2c-0.1-0.3-0.1-0.5-0.2-0.8
	c-0.1,0-0.1,0-0.2,0c0-0.1,0-0.3,0-0.4c-0.1,0-0.1,0-0.2,0c0-0.1,0-0.3,0-0.4c-0.1,0-0.1,0-0.2,0c0-0.1,0-0.3,0-0.4l-0.4-0.4
	c0-0.1,0-0.3,0-0.4c-0.1-0.1-0.3-0.1-0.4-0.2c-0.1-0.3-0.1-0.5-0.2-0.8c-0.1-0.1-0.3-0.1-0.4-0.2c-0.1-0.3-0.1-0.5-0.2-0.8
	c-0.1-0.1-0.3-0.1-0.4-0.2c-0.1-0.3-0.1-0.5-0.2-0.8c-0.1,0-0.1,0-0.2,0c-0.1-0.2-0.1-0.4-0.2-0.6c-0.1-0.1-0.3-0.1-0.4-0.2
	c0-0.1,0-0.3,0-0.4c-0.1-0.1-0.3-0.1-0.4-0.2c0-0.1,0-0.3,0-0.4c-0.1-0.1-0.3-0.1-0.4-0.2c0-0.1,0-0.3,0-0.4c-0.1,0-0.1,0-0.2,0
	c-0.1-0.2-0.1-0.4-0.2-0.6c-0.1-0.1-0.3-0.1-0.4-0.2c0-0.1,0-0.3,0-0.4c-0.2-0.1-0.4-0.3-0.6-0.4c0-0.1,0-0.3,0-0.4
	c-0.2-0.1-0.4-0.3-0.6-0.4c0-0.1,0-0.3,0-0.4c-0.2-0.1-0.4-0.3-0.6-0.4c0-0.1,0-0.3,0-0.4c-0.3-0.2-0.5-0.4-0.8-0.6
	c0-0.1,0-0.3,0-0.4c-0.2-0.1-0.4-0.3-0.6-0.4c0-0.1,0-0.1,0-0.2c-0.1-0.1-0.3-0.1-0.4-0.2c0-0.1,0-0.3,0-0.4c-0.4-0.3-0.8-0.7-1.2-1
	c0-0.1,0-0.3,0-0.4c-0.7-0.6-1.3-1.2-2-1.8c-1-1.1-2-2.1-3-3.2c-0.1,0-0.3,0-0.4,0c-0.4-0.5-0.8-0.9-1.2-1.4c-0.1,0-0.3,0-0.4,0
	c-0.3-0.3-0.5-0.7-0.8-1c-0.1,0-0.3,0-0.4,0c-0.2-0.3-0.4-0.5-0.6-0.8c-0.1,0-0.3,0-0.4,0c-0.1-0.2-0.3-0.4-0.4-0.6
	c-0.1,0-0.3,0-0.4,0c-0.1-0.2-0.3-0.4-0.4-0.6c-0.1,0-0.3,0-0.4,0c-0.1-0.1-0.1-0.3-0.2-0.4c-0.1,0-0.3,0-0.4,0
	c-0.1-0.2-0.3-0.4-0.4-0.6c-0.1,0-0.3,0-0.4,0c-0.1-0.1-0.1-0.3-0.2-0.4c-0.2-0.1-0.4-0.1-0.6-0.2c0-0.1,0-0.1,0-0.2
	c-0.1,0-0.3,0-0.4,0c-0.1-0.1-0.1-0.3-0.2-0.4c-0.2-0.1-0.4-0.1-0.6-0.2c0-0.1,0-0.1,0-0.2c-0.3-0.1-0.5-0.1-0.8-0.2
	c-0.1-0.1-0.1-0.3-0.2-0.4c-0.3-0.1-0.5-0.1-0.8-0.2c-0.1-0.1-0.1-0.3-0.2-0.4c-0.4-0.1-0.8-0.3-1.2-0.4c-0.1-0.1-0.1-0.3-0.2-0.4
	c-0.1,0-0.3,0-0.4,0l-0.4-0.4c-0.1,0-0.3,0-0.4,0c0-0.1,0-0.1,0-0.2c-0.1,0-0.3,0-0.4,0c0-0.1,0-0.1,0-0.2c-0.1,0-0.3,0-0.4,0
	c0-0.1,0-0.1,0-0.2c-0.1,0-0.3,0-0.4,0c0-0.1,0-0.1,0-0.2c-0.1,0-0.3,0-0.4,0c0-0.1,0-0.1,0-0.2c-0.1,0-0.3,0-0.4,0
	c0-0.1,0-0.1,0-0.2c-0.1,0-0.3,0-0.4,0c0-0.1,0-0.1,0-0.2c-0.3-0.1-0.5-0.1-0.8-0.2c0-0.1,0-0.1,0-0.2c-0.3-0.1-0.5-0.1-0.8-0.2
	c0-0.1,0-0.1,0-0.2c-0.1,0-0.3,0-0.4,0c0-0.1,0-0.1,0-0.2c-0.2,0-0.4,0-0.6,0c0-0.1,0-0.1,0-0.2c-0.3-0.1-0.5-0.1-0.8-0.2
	c0-0.1,0-0.1,0-0.2c-0.2,0-0.4,0-0.6,0c0-0.1,0-0.1,0-0.2c-0.1,0-0.3,0-0.4,0c0-0.1,0-0.1,0-0.2c-0.2,0-0.4,0-0.6,0
	c0-0.1,0-0.1,0-0.2c-0.1,0-0.3,0-0.4,0c0-0.1,0-0.1,0-0.2c-2-0.7-4-1.3-6-2c-0.3,0-0.5,0-0.8,0c0-0.1,0-0.1,0-0.2
	c-0.2,0-0.4,0-0.6,0c0-0.1,0-0.1,0-0.2c-0.3,0-0.5,0-0.8,0c0-0.1,0-0.1,0-0.2c-0.3,0-0.5,0-0.8,0c0-0.1,0-0.1,0-0.2
	c-0.3,0-0.5,0-0.8,0c0-0.1,0-0.1,0-0.2c-0.3,0-0.7,0-1,0c0-0.1,0-0.1,0-0.2c-0.7-0.1-1.3-0.1-2-0.2c-1-0.3-2.4-0.5-3.4-0.8
	c-0.5,0-1.1,0-1.6,0c0-0.1,0-0.1,0-0.2c-0.6,0-1.2,0-1.8,0c-1.1-0.3-2.6-0.4-4-0.4c-0.7,0-1.3,0-2,0c-1.4-0.4-3.7-0.2-5.4-0.2
	c-0.4,0.4-1.8,0.2-2.6,0.2c-1.7,0.1-3.5,0.3-5.2,0.4c-1.2,0.3-2.8,0.5-4,0.8c-0.4,0-0.8,0-1.2,0c0,0.1,0,0.1,0,0.2c-0.3,0-0.7,0-1,0
	c0,0.1,0,0.1,0,0.2c-0.3,0-0.5,0-0.8,0c0,0.1,0,0.1,0,0.2c-0.3,0-0.7,0-1,0c0,0.1,0,0.1,0,0.2c-0.8,0.1-1.6,0.3-2.4,0.4
	c0,0.1,0,0.1,0,0.2c-0.3,0-0.5,0-0.8,0c0,0.1,0,0.1,0,0.2c-0.7,0.1-1.3,0.3-2,0.4c0,0.1,0,0.1,0,0.2c-0.2,0-0.4,0-0.6,0
	c0,0.1,0,0.1,0,0.2c-0.2,0-0.4,0-0.6,0c0,0.1,0,0.1,0,0.2c-0.2,0-0.4,0-0.6,0c0,0.1,0,0.1,0,0.2c-0.6,0.1-1.2,0.3-1.8,0.4
	c0,0.1,0,0.1,0,0.2c-0.1,0-0.3,0-0.4,0c0,0.1,0,0.1,0,0.2c-0.2,0-0.4,0-0.6,0c0,0.1,0,0.1,0,0.2c-0.3,0.1-0.7,0.1-1,0.2
	c0,0.1,0,0.1,0,0.2c-0.1,0-0.3,0-0.4,0c0,0.1,0,0.1,0,0.2c-0.2,0-0.4,0-0.6,0c0,0.1,0,0.1,0,0.2c-0.3,0.1-0.5,0.1-0.8,0.2
	c0,0.1,0,0.1,0,0.2c-0.2,0-0.4,0-0.6,0c0,0.1,0,0.1,0,0.2c-0.4,0.1-0.8,0.3-1.2,0.4c0,0.1,0,0.1,0,0.2c-0.1,0-0.3,0-0.4,0
	c0,0.1,0,0.1,0,0.2c-0.1,0-0.3,0-0.4,0c0,0.1,0,0.1,0,0.2c-0.1,0-0.3,0-0.4,0c0,0.1,0,0.1,0,0.2c-0.2,0-0.4,0-0.6,0
	c-0.1,0.1-0.1,0.3-0.2,0.4c-0.1,0-0.3,0-0.4,0c0,0.1,0,0.1,0,0.2c-0.1,0-0.3,0-0.4,0c0,0.1,0,0.1,0,0.2c-0.1,0-0.3,0-0.4,0
	c0,0.1,0,0.1,0,0.2c-0.1,0-0.3,0-0.4,0c0,0.1,0,0.1,0,0.2c-0.1,0-0.3,0-0.4,0l-0.4,0.4c-0.1,0-0.3,0-0.4,0c-0.1,0.1-0.1,0.3-0.2,0.4
	c-0.3,0.1-0.5,0.1-0.8,0.2c-0.1,0.1-0.1,0.3-0.2,0.4c-0.3,0.1-0.5,0.1-0.8,0.2c-0.1,0.1-0.1,0.3-0.2,0.4c-0.3,0.1-0.5,0.1-0.8,0.2
	c-0.1,0.1-0.1,0.3-0.2,0.4c-0.1,0-0.3,0-0.4,0c-0.1,0.1-0.1,0.3-0.2,0.4c-0.1,0-0.3,0-0.4,0c-0.1,0.1-0.1,0.3-0.2,0.4
	c-0.1,0-0.3,0-0.4,0c-0.1,0.1-0.1,0.3-0.2,0.4c-0.1,0-0.3,0-0.4,0c-0.1,0.1-0.1,0.3-0.2,0.4c-0.1,0-0.3,0-0.4,0
	c-0.1,0.2-0.3,0.4-0.4,0.6c-0.1,0-0.3,0-0.4,0c-0.1,0.2-0.3,0.4-0.4,0.6c-0.1,0-0.3,0-0.4,0c-0.1,0.2-0.3,0.4-0.4,0.6
	c-0.1,0-0.3,0-0.4,0c-0.2,0.3-0.4,0.5-0.6,0.8c-0.1,0-0.3,0-0.4,0c-0.3,0.3-0.5,0.7-0.8,1c-0.1,0-0.3,0-0.4,0
	c-0.3,0.4-0.7,0.8-1,1.2c-0.1,0-0.3,0-0.4,0c-1.1,1.1-2.1,2.3-3.2,3.4c-0.7,0.6-1.3,1.2-2,1.8c0,0.1,0,0.3,0,0.4
	c-0.5,0.4-0.9,0.8-1.4,1.2c0,0.1,0,0.3,0,0.4c-0.3,0.2-0.5,0.4-0.8,0.6c0,0.1,0,0.3,0,0.4c-0.3,0.2-0.5,0.4-0.8,0.6
	c0,0.1,0,0.3,0,0.4c-0.2,0.1-0.4,0.3-0.6,0.4c0,0.1,0,0.3,0,0.4c-0.2,0.1-0.4,0.3-0.6,0.4c0,0.1,0,0.3,0,0.4
	c-0.2,0.1-0.4,0.3-0.6,0.4c0,0.1,0,0.3,0,0.4c-0.1,0.1-0.3,0.1-0.4,0.2c-0.1,0.2-0.1,0.4-0.2,0.6c-0.1,0-0.1,0-0.2,0
	c0,0.1,0,0.3,0,0.4c-0.2,0.1-0.4,0.3-0.6,0.4c-0.1,0.3-0.1,0.5-0.2,0.8c-0.1,0.1-0.3,0.1-0.4,0.2c0,0.1,0,0.3,0,0.4
	c-0.1,0.1-0.3,0.1-0.4,0.2c0,0.1,0,0.3,0,0.4c-0.1,0.1-0.3,0.1-0.4,0.2c0,0.1,0,0.3,0,0.4c-0.1,0-0.1,0-0.2,0c0,0.1,0,0.3,0,0.4
	c-0.1,0.1-0.3,0.1-0.4,0.2c-0.1,0.4-0.3,0.8-0.4,1.2c-0.1,0.1-0.3,0.1-0.4,0.2c0,0.1,0,0.3,0,0.4l-0.4,0.4c0,0.1,0,0.3,0,0.4
	c-0.1,0-0.1,0-0.2,0c0,0.1,0,0.3,0,0.4c-0.1,0-0.1,0-0.2,0c0,0.1,0,0.3,0,0.4c-0.1,0.1-0.3,0.1-0.4,0.2c-0.1,0.3-0.1,0.5-0.2,0.8
	c-0.1,0-0.1,0-0.2,0c-0.1,0.4-0.3,0.8-0.4,1.2c-0.1,0-0.1,0-0.2,0c0,0.2,0,0.4,0,0.6c-0.1,0-0.1,0-0.2,0c0,0.1,0,0.3,0,0.4
	c-0.1,0-0.1,0-0.2,0c0,0.1,0,0.3,0,0.4c-0.1,0-0.1,0-0.2,0c-0.1,0.4-0.3,0.8-0.4,1.2c-0.1,0-0.1,0-0.2,0c0,0.2,0,0.4,0,0.6
	c-0.1,0-0.1,0-0.2,0c0,0.1,0,0.3,0,0.4c-0.1,0-0.1,0-0.2,0c0,0.2,0,0.4,0,0.6c-0.1,0-0.1,0-0.2,0c-0.1,0.3-0.1,0.5-0.2,0.8
	c-0.1,0-0.1,0-0.2,0c-0.9,2.8-1.9,5.6-2.8,8.4c-0.1,0.5-0.1,1.1-0.2,1.6c-0.7,1.9-1,4.4-1.6,6.4c0,0.4,0,0.8,0,1.2
	c-0.4,1.2-0.4,3-0.8,4.2c0,0.7,0,1.3,0,2c-0.3,1-0.4,2.5-0.4,3.8c0,0.7,0,1.3,0,2c-0.4,1.5-0.4,6.9,0,8.4c0,1.2,0,2.4,0,3.6
	c0.1,0,0.1,0,0.2,0c0,0.8,0,1.6,0,2.4c0.5,1.8,0.5,4.2,1,6c0.1,1.1,0.3,2.3,0.4,3.4c0.1,0,0.1,0,0.2,0c0,0.3,0,0.5,0,0.8
	c0.1,0,0.1,0,0.2,0c0.1,0.6,0.1,1.2,0.2,1.8c0.1,0,0.1,0,0.2,0c0.1,0.6,0.1,1.2,0.2,1.8c0.1,0,0.1,0,0.2,0c0.1,0.7,0.3,1.5,0.4,2.2
	c0.1,0,0.1,0,0.2,0c0.1,0.7,0.3,1.3,0.4,2c0.1,0,0.1,0,0.2,0c0,0.2,0,0.4,0,0.6c0.1,0,0.1,0,0.2,0c0,0.2,0,0.4,0,0.6
	c0.1,0,0.1,0,0.2,0c0,0.2,0,0.4,0,0.6c0.1,0,0.1,0,0.2,0c0.1,0.4,0.1,0.8,0.2,1.2c0.1,0,0.1,0,0.2,0c0,0.1,0,0.3,0,0.4
	c0.1,0,0.1,0,0.2,0c0.1,0.4,0.1,0.8,0.2,1.2c0.1,0,0.1,0,0.2,0c0,0.1,0,0.3,0,0.4c0.1,0,0.1,0,0.2,0c0,0.2,0,0.4,0,0.6
	c0.1,0,0.1,0,0.2,0c0.1,0.3,0.1,0.7,0.2,1c0.1,0,0.1,0,0.2,0c0,0.1,0,0.3,0,0.4c0.1,0,0.1,0,0.2,0c0,0.2,0,0.4,0,0.6
	c0.1,0,0.1,0,0.2,0c0.1,0.3,0.1,0.5,0.2,0.8c0.1,0,0.1,0,0.2,0c0.1,0.3,0.1,0.7,0.2,1c0.1,0,0.1,0,0.2,0c0.1,0.4,0.3,0.8,0.4,1.2
	c0.1,0,0.1,0,0.2,0c0,0.1,0,0.3,0,0.4c0.1,0,0.1,0,0.2,0c0,0.1,0,0.3,0,0.4c0.1,0,0.1,0,0.2,0c0,0.1,0,0.3,0,0.4c0.1,0,0.1,0,0.2,0
	c0,0.1,0,0.3,0,0.4c0.1,0,0.1,0,0.2,0c0,0.1,0,0.3,0,0.4c0.1,0,0.1,0,0.2,0c0,0.1,0,0.3,0,0.4l0.4,0.4c0,0.1,0,0.3,0,0.4
	c0.1,0.1,0.3,0.1,0.4,0.2c0.1,0.4,0.3,0.8,0.4,1.2c0.1,0.1,0.3,0.1,0.4,0.2c0.1,0.4,0.3,0.8,0.4,1.2c0.1,0.1,0.3,0.1,0.4,0.2
	c0,0.1,0,0.3,0,0.4c0.1,0,0.1,0,0.2,0c0,0.1,0,0.3,0,0.4c0.1,0,0.1,0,0.2,0c0.1,0.2,0.1,0.4,0.2,0.6c0.1,0.1,0.3,0.1,0.4,0.2
	c0,0.1,0,0.3,0,0.4c0.1,0.1,0.3,0.1,0.4,0.2c0,0.1,0,0.3,0,0.4c0.1,0.1,0.3,0.1,0.4,0.2c0,0.1,0,0.3,0,0.4c0.1,0,0.1,0,0.2,0
	c0.1,0.2,0.1,0.4,0.2,0.6c0.1,0.1,0.3,0.1,0.4,0.2c0,0.1,0,0.3,0,0.4c0.2,0.1,0.4,0.3,0.6,0.4c0,0.1,0,0.3,0,0.4
	c0.2,0.1,0.4,0.3,0.6,0.4c0,0.1,0,0.3,0,0.4c0.2,0.1,0.4,0.3,0.6,0.4c0,0.1,0,0.3,0,0.4c0.2,0.1,0.4,0.3,0.6,0.4c0,0.1,0,0.3,0,0.4
	c0.3,0.3,0.7,0.5,1,0.8c0,0.1,0,0.3,0,0.4c0.3,0.3,0.7,0.5,1,0.8c0,0.1,0,0.3,0,0.4c0.7,0.7,1.5,1.3,2.2,2c0,0.1,0,0.3,0,0.4
	c0.5,0.4,0.9,0.8,1.4,1.2c0.1,0.2,0.3,0.4,0.4,0.6c0.1,0,0.3,0,0.4,0c0.7,0.7,1.3,1.5,2,2.2c0.1,0,0.3,0,0.4,0
	c0.3,0.3,0.5,0.7,0.8,1c0.1,0,0.3,0,0.4,0c0.3,0.3,0.5,0.7,0.8,1c0.1,0,0.3,0,0.4,0c0.1,0.2,0.3,0.4,0.4,0.6c0.1,0,0.3,0,0.4,0
	c0.1,0.2,0.3,0.4,0.4,0.6c0.1,0,0.3,0,0.4,0c0.1,0.2,0.3,0.4,0.4,0.6c0.1,0,0.3,0,0.4,0c0.1,0.2,0.3,0.4,0.4,0.6c0.1,0,0.3,0,0.4,0
	c0.1,0.1,0.1,0.3,0.2,0.4c0.1,0,0.3,0,0.4,0c0.1,0.1,0.1,0.3,0.2,0.4c0.2,0.1,0.4,0.1,0.6,0.2c0,0.1,0,0.1,0,0.2c0.1,0,0.3,0,0.4,0
	c0.1,0.1,0.1,0.3,0.2,0.4c0.1,0,0.3,0,0.4,0c0.1,0.1,0.1,0.3,0.2,0.4c0.3,0.1,0.5,0.1,0.8,0.2c0.1,0.1,0.1,0.3,0.2,0.4
	c0.3,0.1,0.5,0.1,0.8,0.2c0.1,0.1,0.1,0.3,0.2,0.4c0.4,0.1,0.8,0.3,1.2,0.4c0.1,0.1,0.1,0.3,0.2,0.4c0.1,0,0.3,0,0.4,0l0.4,0.4
	c0.1,0,0.3,0,0.4,0c0,0.1,0,0.1,0,0.2c0.1,0,0.3,0,0.4,0c0,0.1,0,0.1,0,0.2c0.1,0,0.3,0,0.4,0c0,0.1,0,0.1,0,0.2c0.1,0,0.3,0,0.4,0
	c0,0.1,0,0.1,0,0.2c0.1,0,0.3,0,0.4,0c0,0.1,0,0.1,0,0.2c0.1,0,0.3,0,0.4,0c0,0.1,0,0.1,0,0.2c0.1,0,0.3,0,0.4,0c0,0.1,0,0.1,0,0.2
	c0.4,0.1,0.8,0.3,1.2,0.4c0,0.1,0,0.1,0,0.2c0.2,0,0.4,0,0.6,0c0,0.1,0,0.1,0,0.2c0.1,0,0.3,0,0.4,0c0,0.1,0,0.1,0,0.2
	c0.3,0.1,0.5,0.1,0.8,0.2c0,0.1,0,0.1,0,0.2c0.2,0,0.4,0,0.6,0c0,0.1,0,0.1,0,0.2c0.1,0,0.3,0,0.4,0c0,0.1,0,0.1,0,0.2
	c0.2,0,0.4,0,0.6,0c0,0.1,0,0.1,0,0.2c0.1,0,0.3,0,0.4,0c0,0.1,0,0.1,0,0.2c0.4,0.1,0.8,0.1,1.2,0.2c0,0.1,0,0.1,0,0.2
	c0.1,0,0.3,0,0.4,0c0,0.1,0,0.1,0,0.2c0.4,0.1,0.8,0.1,1.2,0.2c0,0.1,0,0.1,0,0.2c0.2,0,0.4,0,0.6,0c0,0.1,0,0.1,0,0.2
	c0.2,0,0.4,0,0.6,0c0,0.1,0,0.1,0,0.2c0.2,0,0.4,0,0.6,0c0,0.1,0,0.1,0,0.2c0.2,0,0.4,0,0.6,0c0,0.1,0,0.1,0,0.2c0.3,0,0.5,0,0.8,0
	c0,0.1,0,0.1,0,0.2c0.2,0,0.4,0,0.6,0c0,0.1,0,0.1,0,0.2c0.3,0,0.5,0,0.8,0c0,0.1,0,0.1,0,0.2c0.3,0,0.5,0,0.8,0c0,0.1,0,0.1,0,0.2
	c0.3,0,0.5,0,0.8,0c0,0.1,0,0.1,0,0.2c0.3,0,0.5,0,0.8,0c0,0.1,0,0.1,0,0.2c0.3,0,0.5,0,0.8,0c0,0.1,0,0.1,0,0.2
	c0.7,0.1,1.3,0.1,2,0.2c0,0.1,0,0.1,0,0.2c0.3,0,0.7,0,1,0c1.6,0.5,3.8,0.5,5.4,1c0.7,0,1.5,0,2.2,0c0,0.1,0,0.1,0,0.2c1,0,2,0,3,0
	c1.3,0.4,3.5,0.2,5.2,0.2c1.1,0,2.3,0,3.4,0c0-0.1,0-0.1,0-0.2c1,0,2,0,3,0c0-0.1,0-0.1,0-0.2c0.7,0,1.3,0,2,0c0-0.1,0-0.1,0-0.2
	c0.6,0,1.2,0,1.8,0c0-0.1,0-0.1,0-0.2c0.5,0,0.9,0,1.4,0c0-0.1,0-0.1,0-0.2c0.4,0,0.8,0,1.2,0c0-0.1,0-0.1,0-0.2c0.4,0,0.8,0,1.2,0
	c0-0.1,0-0.1,0-0.2c0.3,0,0.7,0,1,0c0-0.1,0-0.1,0-0.2c0.3,0,0.7,0,1,0c0-0.1,0-0.1,0-0.2c0.3,0,0.7,0,1,0c0-0.1,0-0.1,0-0.2
	c0.8-0.1,1.6-0.3,2.4-0.4c0-0.1,0-0.1,0-0.2c0.5-0.1,1.1-0.1,1.6-0.2c0-0.1,0-0.1,0-0.2c0.5-0.1,0.9-0.1,1.4-0.2c0-0.1,0-0.1,0-0.2
	c0.2,0,0.4,0,0.6,0c0-0.1,0-0.1,0-0.2c0.2,0,0.4,0,0.6,0c0-0.1,0-0.1,0-0.2c0.2,0,0.4,0,0.6,0c0-0.1,0-0.1,0-0.2
	c0.6-0.1,1.2-0.3,1.8-0.4c0-0.1,0-0.1,0-0.2c0.1,0,0.3,0,0.4,0c0-0.1,0-0.1,0-0.2c0.4-0.1,0.8-0.1,1.2-0.2c0-0.1,0-0.1,0-0.2
	c0.3-0.1,0.7-0.1,1-0.2c0-0.1,0-0.1,0-0.2c0.1,0,0.3,0,0.4,0c0-0.1,0-0.1,0-0.2c0.2,0,0.4,0,0.6,0c0-0.1,0-0.1,0-0.2
	c0.3-0.1,0.5-0.1,0.8-0.2c0-0.1,0-0.1,0-0.2c0.3-0.1,0.7-0.1,1-0.2c0-0.1,0-0.1,0-0.2c0.4-0.1,0.8-0.3,1.2-0.4c0-0.1,0-0.1,0-0.2
	c0.1,0,0.3,0,0.4,0c0-0.1,0-0.1,0-0.2c0.1,0,0.3,0,0.4,0c0-0.1,0-0.1,0-0.2c0.1,0,0.3,0,0.4,0c0-0.1,0-0.1,0-0.2c0.1,0,0.3,0,0.4,0
	c0-0.1,0-0.1,0-0.2c0.1,0,0.3,0,0.4,0c0-0.1,0-0.1,0-0.2c0.1,0,0.3,0,0.4,0c0-0.1,0-0.1,0-0.2c0.1,0,0.3,0,0.4,0l0.4-0.4
	c0.1,0,0.3,0,0.4,0c0.1-0.1,0.1-0.3,0.2-0.4c0.4-0.1,0.8-0.3,1.2-0.4c0.1-0.1,0.1-0.3,0.2-0.4c0.1,0,0.3,0,0.4,0c0-0.1,0-0.1,0-0.2
	c0.1,0,0.3,0,0.4,0c0.1-0.1,0.1-0.3,0.2-0.4c0.1,0,0.3,0,0.4,0c0.1-0.1,0.1-0.3,0.2-0.4c0.3-0.1,0.5-0.1,0.8-0.2
	c0.1-0.1,0.1-0.3,0.2-0.4c0.1,0,0.3,0,0.4,0c0.1-0.1,0.1-0.3,0.2-0.4c0.1,0,0.3,0,0.4,0c0.1-0.1,0.1-0.3,0.2-0.4c0.1,0,0.3,0,0.4,0
	c0.1-0.1,0.1-0.3,0.2-0.4c0.1,0,0.3,0,0.4,0c0.1-0.1,0.1-0.3,0.2-0.4c0.2-0.1,0.4-0.1,0.6-0.2c0.1-0.2,0.3-0.4,0.4-0.6
	c10.4-7.4,17.7-17.5,23.2-29.8c0-0.2,0-0.4,0-0.6c0.1,0,0.1,0,0.2,0c0-0.1,0-0.3,0-0.4c0.1,0,0.1,0,0.2,0c0-0.2,0-0.4,0-0.6
	c0.1,0,0.1,0,0.2,0c0-0.1,0-0.3,0-0.4c0.1,0,0.1,0,0.2,0c0.1-0.6,0.3-1.2,0.4-1.8c0.1,0,0.1,0,0.2,0c0-0.1,0-0.3,0-0.4
	c0.1,0,0.1,0,0.2,0c0.9-3.1,1.7-6.1,2.6-9.2C822.4,442.8,822.4,442.5,822.4,442.1z M793.4,423.3c0,0.7,0,1.5,0,2.2
	c-0.1,0-0.1,0-0.2,0c0,1.1,0,2.3,0,3.4c-0.1,0-0.1,0-0.2,0c0,0.7,0,1.5,0,2.2c-0.1,0-0.1,0-0.2,0c0,0.6,0,1.2,0,1.8
	c-0.1,0-0.1,0-0.2,0c0,0.5,0,1.1,0,1.6c-0.1,0-0.1,0-0.2,0c0,0.4,0,0.8,0,1.2c-0.1,0-0.1,0-0.2,0c0,0.4,0,0.8,0,1.2
	c-0.1,0-0.1,0-0.2,0c0,0.4,0,0.8,0,1.2c-0.1,0-0.1,0-0.2,0c0,0.3,0,0.7,0,1c-0.1,0-0.1,0-0.2,0c0,0.3,0,0.5,0,0.8
	c-0.1,0-0.1,0-0.2,0c0,0.3,0,0.7,0,1c-0.7,2.5-1.5,4.9-2.2,7.4c-0.1,0-0.1,0-0.2,0c0,0.1,0,0.3,0,0.4c-0.1,0-0.1,0-0.2,0
	c0,0.2,0,0.4,0,0.6c-0.1,0-0.1,0-0.2,0c0,0.1,0,0.3,0,0.4c-0.1,0-0.1,0-0.2,0c0,0.2,0,0.4,0,0.6c-0.1,0-0.1,0-0.2,0
	c0,0.1,0,0.3,0,0.4c-0.1,0-0.1,0-0.2,0c0,0.2,0,0.4,0,0.6c-0.1,0-0.1,0-0.2,0c-0.1,0.4-0.3,0.8-0.4,1.2c-0.1,0-0.1,0-0.2,0
	c0,0.1,0,0.3,0,0.4c-0.1,0-0.1,0-0.2,0c0,0.1,0,0.3,0,0.4c-0.1,0-0.1,0-0.2,0c0,0.1,0,0.3,0,0.4c-0.1,0-0.1,0-0.2,0
	c0,0.1,0,0.3,0,0.4c-0.1,0-0.1,0-0.2,0c0,0.1,0,0.3,0,0.4c-0.1,0-0.1,0-0.2,0c0,0.1,0,0.3,0,0.4c-0.1,0-0.1,0-0.2,0
	c0,0.1,0,0.3,0,0.4l-0.4,0.4c0,0.1,0,0.3,0,0.4c-0.1,0.1-0.3,0.1-0.4,0.2c-0.1,0.3-0.1,0.5-0.2,0.8c-0.1,0.1-0.3,0.1-0.4,0.2
	c0,0.1,0,0.3,0,0.4c-0.1,0.1-0.3,0.1-0.4,0.2c0,0.1,0,0.3,0,0.4c-0.1,0.1-0.3,0.1-0.4,0.2c0,0.1,0,0.3,0,0.4c-0.1,0-0.1,0-0.2,0
	c-0.1,0.2-0.1,0.4-0.2,0.6c-0.1,0.1-0.3,0.1-0.4,0.2c0,0.1,0,0.3,0,0.4c-0.1,0.1-0.3,0.1-0.4,0.2c-0.1,0.2-0.1,0.4-0.2,0.6
	c-0.3,0.2-0.5,0.4-0.8,0.6c-3.9,5.4-9.3,9-15.8,11.8c-0.4,0.1-0.8,0.1-1.2,0.2c0,0.1,0,0.1,0,0.2c-0.2,0-0.4,0-0.6,0
	c0,0.1,0,0.1,0,0.2c-0.2,0-0.4,0-0.6,0c0,0.1,0,0.1,0,0.2c-0.5,0.1-0.9,0.1-1.4,0.2c0,0.1,0,0.1,0,0.2c-0.5,0.1-1.1,0.1-1.6,0.2
	c0,0.1,0,0.1,0,0.2c-0.3,0-0.7,0-1,0c0,0.1,0,0.1,0,0.2c-0.4,0-0.8,0-1.2,0c0,0.1,0,0.1,0,0.2c-0.4,0-0.8,0-1.2,0c0,0.1,0,0.1,0,0.2
	c-0.5,0-1.1,0-1.6,0c0,0.1,0,0.1,0,0.2c-0.9,0-1.7,0-2.6,0c0,0.1,0,0.1,0,0.2c-0.9,0.3-4.4,0-5-0.2c-0.9,0-1.7,0-2.6,0
	c0-0.1,0-0.1,0-0.2c-0.5,0-1.1,0-1.6,0c0-0.1,0-0.1,0-0.2c-0.4,0-0.8,0-1.2,0c0-0.1,0-0.1,0-0.2c-0.4,0-0.8,0-1.2,0
	c0-0.1,0-0.1,0-0.2c-0.3,0-0.7,0-1,0c-2.1-0.7-4.3-1.3-6.4-2c0-0.1,0-0.1,0-0.2c-0.1,0-0.3,0-0.4,0c0-0.1,0-0.1,0-0.2
	c-0.2,0-0.4,0-0.6,0c0-0.1,0-0.1,0-0.2c-0.4-0.1-0.8-0.3-1.2-0.4c0-0.1,0-0.1,0-0.2c-0.1,0-0.3,0-0.4,0c0-0.1,0-0.1,0-0.2
	c-0.1,0-0.3,0-0.4,0c0-0.1,0-0.1,0-0.2c-0.1,0-0.3,0-0.4,0l-0.4-0.4c-0.1,0-0.3,0-0.4,0c-0.1-0.1-0.1-0.3-0.2-0.4
	c-0.3-0.1-0.5-0.1-0.8-0.2c-0.1-0.1-0.1-0.3-0.2-0.4c-0.1,0-0.3,0-0.4,0c0-0.1,0-0.1,0-0.2c-0.1,0-0.3,0-0.4,0
	c-0.1-0.1-0.1-0.3-0.2-0.4c-0.1,0-0.3,0-0.4,0c-0.1-0.2-0.3-0.4-0.4-0.6c-0.1,0-0.3,0-0.4,0c-0.1-0.1-0.1-0.3-0.2-0.4
	c-0.1,0-0.3,0-0.4,0c-0.2-0.3-0.4-0.5-0.6-0.8c-0.1,0-0.3,0-0.4,0c-0.3-0.3-0.5-0.7-0.8-1c-0.1,0-0.3,0-0.4,0
	c-0.5-0.6-1.1-1.2-1.6-1.8c-0.7-0.6-1.3-1.2-2-1.8c0-0.1,0-0.3,0-0.4c-0.3-0.3-0.7-0.5-1-0.8c0-0.1,0-0.3,0-0.4
	c-0.2-0.1-0.4-0.3-0.6-0.4c0-0.1,0-0.3,0-0.4c-0.2-0.1-0.4-0.3-0.6-0.4c0-0.1,0-0.3,0-0.4c-0.2-0.1-0.4-0.3-0.6-0.4
	c0-0.1,0-0.3,0-0.4c-0.1-0.1-0.3-0.1-0.4-0.2c0-0.1,0-0.3,0-0.4c-0.1-0.1-0.3-0.1-0.4-0.2c-0.1-0.3-0.1-0.5-0.2-0.8
	c-0.1-0.1-0.3-0.1-0.4-0.2c-0.1-0.3-0.1-0.5-0.2-0.8c-0.1-0.1-0.3-0.1-0.4-0.2c0-0.1,0-0.3,0-0.4l-0.4-0.4c0-0.1,0-0.3,0-0.4
	c-0.1,0-0.1,0-0.2,0c0-0.1,0-0.3,0-0.4c-0.1-0.1-0.3-0.1-0.4-0.2c-0.2-0.6-0.4-1.2-0.6-1.8c-0.1,0-0.1,0-0.2,0c0-0.1,0-0.3,0-0.4
	c-0.1,0-0.1,0-0.2,0c-0.1-0.3-0.1-0.5-0.2-0.8c-0.1,0-0.1,0-0.2,0c0-0.2,0-0.4,0-0.6c-0.1,0-0.1,0-0.2,0c-0.1-0.3-0.1-0.5-0.2-0.8
	c-0.1,0-0.1,0-0.2,0c0-0.2,0-0.4,0-0.6c-0.1,0-0.1,0-0.2,0c0-0.1,0-0.3,0-0.4c-0.1,0-0.1,0-0.2,0c-0.1-0.4-0.1-0.8-0.2-1.2
	c-0.1,0-0.1,0-0.2,0c0-0.2,0-0.4,0-0.6c-0.1,0-0.1,0-0.2,0c0-0.2,0-0.4,0-0.6c-0.1,0-0.1,0-0.2,0c0-0.2,0-0.4,0-0.6
	c-0.1,0-0.1,0-0.2,0c0-0.2,0-0.4,0-0.6c-0.1,0-0.1,0-0.2,0c0-0.2,0-0.4,0-0.6c-0.1,0-0.1,0-0.2,0c-0.7-2.9-1.3-5.9-2-8.8
	c-0.1-1.5-0.3-3.1-0.4-4.6c-0.3-0.9-0.4-2.5-0.4-3.6c0-0.7,0-1.3,0-2c-0.4-1.6-0.4-6.4,0-8c0-1.1,0-2.3,0-3.4c0.1,0,0.1,0,0.2,0
	c0-0.7,0-1.5,0-2.2c0.1,0,0.1,0,0.2,0c0-0.5,0-1.1,0-1.6c0.1,0,0.1,0,0.2,0c0.2-1.7,0.4-3.5,0.6-5.2c0.1,0,0.1,0,0.2,0
	c0-0.3,0-0.7,0-1c0.1,0,0.1,0,0.2,0c0-0.3,0-0.5,0-0.8c0.1,0,0.1,0,0.2,0c0-0.3,0-0.7,0-1c0.1,0,0.1,0,0.2,0
	c0.1-0.8,0.3-1.6,0.4-2.4c0.1,0,0.1,0,0.2,0c0.1-0.7,0.3-1.3,0.4-2c0.1,0,0.1,0,0.2,0c0-0.2,0-0.4,0-0.6c0.1,0,0.1,0,0.2,0
	c0-0.2,0-0.4,0-0.6c0.1,0,0.1,0,0.2,0c0.1-0.6,0.3-1.2,0.4-1.8c0.1,0,0.1,0,0.2,0c0-0.1,0-0.3,0-0.4c0.1,0,0.1,0,0.2,0
	c0-0.2,0-0.4,0-0.6c0.1,0,0.1,0,0.2,0c0-0.1,0-0.3,0-0.4c0.1,0,0.1,0,0.2,0c0-0.2,0-0.4,0-0.6c0.1,0,0.1,0,0.2,0
	c0.1-0.3,0.1-0.5,0.2-0.8c0.1,0,0.1,0,0.2,0c0-0.2,0-0.4,0-0.6c0.1,0,0.1,0,0.2,0c0.1-0.4,0.3-0.8,0.4-1.2c0.1,0,0.1,0,0.2,0
	c0-0.1,0-0.3,0-0.4c0.1,0,0.1,0,0.2,0c0-0.1,0-0.3,0-0.4c0.1,0,0.1,0,0.2,0c0-0.1,0-0.3,0-0.4c0.1,0,0.1,0,0.2,0c0-0.1,0-0.3,0-0.4
	c0.1,0,0.1,0,0.2,0c0-0.1,0-0.3,0-0.4l0.4-0.4c0-0.1,0-0.3,0-0.4c0.1-0.1,0.3-0.1,0.4-0.2c0.1-0.3,0.1-0.5,0.2-0.8
	c0.1-0.1,0.3-0.1,0.4-0.2c0.1-0.3,0.1-0.5,0.2-0.8c0.1-0.1,0.3-0.1,0.4-0.2c0-0.1,0-0.3,0-0.4c0.1,0,0.1,0,0.2,0
	c0.1-0.2,0.1-0.4,0.2-0.6c0.1-0.1,0.3-0.1,0.4-0.2c0-0.1,0-0.3,0-0.4c0.2-0.1,0.4-0.3,0.6-0.4c0-0.1,0-0.3,0-0.4
	c0.1-0.1,0.3-0.1,0.4-0.2c0.1-0.2,0.1-0.4,0.2-0.6c0.3-0.2,0.5-0.4,0.8-0.6c0-0.1,0-0.3,0-0.4c0.4-0.3,0.8-0.7,1.2-1
	c0-0.1,0-0.3,0-0.4c0.3-0.2,0.5-0.4,0.8-0.6c0.5-0.6,1.1-1.2,1.6-1.8c0.1,0,0.3,0,0.4,0c0.4-0.5,0.8-0.9,1.2-1.4c0.1,0,0.3,0,0.4,0
	c0.1-0.2,0.3-0.4,0.4-0.6c0.1,0,0.3,0,0.4,0c0.1-0.2,0.3-0.4,0.4-0.6c0.1,0,0.3,0,0.4,0c0.1-0.2,0.3-0.4,0.4-0.6c0.1,0,0.3,0,0.4,0
	c0.1-0.1,0.1-0.3,0.2-0.4c0.3-0.1,0.5-0.1,0.8-0.2c0.1-0.1,0.1-0.3,0.2-0.4c0.2-0.1,0.4-0.1,0.6-0.2c0-0.1,0-0.1,0-0.2
	c0.1,0,0.3,0,0.4,0l0.4-0.4c0.1,0,0.3,0,0.4,0c0-0.1,0-0.1,0-0.2c0.1,0,0.3,0,0.4,0c0-0.1,0-0.1,0-0.2c0.1,0,0.3,0,0.4,0
	c0-0.1,0-0.1,0-0.2c0.1,0,0.3,0,0.4,0c0-0.1,0-0.1,0-0.2c0.1,0,0.3,0,0.4,0c0-0.1,0-0.1,0-0.2c0.1,0,0.3,0,0.4,0c0-0.1,0-0.1,0-0.2
	c0.4-0.1,0.8-0.3,1.2-0.4c0-0.1,0-0.1,0-0.2c0.2,0,0.4,0,0.6,0c0-0.1,0-0.1,0-0.2c0.1,0,0.3,0,0.4,0c0-0.1,0-0.1,0-0.2
	c0.4-0.1,0.8-0.1,1.2-0.2c0-0.1,0-0.1,0-0.2c0.2,0,0.4,0,0.6,0c0-0.1,0-0.1,0-0.2c0.2,0,0.4,0,0.6,0c0-0.1,0-0.1,0-0.2
	c0.2,0,0.4,0,0.6,0c0-0.1,0-0.1,0-0.2c0.5-0.1,0.9-0.1,1.4-0.2c0-0.1,0-0.1,0-0.2c0.3,0,0.5,0,0.8,0c0-0.1,0-0.1,0-0.2
	c0.7-0.1,1.3-0.1,2-0.2c0-0.1,0-0.1,0-0.2c0.4,0,0.8,0,1.2,0c0-0.1,0-0.1,0-0.2c0.4,0,0.8,0,1.2,0c0-0.1,0-0.1,0-0.2
	c0.7-0.2,1.5,0.2,2-0.2c2.6,0,6.5-0.4,8.6,0.2c0.7,0,1.3,0,2,0c0,0.1,0,0.1,0,0.2c0.4,0,0.8,0,1.2,0c0,0.1,0,0.1,0,0.2
	c0.4,0,0.8,0,1.2,0c0,0.1,0,0.1,0,0.2c0.3,0,0.7,0,1,0c0,0.1,0,0.1,0,0.2c0.3,0,0.5,0,0.8,0c0,0.1,0,0.1,0,0.2c0.3,0,0.7,0,1,0
	c1.6,0.5,3.2,1.1,4.8,1.6c0,0.1,0,0.1,0,0.2c0.1,0,0.3,0,0.4,0c0,0.1,0,0.1,0,0.2c0.2,0,0.4,0,0.6,0c0,0.1,0,0.1,0,0.2
	c0.4,0.1,0.8,0.3,1.2,0.4c0,0.1,0,0.1,0,0.2c0.1,0,0.3,0,0.4,0c0,0.1,0,0.1,0,0.2c0.1,0,0.3,0,0.4,0c0,0.1,0,0.1,0,0.2
	c0.1,0,0.3,0,0.4,0c0,0.1,0,0.1,0,0.2c0.1,0,0.3,0,0.4,0l0.4,0.4c0.1,0,0.3,0,0.4,0c0.1,0.1,0.1,0.3,0.2,0.4
	c0.3,0.1,0.5,0.1,0.8,0.2c0.1,0.1,0.1,0.3,0.2,0.4c0.3,0.1,0.5,0.1,0.8,0.2c0.1,0.2,0.3,0.4,0.4,0.6c0.1,0,0.3,0,0.4,0
	c0.1,0.1,0.1,0.3,0.2,0.4c0.1,0,0.3,0,0.4,0c0.1,0.2,0.3,0.4,0.4,0.6c0.1,0,0.3,0,0.4,0c0.1,0.2,0.3,0.4,0.4,0.6
	c0.2,0.1,0.4,0.1,0.6,0.2c0.3,0.4,0.7,0.8,1,1.2c0.1,0,0.3,0,0.4,0c0.2,0.3,0.4,0.5,0.6,0.8c0.5,0.5,1.1,0.9,1.6,1.4
	c0,0.1,0,0.3,0,0.4c0.5,0.4,0.9,0.8,1.4,1.2c0,0.1,0,0.3,0,0.4c0.3,0.2,0.5,0.4,0.8,0.6c0.1,0.2,0.1,0.4,0.2,0.6
	c0.1,0.1,0.3,0.1,0.4,0.2c0,0.1,0,0.3,0,0.4c0.2,0.1,0.4,0.3,0.6,0.4c0,0.1,0,0.3,0,0.4c0.1,0.1,0.3,0.1,0.4,0.2
	c0.1,0.2,0.1,0.4,0.2,0.6c0.1,0,0.1,0,0.2,0c0,0.1,0,0.3,0,0.4c0.1,0.1,0.3,0.1,0.4,0.2c0.1,0.3,0.1,0.5,0.2,0.8
	c0.1,0.1,0.3,0.1,0.4,0.2c0.1,0.4,0.3,0.8,0.4,1.2c0.1,0.1,0.3,0.1,0.4,0.2c0,0.1,0,0.3,0,0.4l0.4,0.4c0,0.1,0,0.3,0,0.4
	c0.1,0,0.1,0,0.2,0c0,0.1,0,0.3,0,0.4c0.1,0,0.1,0,0.2,0c0,0.1,0,0.3,0,0.4c0.1,0,0.1,0,0.2,0c0,0.1,0,0.3,0,0.4c0.1,0,0.1,0,0.2,0
	c0.1,0.4,0.3,0.8,0.4,1.2c0.1,0,0.1,0,0.2,0c0,0.2,0,0.4,0,0.6c0.1,0,0.1,0,0.2,0c0.1,0.3,0.1,0.5,0.2,0.8c0.1,0,0.1,0,0.2,0
	c0,0.2,0,0.4,0,0.6c0.1,0,0.1,0,0.2,0c0,0.1,0,0.3,0,0.4c0.1,0,0.1,0,0.2,0c0.1,0.4,0.1,0.8,0.2,1.2c0.1,0,0.1,0,0.2,0
	c0,0.1,0,0.3,0,0.4c0.1,0,0.1,0,0.2,0c0.1,0.4,0.1,0.8,0.2,1.2c0.1,0,0.1,0,0.2,0c0,0.2,0,0.4,0,0.6c0.1,0,0.1,0,0.2,0
	c0,0.2,0,0.4,0,0.6c0.1,0,0.1,0,0.2,0c0.1,0.5,0.1,0.9,0.2,1.4c0.1,0,0.1,0,0.2,0c0.1,0.5,0.1,0.9,0.2,1.4c0.1,0,0.1,0,0.2,0
	c0,0.3,0,0.5,0,0.8c0.1,0,0.1,0,0.2,0c0.2,1.3,0.4,2.5,0.6,3.8c0.4,1.4,0.6,3.5,1,5c0,0.6,0,1.2,0,1.8c0.1,0,0.1,0,0.2,0
	c0,0.7,0,1.5,0,2.2c0.1,0,0.1,0,0.2,0c0,1.2,0,2.4,0,3.6C793.6,419.5,793.4,421.7,793.4,423.3z"/>
</svg>
