<?xml version="1.0" encoding="utf-8"?>
<svg version="1.1" xmlns="http://www.w3.org/2000/svg" xmlns:xlink="http://www.w3.org/1999/xlink" x="0px" y="0px"
	 viewBox="0 0 1024 1024" style="enable-background:new 0 0 1024 1024;" xml:space="preserve">
<g>
	<g>
		<path style="fill-rule:evenodd;clip-rule:evenodd;fill:#232D35;" d="M486.6,166.7L384.9,64.8L181.5,268.5l101.7,101.8L486.6,166.7z M486.6,625L283.2,421.3L181.5,523.1
			l203.4,203.7L486.6,625z M537.4,625l101.7,101.8l203.4-203.7L740.8,421.3L537.4,625z M512,599.5l203.4-203.7L512,192.1
			L308.6,395.8L512,599.5z M842.5,268.5L639.1,64.8L537.4,166.7l203.4,203.7L842.5,268.5z M312.5,830c10.6,0,21.2,0,31.8,0
			c3.1,0,6.3,0,9.4,0c1.5,0,3.5-0.2,4.6,0.2c0,41.9,0,83.7,0,125.6c9.7,0,19.3,0,29,0c0-41.9,0-83.9,0-125.8c15.2,0,30.4,0,45.6,0
			c0-8.2,0-16.4,0-24.6c-40.1,0-80.3,0-120.4,0C312.5,813.6,312.5,821.8,312.5,830z M543.9,908.4c0-0.4,0-0.8,0-1.2
			c-0.1,0-0.1,0-0.2,0c0-0.4,0-0.8,0-1.2c-0.1,0-0.1,0-0.2,0c0-0.3,0-0.5,0-0.8c-0.1,0-0.1,0-0.2,0c-0.1-0.6-0.1-1.2-0.2-1.8
			c-0.1,0-0.1,0-0.2,0c0-0.2,0-0.4,0-0.6c-0.1,0-0.1,0-0.2,0c0-0.2,0-0.4,0-0.6c-0.1,0-0.1,0-0.2,0c0-0.2,0-0.4,0-0.6
			c-0.1,0-0.1,0-0.2,0c0-0.2,0-0.4,0-0.6c-0.1,0-0.1,0-0.2,0c-0.1-0.4-0.1-0.8-0.2-1.2c-0.1,0-0.1,0-0.2,0c-0.1-0.3-0.1-0.5-0.2-0.8
			c-0.1,0-0.1,0-0.2,0c0-0.2,0-0.4,0-0.6c-0.1,0-0.1,0-0.2,0c-0.1-0.4-0.3-0.8-0.4-1.2c-0.1,0-0.1,0-0.2,0c0-0.1,0-0.3,0-0.4
			c-0.1,0-0.1,0-0.2,0c-0.1-0.4-0.3-0.8-0.4-1.2c-0.1-0.1-0.3-0.1-0.4-0.2c-0.1-0.3-0.1-0.5-0.2-0.8c-0.1-0.1-0.3-0.1-0.4-0.2
			c0-0.1,0-0.3,0-0.4c-0.1,0-0.1,0-0.2,0c-0.1-0.2-0.1-0.4-0.2-0.6c-0.1-0.1-0.3-0.1-0.4-0.2c0-0.1,0-0.3,0-0.4
			c-0.2-0.1-0.4-0.3-0.6-0.4c0-0.1,0-0.3,0-0.4c-0.2-0.1-0.4-0.3-0.6-0.4c0-0.1,0-0.3,0-0.4c-0.4-0.3-0.8-0.7-1.2-1
			c0-0.1,0-0.3,0-0.4c-0.2-0.1-0.4-0.3-0.6-0.4c-0.5-0.5-0.9-1.1-1.4-1.6c-0.1,0-0.3,0-0.4,0c-0.3-0.4-0.7-0.8-1-1.2
			c-0.1,0-0.3,0-0.4,0c-0.1-0.2-0.3-0.4-0.4-0.6c-0.1,0-0.3,0-0.4,0c-0.1-0.2-0.3-0.4-0.4-0.6c-0.1,0-0.3,0-0.4,0
			c-0.1-0.1-0.1-0.3-0.2-0.4c-0.2-0.1-0.4-0.1-0.6-0.2c0-0.1,0-0.1,0-0.2c-0.1,0-0.3,0-0.4,0c-0.1-0.1-0.1-0.3-0.2-0.4
			c-0.2-0.1-0.4-0.1-0.6-0.2c0-0.1,0-0.1,0-0.2c-0.4-0.1-0.8-0.3-1.2-0.4c-0.1-0.1-0.1-0.3-0.2-0.4c-0.3-0.1-0.5-0.1-0.8-0.2
			c0-0.1,0-0.1,0-0.2c-0.4-0.1-0.8-0.3-1.2-0.4c0-0.1,0-0.1,0-0.2c-0.2,0-0.4,0-0.6,0c0-0.1,0-0.1,0-0.2c-0.3-0.1-0.5-0.1-0.8-0.2
			c0-0.1,0-0.1,0-0.2c-0.2,0-0.4,0-0.6,0c0-0.1,0-0.1,0-0.2c-0.1,0-0.3,0-0.4,0c0-0.1,0-0.1,0-0.2c-0.2,0-0.4,0-0.6,0
			c0-0.1,0-0.1,0-0.2c-0.1,0-0.3,0-0.4,0c0-0.1,0-0.1,0-0.2c-0.2,0-0.4,0-0.6,0c0-0.1,0-0.1,0-0.2c-0.2,0-0.4,0-0.6,0
			c0-0.1,0-0.1,0-0.2c-0.2,0-0.4,0-0.6,0c0-0.1,0-0.1,0-0.2c-0.3,0-0.5,0-0.8,0c0-0.1,0-0.1,0-0.2c-0.2,0-0.4,0-0.6,0
			c0-0.1,0-0.1,0-0.2c-0.3,0-0.5,0-0.8,0c0-0.1,0-0.1,0-0.2c-0.3,0-0.5,0-0.8,0c-1.1-0.4-2.4-0.8-3.8-0.8c0-0.1,0-0.1,0-0.2
			c0.4-0.1,0.8-0.1,1.2-0.2c0-0.1,0-0.1,0-0.2c0.3,0,0.5,0,0.8,0c0-0.1,0-0.1,0-0.2c0.3,0,0.5,0,0.8,0c2.2-0.8,4.4-1.6,6.6-2.4
			c5.2-2.7,10.3-5.6,13.6-10.2c0.3-0.3,0.7-0.5,1-0.8c0.1-0.2,0.1-0.4,0.2-0.6c0.1-0.1,0.3-0.1,0.4-0.2c0-0.1,0-0.3,0-0.4
			c0.1-0.1,0.3-0.1,0.4-0.2c0.1-0.2,0.1-0.4,0.2-0.6c0.1,0,0.1,0,0.2,0c0-0.1,0-0.3,0-0.4c0.1-0.1,0.3-0.1,0.4-0.2
			c0.1-0.3,0.1-0.5,0.2-0.8c0.1-0.1,0.3-0.1,0.4-0.2c0.1-0.4,0.3-0.8,0.4-1.2c0.1,0,0.1,0,0.2,0c0-0.1,0-0.3,0-0.4
			c0.1,0,0.1,0,0.2,0c0-0.1,0-0.3,0-0.4c0.1,0,0.1,0,0.2,0c0.1-0.4,0.3-0.8,0.4-1.2c0.1,0,0.1,0,0.2,0c0-0.2,0-0.4,0-0.6
			c0.1,0,0.1,0,0.2,0c0-0.1,0-0.3,0-0.4c0.1,0,0.1,0,0.2,0c0.1-0.4,0.1-0.8,0.2-1.2c0.1,0,0.1,0,0.2,0c0-0.2,0-0.4,0-0.6
			c0.1,0,0.1,0,0.2,0c0-0.2,0-0.4,0-0.6c0.1,0,0.1,0,0.2,0c0-0.2,0-0.4,0-0.6c0.1,0,0.1,0,0.2,0c0-0.3,0-0.5,0-0.8
			c0.1,0,0.1,0,0.2,0c0-0.3,0-0.5,0-0.8c0.1,0,0.1,0,0.2,0c0-0.3,0-0.7,0-1c0.1,0,0.1,0,0.2,0c0-0.3,0-0.7,0-1c0.1,0,0.1,0,0.2,0
			c0.1-1.1,0.1-2.3,0.2-3.4c0.1,0,0.1,0,0.2,0c0-2.3,0-4.5,0-6.8c-0.1,0-0.1,0-0.2,0c0-0.7,0-1.3,0-2c-0.1,0-0.1,0-0.2,0
			c0-0.5,0-0.9,0-1.4c-0.1,0-0.1,0-0.2,0c0-0.4,0-0.8,0-1.2c-0.1,0-0.1,0-0.2,0c-0.1-0.6-0.1-1.2-0.2-1.8c-0.1,0-0.1,0-0.2,0
			c0-0.3,0-0.5,0-0.8c-0.1,0-0.1,0-0.2,0c0-0.2,0-0.4,0-0.6c-0.1,0-0.1,0-0.2,0c0-0.2,0-0.4,0-0.6c-0.1,0-0.1,0-0.2,0
			c0-0.3,0-0.5,0-0.8c-0.1,0-0.1,0-0.2,0c0-0.1,0-0.3,0-0.4c-0.1,0-0.1,0-0.2,0c-0.1-0.4-0.1-0.8-0.2-1.2c-0.1,0-0.1,0-0.2,0
			c0-0.1,0-0.3,0-0.4c-0.1,0-0.1,0-0.2,0c0-0.2,0-0.4,0-0.6c-0.1,0-0.1,0-0.2,0c-0.1-0.4-0.3-0.8-0.4-1.2c-0.1,0-0.1,0-0.2,0
			c0-0.1,0-0.3,0-0.4c-0.1,0-0.1,0-0.2,0c0-0.1,0-0.3,0-0.4c-0.1,0-0.1,0-0.2,0c0-0.1,0-0.3,0-0.4c-0.1,0-0.1,0-0.2,0
			c0-0.1,0-0.3,0-0.4l-0.4-0.4c0-0.1,0-0.3,0-0.4c-0.1-0.1-0.3-0.1-0.4-0.2c-0.1-0.3-0.1-0.5-0.2-0.8c-0.1,0-0.1,0-0.2,0
			c-0.1-0.2-0.1-0.4-0.2-0.6c-0.1-0.1-0.3-0.1-0.4-0.2c0-0.1,0-0.3,0-0.4c-0.1-0.1-0.3-0.1-0.4-0.2c0-0.1,0-0.3,0-0.4
			c-0.2-0.1-0.4-0.3-0.6-0.4c0-0.1,0-0.3,0-0.4c-0.3-0.2-0.5-0.4-0.8-0.6c0-0.1,0-0.3,0-0.4c-0.3-0.3-0.7-0.5-1-0.8
			c0-0.1,0-0.3,0-0.4c-0.3-0.3-0.7-0.5-1-0.8c-0.5-0.6-1.1-1.2-1.6-1.8c-0.1,0-0.3,0-0.4,0c-0.3-0.4-0.7-0.8-1-1.2
			c-0.1,0-0.3,0-0.4,0c-0.2-0.3-0.4-0.5-0.6-0.8c-0.2-0.1-0.4-0.1-0.6-0.2c-0.1-0.1-0.1-0.3-0.2-0.4c-0.1,0-0.3,0-0.4,0
			c-0.1-0.1-0.1-0.3-0.2-0.4c-0.2-0.1-0.4-0.1-0.6-0.2c0-0.1,0-0.1,0-0.2c-0.1,0-0.3,0-0.4,0c-0.1-0.1-0.1-0.3-0.2-0.4
			c-0.1,0-0.3,0-0.4,0c-0.1-0.1-0.1-0.3-0.2-0.4c-0.1,0-0.3,0-0.4,0c-0.1-0.1-0.1-0.3-0.2-0.4c-0.3-0.1-0.5-0.1-0.8-0.2
			c-0.1-0.1-0.1-0.3-0.2-0.4c-0.1,0-0.3,0-0.4,0l-0.4-0.4c-0.1,0-0.3,0-0.4,0c0-0.1,0-0.1,0-0.2c-0.1,0-0.3,0-0.4,0
			c-0.1-0.1-0.1-0.3-0.2-0.4c-0.3-0.1-0.5-0.1-0.8-0.2c0-0.1,0-0.1,0-0.2c-0.3-0.1-0.5-0.1-0.8-0.2c0-0.1,0-0.1,0-0.2
			c-0.2,0-0.4,0-0.6,0c0-0.1,0-0.1,0-0.2c-0.3-0.1-0.5-0.1-0.8-0.2c0-0.1,0-0.1,0-0.2c-0.1,0-0.3,0-0.4,0c0-0.1,0-0.1,0-0.2
			c-0.2,0-0.4,0-0.6,0c0-0.1,0-0.1,0-0.2c-0.3-0.1-0.5-0.1-0.8-0.2c0-0.1,0-0.1,0-0.2c-0.2,0-0.4,0-0.6,0c0-0.1,0-0.1,0-0.2
			c-0.1,0-0.3,0-0.4,0c0-0.1,0-0.1,0-0.2c-0.6-0.1-1.2-0.3-1.8-0.4c0-0.1,0-0.1,0-0.2c-0.2,0-0.4,0-0.6,0c0-0.1,0-0.1,0-0.2
			c-0.2,0-0.4,0-0.6,0c0-0.1,0-0.1,0-0.2c-0.2,0-0.4,0-0.6,0c0-0.1,0-0.1,0-0.2c-0.2,0-0.4,0-0.6,0c0-0.1,0-0.1,0-0.2
			c-0.2,0-0.4,0-0.6,0c0-0.1,0-0.1,0-0.2c-0.3,0-0.5,0-0.8,0c0-0.1,0-0.1,0-0.2c-0.3,0-0.5,0-0.8,0c0-0.1,0-0.1,0-0.2
			c-0.2,0-0.4,0-0.6,0c0-0.1,0-0.1,0-0.2c-0.3,0-0.5,0-0.8,0c0-0.1,0-0.1,0-0.2c-0.3,0-0.7,0-1,0c-1.5-0.5-3.5-0.7-5-1.2
			c-0.9-0.1-1.7-0.1-2.6-0.2c0-0.1,0-0.1,0-0.2c-0.5,0-1.1,0-1.6,0c0-0.1,0-0.1,0-0.2c-0.6,0-1.2,0-1.8,0c0-0.1,0-0.1,0-0.2
			c-1.9-0.1-3.7-0.1-5.6-0.2c-1.2-0.3-3.1-0.2-4.6-0.2c-2.6,0-6.9-0.4-9,0.2c-3.1,0.1-6.3,0.1-9.4,0.2c0,0.1,0,0.1,0,0.2
			c-0.7,0-1.5,0-2.2,0c-1.5,0.1-2.9,0.1-4.4,0.2c0,0.1,0,0.1,0,0.2c-0.9,0-1.9,0-2.8,0c0,0.1,0,0.1,0,0.2c-0.8,0-1.6,0-2.4,0
			c0,0.1,0,0.1,0,0.2c-0.8,0-1.6,0-2.4,0c0,0.1,0,0.1,0,0.2c-0.7,0-1.5,0-2.2,0c0,0.1,0,0.1,0,0.2c-0.7,0-1.3,0-2,0
			c0,0.1,0,0.1,0,0.2c-0.6,0-1.2,0-1.8,0c0,0.1,0,0.1,0,0.2c-0.8,0.1-1.6,0.1-2.4,0.2c0,50.4,0,100.8,0,151.2c4,0.6,8,1.2,12,1.8
			c0.7,0,1.3,0,2,0c0,0.1,0,0.1,0,0.2c0.8,0,1.6,0,2.4,0c0,0.1,0,0.1,0,0.2c0.7,0,1.5,0,2.2,0c0.4,0,0.4,0.2,0.4,0.2
			c0.9,0,1.9,0,2.8,0c0,0.1,0,0.1,0,0.2c1.3,0,2.5,0,3.8,0c0,0.1,0,0.1,0,0.2c1.7,0,3.3,0,5,0c1,0.3,2.8,0.2,4.2,0.2
			c2.4,0,5.7,0.4,7.8-0.2c1.9-0.1,3.7-0.1,5.6-0.2c0-0.1,0-0.1,0-0.2c0.6,0,1.2,0,1.8,0c0-0.1,0-0.1,0-0.2c0.5,0,1.1,0,1.6,0
			c1.8-0.5,4.1-0.7,5.8-1.2c0.7-0.1,1.3-0.1,2-0.2c2.9-0.9,5.9-1.7,8.8-2.6c0-0.1,0-0.1,0-0.2c0.1,0,0.3,0,0.4,0c0-0.1,0-0.1,0-0.2
			c0.4-0.1,0.8-0.1,1.2-0.2c0-0.1,0-0.1,0-0.2c0.1,0,0.3,0,0.4,0c0-0.1,0-0.1,0-0.2c0.2,0,0.4,0,0.6,0c0-0.1,0-0.1,0-0.2
			c0.3-0.1,0.5-0.1,0.8-0.2c0-0.1,0-0.1,0-0.2c0.3-0.1,0.7-0.1,1-0.2c0-0.1,0-0.1,0-0.2c0.4-0.1,0.8-0.3,1.2-0.4c0-0.1,0-0.1,0-0.2
			c0.1,0,0.3,0,0.4,0c0-0.1,0-0.1,0-0.2c0.1,0,0.3,0,0.4,0c0-0.1,0-0.1,0-0.2c0.1,0,0.3,0,0.4,0c0-0.1,0-0.1,0-0.2
			c0.1,0,0.3,0,0.4,0c0-0.1,0-0.1,0-0.2c0.1,0,0.3,0,0.4,0l0.4-0.4c0.1,0,0.3,0,0.4,0c0.1-0.1,0.1-0.3,0.2-0.4
			c0.4-0.1,0.8-0.3,1.2-0.4c0-0.1,0-0.1,0-0.2c0.2-0.1,0.4-0.1,0.6-0.2c0.1-0.1,0.1-0.3,0.2-0.4c0.3-0.1,0.5-0.1,0.8-0.2
			c0-0.1,0-0.1,0-0.2c0.2-0.1,0.4-0.1,0.6-0.2c0.1-0.1,0.1-0.3,0.2-0.4c0.1,0,0.3,0,0.4,0c0.1-0.2,0.3-0.4,0.4-0.6
			c0.1,0,0.3,0,0.4,0c0.1-0.1,0.1-0.3,0.2-0.4c0.1,0,0.3,0,0.4,0c0.1-0.2,0.3-0.4,0.4-0.6c0.1,0,0.3,0,0.4,0
			c0.2-0.3,0.4-0.5,0.6-0.8c0.1,0,0.3,0,0.4,0c0.4-0.5,0.8-0.9,1.2-1.4c0.1,0,0.3,0,0.4,0c0.5-0.6,1.1-1.2,1.6-1.8
			c0.3-0.3,0.7-0.5,1-0.8c0-0.1,0-0.3,0-0.4c0.4-0.3,0.8-0.7,1.2-1c0.1-0.2,0.1-0.4,0.2-0.6c0.2-0.1,0.4-0.3,0.6-0.4
			c0-0.1,0-0.3,0-0.4c0.2-0.1,0.4-0.3,0.6-0.4c0.1-0.2,0.1-0.4,0.2-0.6c0.1-0.1,0.3-0.1,0.4-0.2c0-0.1,0-0.3,0-0.4
			c0.1-0.1,0.3-0.1,0.4-0.2c0.1-0.3,0.1-0.5,0.2-0.8c0.1-0.1,0.3-0.1,0.4-0.2c0.1-0.2,0.1-0.4,0.2-0.6c0.1,0,0.1,0,0.2,0
			c0.1-0.4,0.3-0.8,0.4-1.2c0.1-0.1,0.3-0.1,0.4-0.2c0.1-0.3,0.1-0.5,0.2-0.8c0.1,0,0.1,0,0.2,0c0.1-0.3,0.1-0.5,0.2-0.8
			c0.1,0,0.1,0,0.2,0c0-0.2,0-0.4,0-0.6c0.1,0,0.1,0,0.2,0c0-0.1,0-0.3,0-0.4c0.1,0,0.1,0,0.2,0c0.1-0.3,0.1-0.5,0.2-0.8
			c0.1,0,0.1,0,0.2,0c0.6-1.9,1.2-3.7,1.8-5.6c0.1-0.7,0.1-1.3,0.2-2c0.6-1.8,0.8-4.1,0.8-6.4c-0.1-2.7-0.1-5.3-0.2-8
			C544,908.4,544,908.4,543.9,908.4z M475.3,827.6c0.9-0.3,2.2-0.4,3.4-0.4c0.5,0,1.1,0,1.6,0c0.9-0.3,2.5-0.2,3.8-0.2
			c2.1,0,4.9-0.3,6.6,0.2c0.7,0,1.3,0,2,0c0,0.1,0,0.1,0,0.2c0.5,0,0.9,0,1.4,0c0,0.1,0,0.1,0,0.2c0.7,0.1,1.3,0.1,2,0.2
			c0,0.1,0,0.1,0,0.2c0.3,0,0.5,0,0.8,0c0,0.1,0,0.1,0,0.2c0.3,0,0.5,0,0.8,0c0,0.1,0,0.1,0,0.2c0.2,0,0.4,0,0.6,0
			c0,0.1,0,0.1,0,0.2c0.2,0,0.4,0,0.6,0c0,0.1,0,0.1,0,0.2c0.2,0,0.4,0,0.6,0c3.8,1.6,7,3.7,9.2,6.8c0.2,0.1,0.4,0.3,0.6,0.4
			c0,0.1,0,0.3,0,0.4c0.1,0.1,0.3,0.1,0.4,0.2c0.1,0.3,0.1,0.5,0.2,0.8c0.1,0.1,0.3,0.1,0.4,0.2c0.1,0.3,0.1,0.5,0.2,0.8
			c0.1,0,0.1,0,0.2,0c0.1,0.4,0.3,0.8,0.4,1.2c0.1,0,0.1,0,0.2,0c0,0.2,0,0.4,0,0.6c0.1,0,0.1,0,0.2,0c0,0.2,0,0.4,0,0.6
			c0.1,0,0.1,0,0.2,0c0,0.2,0,0.4,0,0.6c0.1,0,0.1,0,0.2,0c0,0.2,0,0.4,0,0.6c0.1,0,0.1,0,0.2,0c0.1,0.5,0.1,1.1,0.2,1.6
			c0.1,0,0.1,0,0.2,0c0,0.5,0,0.9,0,1.4c0.6,2.2,0.2,6.1-0.4,7.8c0,0.3,0,0.5,0,0.8c-2.8,8-7.5,11.4-15.4,14.2c-0.3,0-0.5,0-0.8,0
			c0,0.1,0,0.1,0,0.2c-0.3,0-0.5,0-0.8,0c0,0.1,0,0.1,0,0.2c-0.3,0-0.5,0-0.8,0c0,0.1,0,0.1,0,0.2c-0.3,0-0.7,0-1,0
			c0,0.1,0,0.1,0,0.2c-0.3,0-0.7,0-1,0c0,0.1,0,0.1,0,0.2c-0.4,0-0.8,0-1.2,0c0,0.1,0,0.1,0,0.2c-0.5,0-1.1,0-1.6,0
			c0,0.1,0,0.1,0,0.2c-0.7,0-1.3,0-2,0c0,0.1,0,0.1,0,0.2c-4.1,0-8.1,0-12.2,0C475.3,855.5,475.3,841.6,475.3,827.6z M513.7,915.8
			c-0.1,0-0.1,0-0.2,0c0,0.6,0,1.2,0,1.8c-0.1,0-0.1,0-0.2,0c0,0.3,0,0.7,0,1c-0.1,0-0.1,0-0.2,0c0,0.3,0,0.5,0,0.8
			c-0.1,0-0.1,0-0.2,0c-0.1,0.5-0.1,0.9-0.2,1.4c-0.1,0-0.1,0-0.2,0c0,0.1,0,0.3,0,0.4c-0.1,0-0.1,0-0.2,0c0,0.2,0,0.4,0,0.6
			c-0.1,0-0.1,0-0.2,0c-0.1,0.4-0.3,0.8-0.4,1.2c-0.1,0-0.1,0-0.2,0c-0.1,0.3-0.1,0.5-0.2,0.8c-0.1,0.1-0.3,0.1-0.4,0.2
			c0,0.1,0,0.3,0,0.4c-0.1,0.1-0.3,0.1-0.4,0.2c0,0.1,0,0.3,0,0.4c-0.3,0.2-0.5,0.4-0.8,0.6c-2.6,3.7-6.9,5.7-11.6,7.4
			c-2,0.4-4,0.8-6,1.2c-0.8,0-1.6,0-2.4,0c-1.5,0.4-7.1,0.4-8.6,0c-0.6,0-1.2,0-1.8,0c-1.3,0-3,0-4-0.4c0-9.5,0-18.9,0-28.4
			c0-2.8,0-5.6,0-8.4c0-1.3-0.2-3,0.2-4c6.6,0,14.8-0.6,20,1c0.9,0.1,1.7,0.3,2.6,0.4c0,0.1,0,0.1,0,0.2c0.2,0,0.4,0,0.6,0
			c0,0.1,0,0.1,0,0.2c0.2,0,0.4,0,0.6,0c0,0.1,0,0.1,0,0.2c0.2,0,0.4,0,0.6,0c0,0.1,0,0.1,0,0.2c0.4,0.1,0.8,0.1,1.2,0.2
			c0,0.1,0,0.1,0,0.2c0.3,0.1,0.5,0.1,0.8,0.2c0,0.1,0,0.1,0,0.2c0.6,0.2,1.2,0.4,1.8,0.6c0.1,0.1,0.1,0.3,0.2,0.4
			c0.3,0.1,0.5,0.1,0.8,0.2c0,0.1,0,0.1,0,0.2c0.2,0.1,0.4,0.1,0.6,0.2c0.1,0.1,0.1,0.3,0.2,0.4c0.1,0,0.3,0,0.4,0
			c0.1,0.2,0.3,0.4,0.4,0.6c0.1,0,0.3,0,0.4,0c0.3,0.3,0.5,0.7,0.8,1c0.1,0,0.3,0,0.4,0c0.1,0.2,0.3,0.4,0.4,0.6c0.1,0,0.1,0,0.2,0
			c0,0.1,0,0.3,0,0.4c0.4,0.3,0.8,0.7,1.2,1c0.1,0.2,0.1,0.4,0.2,0.6c0.1,0.1,0.3,0.1,0.4,0.2c0,0.1,0,0.3,0,0.4
			c0.1,0.1,0.3,0.1,0.4,0.2c0.1,0.3,0.1,0.5,0.2,0.8c0.1,0,0.1,0,0.2,0c0,0.1,0,0.3,0,0.4c0.1,0,0.1,0,0.2,0c0,0.1,0,0.3,0,0.4
			c0.1,0,0.1,0,0.2,0c0.1,0.4,0.3,0.8,0.4,1.2c0.1,0,0.1,0,0.2,0c0,0.2,0,0.4,0,0.6c0.1,0,0.1,0,0.2,0c0,0.2,0,0.4,0,0.6
			c0.1,0,0.1,0,0.2,0c0,0.2,0,0.4,0,0.6c0.1,0,0.1,0,0.2,0c0,0.2,0,0.4,0,0.6c0.1,0,0.1,0,0.2,0c0,0.3,0,0.5,0,0.8
			c0.1,0,0.1,0,0.2,0c0,0.3,0,0.7,0,1c0.1,0,0.1,0,0.2,0c0,0.4,0,0.8,0,1.2c0.1,0,0.1,0,0.2,0c0,0.8,0,1.6,0,2.4c0.1,0,0.1,0,0.2,0
			C513.7,914.4,513.7,915.1,513.7,915.8z M238.5,804.6c-0.2,0.6-0.4,1.2-0.6,1.8c-0.1,0-0.1,0-0.2,0c0,0.2,0,0.4,0,0.6
			c-0.1,0-0.1,0-0.2,0c0,0.2,0,0.4,0,0.6c-0.1,0-0.1,0-0.2,0c0,0.2,0,0.4,0,0.6c-0.1,0-0.1,0-0.2,0c0,0.2,0,0.4,0,0.6
			c-0.1,0-0.1,0-0.2,0c0,0.2,0,0.4,0,0.6c-0.1,0-0.1,0-0.2,0c0,0.2,0,0.4,0,0.6c-0.1,0-0.1,0-0.2,0c-0.1,0.4-0.1,0.8-0.2,1.2
			c-0.1,0-0.1,0-0.2,0c-0.1,0.4-0.1,0.8-0.2,1.2c-0.1,0-0.1,0-0.2,0c-0.1,0.6-0.3,1.2-0.4,1.8c-1.9,4.7-3.3,9.9-5.2,14.6
			c-0.1,0.6-0.3,1.2-0.4,1.8c-0.1,0-0.1,0-0.2,0c-0.1,0.4-0.1,0.8-0.2,1.2c-0.1,0-0.1,0-0.2,0c0,0.2,0,0.4,0,0.6c-0.1,0-0.1,0-0.2,0
			c0,0.2,0,0.4,0,0.6c-0.1,0-0.1,0-0.2,0c0,0.2,0,0.4,0,0.6c-0.1,0-0.1,0-0.2,0c0,0.2,0,0.4,0,0.6c-0.1,0-0.1,0-0.2,0
			c0,0.2,0,0.4,0,0.6c-0.1,0-0.1,0-0.2,0c-0.1,0.4-0.1,0.8-0.2,1.2c-0.1,0-0.1,0-0.2,0c0,0.1,0,0.3,0,0.4c-0.1,0-0.1,0-0.2,0
			c0,0.2,0,0.4,0,0.6c-0.1,0-0.1,0-0.2,0c0,0.2,0,0.4,0,0.6c-0.1,0-0.1,0-0.2,0c0,0.2,0,0.4,0,0.6c-0.1,0-0.1,0-0.2,0
			c0,0.2,0,0.4,0,0.6c-0.1,0-0.1,0-0.2,0c0,0.2,0,0.4,0,0.6c-0.1,0-0.1,0-0.2,0c0,0.2,0,0.4,0,0.6c-0.1,0-0.1,0-0.2,0
			c0,0.2,0,0.4,0,0.6c-0.1,0-0.1,0-0.2,0c-0.1,0.4-0.1,0.8-0.2,1.2c-0.1,0-0.1,0-0.2,0c0,0.2,0,0.4,0,0.6c-0.1,0-0.1,0-0.2,0
			c0,0.2,0,0.4,0,0.6c-0.1,0-0.1,0-0.2,0c0,0.2,0,0.4,0,0.6c-0.1,0-0.1,0-0.2,0c0,0.2,0,0.4,0,0.6c-0.1,0-0.1,0-0.2,0
			c0,0.2,0,0.4,0,0.6c-0.1,0-0.1,0-0.2,0c0,0.2,0,0.4,0,0.6c-0.1,0-0.1,0-0.2,0c-0.1,0.4-0.1,0.8-0.2,1.2c-0.1,0-0.1,0-0.2,0
			c0,0.1,0,0.3,0,0.4c-0.1,0-0.1,0-0.2,0c-0.1,0.6-0.3,1.2-0.4,1.8c-0.1,0-0.1,0-0.2,0c-0.1,0.4-0.1,0.8-0.2,1.2c-0.1,0-0.1,0-0.2,0
			c0,0.2,0,0.4,0,0.6c-0.1,0-0.1,0-0.2,0c0,0.2,0,0.4,0,0.6c-0.1,0-0.1,0-0.2,0c0,0.2,0,0.4,0,0.6c-0.1,0-0.1,0-0.2,0
			c0,0.2,0,0.4,0,0.6c-0.1,0-0.1,0-0.2,0c0,0.2,0,0.4,0,0.6c-0.1,0-0.1,0-0.2,0c-0.1,0.6-0.3,1.2-0.4,1.8c-2,5.1-3.6,10.7-5.6,15.8
			c0,0.2,0,0.4,0,0.6c-0.1,0-0.1,0-0.2,0c0,0.2,0,0.4,0,0.6c-0.1,0-0.1,0-0.2,0c0,0.2,0,0.4,0,0.6c-0.1,0-0.1,0-0.2,0
			c0,0.2,0,0.4,0,0.6c-0.1,0-0.1,0-0.2,0c0,0.2,0,0.4,0,0.6c-1.1,2.6-1.9,5.6-3,8.2c-0.3,1.2-0.7,2.4-1,3.6c-1.2,3-2.2,6.4-3.4,9.4
			c-0.3,1.2-0.7,2.4-1,3.6c-0.1,0-0.1,0-0.2,0c0,0.1,0,0.3,0,0.4c-0.1,0-0.1,0-0.2,0c-0.4,1.4-0.8,2.8-1.2,4.2
			c-1.5,3.8-2.7,8-4.2,11.8c-0.4,1.4-0.8,2.8-1.2,4.2c-0.1,0-0.1,0-0.2,0c0,0.1,0,0.3,0,0.4c-0.1,0-0.1,0-0.2,0c0,0.2,0,0.4,0,0.6
			c-0.1,0-0.1,0-0.2,0c0,0.2,0,0.4,0,0.6c-0.1,0-0.1,0-0.2,0c0,0.2,0,0.4,0,0.6c-0.1,0-0.1,0-0.2,0c0,0.2,0,0.4,0,0.6
			c-0.1,0-0.1,0-0.2,0c0,0.2,0,0.4,0,0.6c-0.1,0-0.1,0-0.2,0c0,0.2,0,0.4,0,0.6c-0.1,0-0.1,0-0.2,0c-0.1,0.4-0.1,0.8-0.2,1.2
			c-1.4,3.6-2.6,7.6-4,11.2c-0.4,1.4-0.8,2.8-1.2,4.2c-0.1,0-0.1,0-0.2,0c0,0.1,0,0.3,0,0.4c-0.1,0-0.1,0-0.2,0
			c-0.3,1.2-0.7,2.4-1,3.6c-0.1,0-0.1,0-0.2,0c-0.1,0.4-0.1,0.8-0.2,1.2c-0.1,0-0.1,0-0.2,0c0,0.2,0,0.4,0,0.6c-0.1,0-0.1,0-0.2,0
			c0,0.2,0,0.4,0,0.6c-0.1,0-0.1,0-0.2,0c0,0.2,0,0.4,0,0.6c-0.1,0-0.1,0-0.2,0c0,0.2,0,0.4,0,0.6c-0.1,0-0.1,0-0.2,0
			c0,0.2,0,0.4,0,0.6c-0.1,0-0.1,0-0.2,0c-0.1,0.6-0.3,1.2-0.4,1.8c-0.1,0-0.1,0-0.2,0c0,0.1,0,0.3,0,0.4c-0.1,0-0.1,0-0.2,0
			c-0.1,0.6-0.3,1.2-0.4,1.8c-0.1,0-0.1,0-0.2,0c-0.4,1.4-0.8,2.8-1.2,4.2c10.4,0,20.8,0,31.2,0c4.5-15.1,9.1-30.3,13.6-45.4
			c15.7,0,31.3,0,47,0c4.5,15.1,9.1,30.3,13.6,45.4c10.7,0,21.5,0,32.2,0c-17.1-50.5-34.3-100.9-51.4-151.4
			C261.7,804.6,250.1,804.6,238.5,804.6z M239.5,886c0.1-1,0.4-1.3,0.6-2c0-0.3,0-0.5,0-0.8c0.1,0,0.1,0,0.2,0
			c0.1-0.7,0.3-1.3,0.4-2c0.1,0,0.1,0,0.2,0c0-0.2,0-0.4,0-0.6c0.1,0,0.1,0,0.2,0c0-0.2,0-0.4,0-0.6c0.1,0,0.1,0,0.2,0
			c0-0.3,0-0.5,0-0.8c0.1,0,0.1,0,0.2,0c0-0.2,0-0.4,0-0.6c0.1,0,0.1,0,0.2,0c0-0.2,0-0.4,0-0.6c0.1,0,0.1,0,0.2,0
			c0-0.3,0-0.5,0-0.8c0.1,0,0.1,0,0.2,0c0.1-0.7,0.3-1.3,0.4-2c0.1,0,0.1,0,0.2,0c0.1-0.7,0.3-1.3,0.4-2c0.1,0,0.1,0,0.2,0
			c0-0.2,0-0.4,0-0.6c0.1,0,0.1,0,0.2,0c0-0.2,0-0.4,0-0.6c0.1,0,0.1,0,0.2,0c0-0.3,0-0.5,0-0.8c0.1,0,0.1,0,0.2,0
			c0.1-0.7,0.3-1.3,0.4-2c0.1,0,0.1,0,0.2,0c0-0.2,0-0.4,0-0.6c0.1,0,0.1,0,0.2,0c0-0.2,0-0.4,0-0.6c0.1,0,0.1,0,0.2,0
			c0-0.3,0-0.5,0-0.8c2.2-6.2,3.8-13,6-19.2c0-0.3,0-0.5,0-0.8c0.1,0,0.1,0,0.2,0c0-0.2,0-0.4,0-0.6c0.1,0,0.1,0,0.2,0
			c0-0.2,0-0.4,0-0.6c0.1,0,0.1,0,0.2,0c0-0.3,0-0.5,0-0.8c0.1,0,0.1,0,0.2,0c0.1-0.7,0.3-1.3,0.4-2c0.1,0,0.1,0,0.2,0
			c0.1-0.7,0.3-1.3,0.4-2c0.1,0,0.1,0,0.2,0c0.1-0.7,0.3-1.3,0.4-2c0.1,0,0.1,0,0.2,0c0-0.2,0-0.4,0-0.6c0.1,0,0.1,0,0.2,0
			c0-0.2,0-0.4,0-0.6c0.1,0,0.1,0,0.2,0c0-0.3,0-0.5,0-0.8c0.1,0,0.1,0,0.2,0c0-0.2,0-0.4,0-0.6c0.1,0,0.1,0,0.2,0
			c0-0.2,0-0.4,0-0.6c0.1,0,0.1,0,0.2,0c0-0.3,0-0.5,0-0.8c0.1,0,0.1,0,0.2,0c0.1-0.7,0.3-1.3,0.4-2c0.1,0,0.1,0,0.2,0
			c0.1-0.4,0-0.2,0.2-0.4c0.2,0.8,0.4,1.6,0.6,2.4c0.1,0,0.1,0,0.2,0c0,0.3,0,0.5,0,0.8c0.1,0,0.1,0,0.2,0c0.1,0.7,0.3,1.3,0.4,2
			c0.1,0,0.1,0,0.2,0c0.1,0.7,0.3,1.3,0.4,2c0.1,0,0.1,0,0.2,0c0,0.2,0,0.4,0,0.6c0.1,0,0.1,0,0.2,0c0,0.2,0,0.4,0,0.6
			c0.1,0,0.1,0,0.2,0c0,0.3,0,0.5,0,0.8c0.1,0,0.1,0,0.2,0c0,0.2,0,0.4,0,0.6c0.1,0,0.1,0,0.2,0c0,0.2,0,0.4,0,0.6
			c0.1,0,0.1,0,0.2,0c0,0.3,0,0.5,0,0.8c0.1,0,0.1,0,0.2,0c0.1,0.7,0.3,1.3,0.4,2c0.1,0,0.1,0,0.2,0c0.1,0.7,0.3,1.3,0.4,2
			c0.1,0,0.1,0,0.2,0c0.1,0.7,0.3,1.3,0.4,2c0.1,0,0.1,0,0.2,0c0,0.2,0,0.4,0,0.6c0.1,0,0.1,0,0.2,0c0,0.2,0,0.4,0,0.6
			c0.1,0,0.1,0,0.2,0c0,0.3,0,0.5,0,0.8c0.1,0,0.1,0,0.2,0c0.1,0.7,0.3,1.3,0.4,2c0.1,0,0.1,0,0.2,0c0,0.2,0,0.4,0,0.6
			c0.1,0,0.1,0,0.2,0c0,0.2,0,0.4,0,0.6c0.1,0,0.1,0,0.2,0c0,0.3,0,0.5,0,0.8c1.5,4.2,2.7,9,4.2,13.2c0,0.3,0,0.5,0,0.8
			c0.1,0,0.1,0,0.2,0c0,0.2,0,0.4,0,0.6c0.1,0,0.1,0,0.2,0c0,0.2,0,0.4,0,0.6c0.1,0,0.1,0,0.2,0c0,0.3,0,0.5,0,0.8
			c0.1,0,0.1,0,0.2,0c0.1,0.7,0.3,1.3,0.4,2c0.1,0,0.1,0,0.2,0c0.1,0.7,0.3,1.3,0.4,2c0.1,0,0.1,0,0.2,0c0,0.2,0,0.4,0,0.6
			c0.1,0,0.1,0,0.2,0c0,0.2,0,0.4,0,0.6c0.1,0,0.1,0,0.2,0c0,0.3,0,0.5,0,0.8c0.1,0,0.1,0,0.2,0c0,0.2,0,0.4,0,0.6
			c0.1,0,0.1,0,0.2,0c0,0.2,0,0.4,0,0.6c0.1,0,0.1,0,0.2,0c0,0.3,0,0.5,0,0.8c0.1,0,0.1,0,0.2,0c0.2,0.9,0.4,1.7,0.6,2.6
			c0.1,0,0.1,0,0.2,0c0,0.2,0,0.4,0,0.6c0.1,0,0.1,0,0.2,0c0,0.2,0,0.4,0,0.6c0.1,0,0.1,0,0.2,0c0,0.3,0,0.5,0,0.8
			c0.1,0,0.1,0,0.2,0c0.1,0.5,0.1,0.9,0.2,1.4C260.7,886,250.1,886,239.5,886z M803.7,805.2c-0.1,0.1-0.3,0.1-0.4,0.2
			c-0.1,0.4-0.3,0.8-0.4,1.2c-0.1,0.1-0.3,0.1-0.4,0.2c-0.1,0.3-0.1,0.5-0.2,0.8c-0.1,0.1-0.3,0.1-0.4,0.2c-0.1,0.4-0.3,0.8-0.4,1.2
			c-0.1,0.1-0.3,0.1-0.4,0.2c-0.1,0.4-0.3,0.8-0.4,1.2c-0.1,0.1-0.3,0.1-0.4,0.2c-0.1,0.3-0.1,0.5-0.2,0.8c-0.1,0.1-0.3,0.1-0.4,0.2
			c-0.1,0.4-0.3,0.8-0.4,1.2c-0.1,0.1-0.3,0.1-0.4,0.2c-0.1,0.4-0.3,0.8-0.4,1.2c-0.1,0.1-0.3,0.1-0.4,0.2c0,0.1,0,0.3,0,0.4
			c-0.1,0-0.1,0-0.2,0c0,0.1,0,0.3,0,0.4c-0.1,0.1-0.3,0.1-0.4,0.2c-0.1,0.4-0.3,0.8-0.4,1.2c-0.1,0.1-0.3,0.1-0.4,0.2
			c0,0.1,0,0.3,0,0.4c-0.1,0-0.1,0-0.2,0c0,0.1,0,0.3,0,0.4c-4.7,7.5-8.9,15.5-13.6,23c-0.1,0.4-0.3,0.8-0.4,1.2
			c-0.1,0.1-0.3,0.1-0.4,0.2c-0.1,0.3-0.1,0.5-0.2,0.8c-0.1,0.1-0.3,0.1-0.4,0.2c-0.1,0.4-0.3,0.8-0.4,1.2c-0.1,0.1-0.3,0.1-0.4,0.2
			c-0.1,0.4-0.3,0.8-0.4,1.2c-0.1,0.1-0.3,0.1-0.4,0.2c-0.1,0.3-0.1,0.5-0.2,0.8c-0.1,0.1-0.3,0.1-0.4,0.2c-0.1,0.4-0.3,0.8-0.4,1.2
			c-0.1,0.1-0.3,0.1-0.4,0.2c-0.1,0.4-0.3,0.8-0.4,1.2c-0.1,0.1-0.3,0.1-0.4,0.2c0,0.1,0,0.3,0,0.4c-0.1,0-0.1,0-0.2,0
			c0,0.1,0,0.3,0,0.4c-0.1,0.1-0.3,0.1-0.4,0.2c-0.1,0.4-0.3,0.8-0.4,1.2c-0.1,0.1-0.3,0.1-0.4,0.2c-0.1,0.4-0.3,0.8-0.4,1.2
			c-0.1,0.1-0.3,0.1-0.4,0.2c0,0.1,0,0.3,0,0.4c-0.1,0-0.1,0-0.2,0c0,0.1,0,0.3,0,0.4c-0.1,0.1-0.3,0.1-0.4,0.2
			c-0.1,0.4-0.3,0.8-0.4,1.2c-0.1,0.1-0.3,0.1-0.4,0.2c-0.1,0.4-0.3,0.8-0.4,1.2c-0.1,0.1-0.3,0.1-0.4,0.2c-0.1,0.3-0.1,0.5-0.2,0.8
			c-0.1,0.1-0.3,0.1-0.4,0.2c-0.1,0.4-0.3,0.8-0.4,1.2c-0.1,0-0.3,0-0.4,0c-0.3-1.2-1.1-2.2-1.6-3.2c0-0.1,0-0.3,0-0.4
			c-0.1,0-0.1,0-0.2,0c0-0.1,0-0.3,0-0.4l-0.4-0.4c0-0.1,0-0.3,0-0.4c-0.1-0.1-0.3-0.1-0.4-0.2c0-0.1,0-0.3,0-0.4l-0.4-0.4
			c0-0.1,0-0.3,0-0.4c-0.1,0-0.1,0-0.2,0c0-0.1,0-0.3,0-0.4c-0.1,0-0.1,0-0.2,0c0-0.1,0-0.3,0-0.4c-0.1,0-0.1,0-0.2,0
			c0-0.1,0-0.3,0-0.4c-0.1,0-0.1,0-0.2,0c0-0.1,0-0.3,0-0.4c-0.1,0-0.1,0-0.2,0c0-0.1,0-0.3,0-0.4c-0.1,0-0.1,0-0.2,0
			c0-0.1,0-0.3,0-0.4l-0.4-0.4c-0.1-0.3-0.1-0.5-0.2-0.8c-0.1-0.1-0.3-0.1-0.4-0.2c0-0.1,0-0.3,0-0.4l-0.4-0.4c0-0.1,0-0.3,0-0.4
			c-0.1,0-0.1,0-0.2,0c0-0.1,0-0.3,0-0.4c-0.1,0-0.1,0-0.2,0c0-0.1,0-0.3,0-0.4c-0.1,0-0.1,0-0.2,0c0-0.1,0-0.3,0-0.4
			c-0.1,0-0.1,0-0.2,0c0-0.1,0-0.3,0-0.4c-0.1,0-0.1,0-0.2,0c0-0.1,0-0.3,0-0.4c-0.1,0-0.1,0-0.2,0c0-0.1,0-0.3,0-0.4
			c-0.1,0-0.1,0-0.2,0c0-0.1,0-0.3,0-0.4l-0.4-0.4c0-0.1,0-0.3,0-0.4c-0.1-0.1-0.3-0.1-0.4-0.2c-0.1-0.4-0.3-0.8-0.4-1.2
			c-0.1,0-0.1,0-0.2,0c-0.1-0.3-0.1-0.5-0.2-0.8c-0.1,0-0.1,0-0.2,0c-0.1-0.3-0.1-0.5-0.2-0.8c-0.1,0-0.1,0-0.2,0c0-0.1,0-0.3,0-0.4
			c-0.1,0-0.1,0-0.2,0c0-0.1,0-0.3,0-0.4c-0.1,0-0.1,0-0.2,0c0-0.1,0-0.3,0-0.4l-0.4-0.4c-0.1-0.3-0.1-0.5-0.2-0.8
			c-0.1-0.1-0.3-0.1-0.4-0.2c0-0.1,0-0.3,0-0.4l-0.4-0.4c0-0.1,0-0.3,0-0.4c-0.1,0-0.1,0-0.2,0c0-0.1,0-0.3,0-0.4
			c-0.1,0-0.1,0-0.2,0c0-0.1,0-0.3,0-0.4c-0.1,0-0.1,0-0.2,0c0-0.1,0-0.3,0-0.4c-0.1,0-0.1,0-0.2,0c0-0.1,0-0.3,0-0.4
			c-0.1,0-0.1,0-0.2,0c0-0.1,0-0.3,0-0.4c-0.1,0-0.1,0-0.2,0c0-0.1,0-0.3,0-0.4l-0.4-0.4c-0.1-0.3-0.1-0.5-0.2-0.8
			c-0.1-0.1-0.3-0.1-0.4-0.2c0-0.1,0-0.3,0-0.4l-0.4-0.4c0-0.1,0-0.3,0-0.4c-0.1,0-0.1,0-0.2,0c0-0.1,0-0.3,0-0.4
			c-0.1,0-0.1,0-0.2,0c0-0.1,0-0.3,0-0.4c-0.1,0-0.1,0-0.2,0c0-0.1,0-0.3,0-0.4c-0.1,0-0.1,0-0.2,0c0-0.1,0-0.3,0-0.4
			c-0.1,0-0.1,0-0.2,0c0-0.1,0-0.3,0-0.4c-0.1,0-0.1,0-0.2,0c0-0.1,0-0.3,0-0.4c-0.1,0-0.1,0-0.2,0c0-0.1,0-0.3,0-0.4
			c-0.1,0-0.1,0-0.2,0c0-0.1,0-0.3,0-0.4l-0.4-0.4c0-0.1,0-0.3,0-0.4c-0.1-0.1-0.3-0.1-0.4-0.2c0-0.1,0-0.3,0-0.4
			c-0.1,0-0.1,0-0.2,0c-0.1-0.3-0.1-0.5-0.2-0.8c-0.1,0-0.1,0-0.2,0c-0.1-0.3-0.1-0.5-0.2-0.8c-0.1,0-0.1,0-0.2,0c0-0.1,0-0.3,0-0.4
			c-0.1,0-0.1,0-0.2,0c0-0.1,0-0.3,0-0.4c-0.1,0-0.1,0-0.2,0c0-0.1,0-0.3,0-0.4c-0.1,0-0.1,0-0.2,0c0-0.1,0-0.3,0-0.4l-0.4-0.4
			c-0.1-0.3-0.1-0.5-0.2-0.8c-0.1-0.1-0.3-0.1-0.4-0.2c-0.1-0.4-0.3-0.8-0.4-1.2c-0.1,0-0.1,0-0.2,0c-0.1-0.3-0.1-0.5-0.2-0.8
			c-0.1,0-0.1,0-0.2,0c0-0.1,0-0.3,0-0.4c-0.1,0-0.1,0-0.2,0c0-0.1,0-0.3,0-0.4c-0.1,0-0.1,0-0.2,0c0-0.1,0-0.3,0-0.4
			c-0.1,0-0.1,0-0.2,0c0-0.1,0-0.3,0-0.4l-0.4-0.4c-0.1-0.3-0.1-0.5-0.2-0.8c-0.1-0.1-0.3-0.1-0.4-0.2c0-0.1,0-0.3,0-0.4l-0.4-0.4
			c0-0.1,0-0.3,0-0.4c-0.1,0-0.1,0-0.2,0c0-0.1,0-0.3,0-0.4c-0.1,0-0.1,0-0.2,0c0-0.1,0-0.3,0-0.4c-0.1,0-0.1,0-0.2,0
			c0-0.1,0-0.3,0-0.4c-0.1,0-0.1,0-0.2,0c0-0.1,0-0.3,0-0.4c-0.1,0-0.1,0-0.2,0c0-0.1,0-0.3,0-0.4c-0.1,0-0.1,0-0.2,0
			c0-0.1,0-0.3,0-0.4c-0.1,0-0.1,0-0.2,0c0-0.1,0-0.3,0-0.4l-0.4-0.4c-0.1-0.3-0.1-0.5-0.2-0.8c-0.1-0.1-0.3-0.1-0.4-0.2
			c-0.1-0.3-0.1-0.5-0.2-0.8l-0.4-0.4c0-0.1,0-0.3,0-0.4c-0.1,0-0.1,0-0.2,0c0-0.1,0-0.3,0-0.4c-0.1,0-0.1,0-0.2,0
			c0-0.1,0-0.3,0-0.4c-0.1,0-0.1,0-0.2,0c-0.1-0.3-0.1-0.5-0.2-0.8c-0.1,0-0.1,0-0.2,0c-0.1-0.3-0.1-0.5-0.2-0.8l-0.4-0.4
			c0-0.1,0-0.3,0-0.4c-0.1-0.1-0.3-0.1-0.4-0.2c0-0.1,0-0.3,0-0.4l-0.4-0.4c0-0.1,0-0.3,0-0.4c-0.1,0-0.1,0-0.2,0c0-0.1,0-0.3,0-0.4
			c-0.1,0-0.1,0-0.2,0c0-0.1,0-0.3,0-0.4c-0.1,0-0.1,0-0.2,0c0-0.1,0-0.3,0-0.4c-0.1,0-0.1,0-0.2,0c-0.1-0.4-0.3-0.8-0.4-1.2
			c-11.6,0-23.2,0-34.8,0c0.1,0.2,0.1,0.4,0.2,0.6c0.1,0,0.1,0,0.2,0c0,0.1,0,0.3,0,0.4c0.1,0,0.1,0,0.2,0c0,0.1,0,0.3,0,0.4
			c0.1,0.1,0.3,0.1,0.4,0.2c0.1,0.3,0.1,0.5,0.2,0.8c0.1,0.1,0.3,0.1,0.4,0.2c0.1,0.3,0.1,0.5,0.2,0.8c0.1,0.1,0.3,0.1,0.4,0.2
			c0.1,0.3,0.1,0.5,0.2,0.8c0.1,0.1,0.3,0.1,0.4,0.2c0.1,0.3,0.1,0.5,0.2,0.8c0.1,0.1,0.3,0.1,0.4,0.2c0.1,0.3,0.1,0.5,0.2,0.8
			c0.1,0.1,0.3,0.1,0.4,0.2c0,0.1,0,0.3,0,0.4c0.1,0,0.1,0,0.2,0c0,0.1,0,0.3,0,0.4c0.1,0.1,0.3,0.1,0.4,0.2
			c0.1,0.3,0.1,0.5,0.2,0.8c0.1,0.1,0.3,0.1,0.4,0.2c0.1,0.3,0.1,0.5,0.2,0.8c0.1,0.1,0.3,0.1,0.4,0.2c0.1,0.3,0.1,0.5,0.2,0.8
			c0.1,0.1,0.3,0.1,0.4,0.2c0.1,0.3,0.1,0.5,0.2,0.8c0.1,0.1,0.3,0.1,0.4,0.2c0.1,0.3,0.1,0.5,0.2,0.8c0.1,0.1,0.3,0.1,0.4,0.2
			c0.1,0.4,0.3,0.8,0.4,1.2c0.1,0.1,0.3,0.1,0.4,0.2c0.1,0.3,0.1,0.5,0.2,0.8c0.1,0.1,0.3,0.1,0.4,0.2c0.1,0.3,0.1,0.5,0.2,0.8
			c0.1,0.1,0.3,0.1,0.4,0.2c0.1,0.3,0.1,0.5,0.2,0.8c0.1,0.1,0.3,0.1,0.4,0.2c0.1,0.3,0.1,0.5,0.2,0.8c0.1,0.1,0.3,0.1,0.4,0.2
			c0,0.1,0,0.3,0,0.4c0.1,0,0.1,0,0.2,0c0,0.1,0,0.3,0,0.4c0.1,0.1,0.3,0.1,0.4,0.2c0.1,0.3,0.1,0.5,0.2,0.8
			c0.1,0.1,0.3,0.1,0.4,0.2c0.1,0.3,0.1,0.5,0.2,0.8c0.1,0.1,0.3,0.1,0.4,0.2c0.1,0.3,0.1,0.5,0.2,0.8c0.1,0.1,0.3,0.1,0.4,0.2
			c0.1,0.3,0.1,0.5,0.2,0.8c0.1,0.1,0.3,0.1,0.4,0.2c0.1,0.3,0.1,0.5,0.2,0.8c6,9.4,11.5,19.2,17.4,28.6c0.1,0.3,0.1,0.5,0.2,0.8
			c0.1,0.1,0.3,0.1,0.4,0.2c0.1,0.3,0.1,0.5,0.2,0.8c0.1,0.1,0.3,0.1,0.4,0.2c0.1,0.3,0.1,0.5,0.2,0.8c0.1,0.1,0.3,0.1,0.4,0.2
			c0.1,0.3,0.1,0.5,0.2,0.8c0.1,0.1,0.3,0.1,0.4,0.2c0.1,0.4,0.3,0.8,0.4,1.2c0.1,0.1,0.3,0.1,0.4,0.2c0.1,0.3,0.1,0.5,0.2,0.8
			c0.1,0.1,0.3,0.1,0.4,0.2c0,0.1,0,0.3,0,0.4c0.1,0,0.1,0,0.2,0c0,0.1,0,0.3,0,0.4c0.1,0.1,0.3,0.1,0.4,0.2
			c0.1,0.3,0.1,0.5,0.2,0.8c0.1,0.1,0.3,0.1,0.4,0.2c0.1,0.3,0.1,0.5,0.2,0.8c0.1,0.1,0.3,0.1,0.4,0.2c0.1,0.3,0.1,0.5,0.2,0.8
			c0.1,0.1,0.3,0.1,0.4,0.2c0.1,0.3,0.1,0.5,0.2,0.8c0.1,0.1,0.3,0.1,0.4,0.2c0.1,0.3,0.1,0.5,0.2,0.8c0.1,0.1,0.3,0.1,0.4,0.2
			c0,0.1,0,0.3,0,0.4c0.1,0,0.1,0,0.2,0c0,0.1,0,0.3,0,0.4c0.1,0.1,0.3,0.1,0.4,0.2c0.1,0.3,0.1,0.5,0.2,0.8
			c0.1,0.1,0.3,0.1,0.4,0.2c0,0.1,0,0.3,0,0.4c0.1,0,0.1,0,0.2,0c0,0.1,0,0.3,0,0.4c0.1,0.1,0.3,0.1,0.4,0.2
			c0.1,0.3,0.1,0.5,0.2,0.8c0.1,0.1,0.3,0.1,0.4,0.2c0.1,0.3,0.1,0.5,0.2,0.8c0.1,0.1,0.3,0.1,0.4,0.2c0.1,0.3,0.1,0.5,0.2,0.8
			c0.1,0.1,0.3,0.1,0.4,0.2c0.1,0.3,0.1,0.5,0.2,0.8c0.1,0.1,0.3,0.1,0.4,0.2c0.1,0.3,0.1,0.5,0.2,0.8c0.1,0.1,0.3,0.1,0.4,0.2
			c0,0.1,0,0.3,0,0.4c0.1,0,0.1,0,0.2,0c0,0.1,0,0.3,0,0.4c0.1,0.1,0.3,0.1,0.4,0.2c0,0.1,0,0.3,0,0.4c0.1,0,0.1,0,0.2,0
			c-0.1,0.3-0.1,0.7-0.2,1c-0.1,0.1-0.3,0.1-0.4,0.2c-0.1,0.3-0.1,0.5-0.2,0.8c-0.1,0.1-0.3,0.1-0.4,0.2c0,0.1,0,0.3,0,0.4
			c-0.1,0.1-0.3,0.1-0.4,0.2c0,0.1,0,0.3,0,0.4c-0.1,0.1-0.3,0.1-0.4,0.2c-0.1,0.3-0.1,0.5-0.2,0.8c-0.1,0.1-0.3,0.1-0.4,0.2
			c0,0.1,0,0.3,0,0.4c-0.1,0.1-0.3,0.1-0.4,0.2c-0.1,0.3-0.1,0.5-0.2,0.8c-0.1,0.1-0.3,0.1-0.4,0.2c-0.1,0.2-0.1,0.4-0.2,0.6
			c-0.1,0-0.1,0-0.2,0c-0.1,0.3-0.1,0.5-0.2,0.8c-0.1,0.1-0.3,0.1-0.4,0.2c0,0.1,0,0.3,0,0.4c-0.1,0.1-0.3,0.1-0.4,0.2
			c-0.1,0.3-0.1,0.5-0.2,0.8c-0.1,0.1-0.3,0.1-0.4,0.2c-0.1,0.2-0.1,0.4-0.2,0.6c-0.1,0-0.1,0-0.2,0c-0.1,0.3-0.1,0.5-0.2,0.8
			c-0.1,0.1-0.3,0.1-0.4,0.2c0,0.1,0,0.3,0,0.4c-0.1,0.1-0.3,0.1-0.4,0.2c-0.1,0.3-0.1,0.5-0.2,0.8c-0.1,0.1-0.3,0.1-0.4,0.2
			c0,0.1,0,0.3,0,0.4c-0.1,0.1-0.3,0.1-0.4,0.2c-0.1,0.3-0.1,0.5-0.2,0.8c-0.1,0.1-0.3,0.1-0.4,0.2c0,0.1,0,0.3,0,0.4
			c-0.1,0.1-0.3,0.1-0.4,0.2c0,0.1,0,0.3,0,0.4c-0.1,0-0.1,0-0.2,0c0,0.1,0,0.3,0,0.4c-0.1,0.1-0.3,0.1-0.4,0.2c0,0.1,0,0.3,0,0.4
			c-0.1,0.1-0.3,0.1-0.4,0.2c0,0.1,0,0.3,0,0.4c-0.1,0.1-0.3,0.1-0.4,0.2c-0.1,0.3-0.1,0.5-0.2,0.8c-0.1,0.1-0.3,0.1-0.4,0.2
			c-0.1,0.2-0.1,0.4-0.2,0.6c-0.1,0-0.1,0-0.2,0c-0.1,0.3-0.1,0.5-0.2,0.8c-0.1,0.1-0.3,0.1-0.4,0.2c-0.1,0.2-0.1,0.4-0.2,0.6
			c-0.1,0-0.1,0-0.2,0c-0.1,0.3-0.1,0.5-0.2,0.8c-0.1,0.1-0.3,0.1-0.4,0.2c0,0.1,0,0.3,0,0.4c-0.1,0.1-0.3,0.1-0.4,0.2
			c-0.1,0.3-0.1,0.5-0.2,0.8c-0.1,0.1-0.3,0.1-0.4,0.2c0,0.1,0,0.3,0,0.4c-0.1,0.1-0.3,0.1-0.4,0.2c-0.1,0.3-0.1,0.5-0.2,0.8
			c-0.1,0.1-0.3,0.1-0.4,0.2c-0.1,0.2-0.1,0.4-0.2,0.6c-0.1,0-0.1,0-0.2,0c-0.1,0.3-0.1,0.5-0.2,0.8c-0.1,0.1-0.3,0.1-0.4,0.2
			c0,0.1,0,0.3,0,0.4c-0.1,0.1-0.3,0.1-0.4,0.2c-0.1,0.3-0.1,0.5-0.2,0.8c-0.1,0.1-0.3,0.1-0.4,0.2c0,0.1,0,0.3,0,0.4
			c-0.1,0.1-0.3,0.1-0.4,0.2c-0.1,0.3-0.1,0.5-0.2,0.8c-0.1,0.1-0.3,0.1-0.4,0.2c0,0.1,0,0.3,0,0.4c-0.1,0.1-0.3,0.1-0.4,0.2
			c-0.1,0.2-0.1,0.4-0.2,0.6c-0.1,0-0.1,0-0.2,0c-0.1,0.3-0.1,0.5-0.2,0.8c-0.1,0.1-0.3,0.1-0.4,0.2c0,0.1,0,0.3,0,0.4
			c-0.1,0.1-0.3,0.1-0.4,0.2c0,0.1,0,0.3,0,0.4c-0.1,0-0.1,0-0.2,0c0,0.1,0,0.3,0,0.4c-0.1,0.1-0.3,0.1-0.4,0.2
			c-0.1,0.2-0.1,0.4-0.2,0.6c-0.1,0-0.1,0-0.2,0c-0.1,0.3-0.1,0.5-0.2,0.8c-0.1,0.1-0.3,0.1-0.4,0.2c-0.1,0.2-0.1,0.4-0.2,0.6
			c-0.1,0-0.1,0-0.2,0c-0.1,0.3-0.1,0.5-0.2,0.8c-0.1,0.1-0.3,0.1-0.4,0.2c0,0.1,0,0.3,0,0.4c-0.1,0.1-0.3,0.1-0.4,0.2
			c-0.1,0.3-0.1,0.5-0.2,0.8c-0.1,0.1-0.3,0.1-0.4,0.2c-0.1,0.2-0.1,0.4-0.2,0.6c-0.1,0-0.1,0-0.2,0c-0.1,0.3-0.1,0.5-0.2,0.8
			c-0.1,0.1-0.3,0.1-0.4,0.2c-0.1,0.2-0.1,0.4-0.2,0.6c-0.1,0-0.1,0-0.2,0c-0.1,0.3-0.1,0.5-0.2,0.8c-0.1,0.1-0.3,0.1-0.4,0.2
			c0,0.1,0,0.3,0,0.4c-0.1,0.1-0.3,0.1-0.4,0.2c-0.1,0.3-0.1,0.5-0.2,0.8c-0.1,0.1-0.3,0.1-0.4,0.2c0,0.1,0,0.3,0,0.4
			c-0.1,0.1-0.3,0.1-0.4,0.2c0,0.1,0,0.3,0,0.4c-0.1,0.1-0.3,0.1-0.4,0.2c-0.1,0.3-0.1,0.5-0.2,0.8c-0.1,0.1-0.3,0.1-0.4,0.2
			c-0.1,0.2-0.1,0.4-0.2,0.6c-0.1,0-0.1,0-0.2,0c-0.1,0.3-0.1,0.5-0.2,0.8c-0.1,0.1-0.3,0.1-0.4,0.2c0,0.1,0,0.3,0,0.4
			c-0.1,0.1-0.3,0.1-0.4,0.2c-0.1,0.3-0.1,0.5-0.2,0.8c-0.1,0.1-0.3,0.1-0.4,0.2c0,0.1,0,0.3,0,0.4c-0.1,0.1-0.3,0.1-0.4,0.2
			c-0.1,0.3-0.1,0.5-0.2,0.8c-0.1,0.1-0.3,0.1-0.4,0.2c-0.1,0.2-0.1,0.4-0.2,0.6c-0.1,0-0.1,0-0.2,0c-0.1,0.3-0.1,0.5-0.2,0.8
			c-0.1,0.1-0.3,0.1-0.4,0.2c0,0.1,0,0.3,0,0.4c-0.1,0.1-0.3,0.1-0.4,0.2c0,0.1,0,0.3,0,0.4c-0.1,0-0.1,0-0.2,0c0,0.1,0,0.3,0,0.4
			c-0.1,0.1-0.3,0.1-0.4,0.2c-0.1,0.2-0.1,0.4-0.2,0.6c-0.1,0-0.1,0-0.2,0c-0.1,0.3-0.1,0.5-0.2,0.8c-0.1,0.1-0.3,0.1-0.4,0.2
			c-0.1,0.2-0.1,0.4-0.2,0.6c-0.1,0-0.1,0-0.2,0c-0.1,0.3-0.1,0.5-0.2,0.8c-0.1,0-0.1,0-0.2,0c-0.1,0.2-0.1,0.4-0.2,0.6
			c-0.1,0.1-0.3,0.1-0.4,0.2c0,0.1,0,0.3,0,0.4c-0.1,0.1-0.3,0.1-0.4,0.2c-0.1,0.3-0.1,0.5-0.2,0.8c-0.1,0.1-0.3,0.1-0.4,0.2
			c-0.1,0.2-0.1,0.4-0.2,0.6c-0.1,0-0.1,0-0.2,0c-0.1,0.3-0.1,0.5-0.2,0.8c-0.1,0.1-0.3,0.1-0.4,0.2c-0.1,0.2-0.1,0.4-0.2,0.6
			c-0.1,0-0.1,0-0.2,0c-0.1,0.3-0.1,0.5-0.2,0.8c-0.1,0.1-0.3,0.1-0.4,0.2c0,0.1,0,0.3,0,0.4c-0.1,0.1-0.3,0.1-0.4,0.2
			c-0.1,0.3-0.1,0.5-0.2,0.8c-0.1,0.1-0.3,0.1-0.4,0.2c0,0.1,0,0.3,0,0.4c-0.1,0.1-0.3,0.1-0.4,0.2c-0.1,0.3-0.1,0.5-0.2,0.8
			c-0.1,0.1-0.3,0.1-0.4,0.2c-0.1,0.2-0.1,0.4-0.2,0.6c-0.1,0-0.1,0-0.2,0c-0.1,0.3-0.1,0.5-0.2,0.8c-0.1,0.1-0.3,0.1-0.4,0.2
			c-0.1,0.2-0.1,0.4-0.2,0.6c-0.1,0-0.1,0-0.2,0c-0.1,0.3-0.1,0.5-0.2,0.8c-0.1,0.1-0.3,0.1-0.4,0.2c0,0.1,0,0.3,0,0.4
			c-0.1,0.1-0.3,0.1-0.4,0.2c0,0.1,0,0.3,0,0.4c-0.1,0-0.1,0-0.2,0c0,0.1,0,0.3,0,0.4c-0.1,0.1-0.3,0.1-0.4,0.2c0,0.1,0,0.3,0,0.4
			c-0.1,0.1-0.3,0.1-0.4,0.2c0,0.1,0,0.3,0,0.4c-0.1,0.1-0.3,0.1-0.4,0.2c-0.1,0.3-0.1,0.5-0.2,0.8c-0.1,0.1-0.3,0.1-0.4,0.2
			c-0.1,0.2-0.1,0.4-0.2,0.6c-0.1,0-0.1,0-0.2,0c-0.1,0.3-0.1,0.5-0.2,0.8c-0.1,0.1-0.3,0.1-0.4,0.2c0,0.1,0,0.3,0,0.4
			c-0.1,0.1-0.3,0.1-0.4,0.2c-0.1,0.3-0.1,0.5-0.2,0.8c-0.1,0.1-0.3,0.1-0.4,0.2c0,0.1,0,0.3,0,0.4c-0.1,0.1-0.3,0.1-0.4,0.2
			c-0.1,0.3-0.1,0.5-0.2,0.8c-0.1,0.1-0.3,0.1-0.4,0.2c0,0.1,0,0.3,0,0.4c-0.1,0-0.1,0-0.2,0c-0.1,0.2-0.1,0.4-0.2,0.6
			c11.1,0,22.1,0,33.2,0c10.4-18.2,20.8-36.4,31.2-54.6c0.1,0,0.3,0,0.4,0c0.2,0.7,0.7,1.2,1,1.8c0,0.1,0,0.3,0,0.4
			c0.1,0.1,0.3,0.1,0.4,0.2c0,0.1,0,0.3,0,0.4l0.4,0.4c0,0.1,0,0.3,0,0.4c0.1,0,0.1,0,0.2,0c0,0.1,0,0.3,0,0.4
			c0.1,0.1,0.3,0.1,0.4,0.2c0.1,0.4,0.3,0.8,0.4,1.2c0.1,0.1,0.3,0.1,0.4,0.2c0,0.1,0,0.3,0,0.4l0.4,0.4c0,0.1,0,0.3,0,0.4
			c0.1,0,0.1,0,0.2,0c0,0.1,0,0.3,0,0.4c0.1,0.1,0.3,0.1,0.4,0.2c0,0.1,0,0.3,0,0.4l0.4,0.4c0,0.1,0,0.3,0,0.4c0.1,0,0.1,0,0.2,0
			c0,0.1,0,0.3,0,0.4c0.1,0.1,0.3,0.1,0.4,0.2c0,0.1,0,0.3,0,0.4l0.4,0.4c0,0.1,0,0.3,0,0.4c0.1,0,0.1,0,0.2,0c0,0.1,0,0.3,0,0.4
			c0.1,0.1,0.3,0.1,0.4,0.2c0,0.1,0,0.3,0,0.4l0.4,0.4c0,0.1,0,0.3,0,0.4c0.1,0,0.1,0,0.2,0c0,0.1,0,0.3,0,0.4
			c0.1,0.1,0.3,0.1,0.4,0.2c0,0.1,0,0.3,0,0.4l0.4,0.4c0,0.1,0,0.3,0,0.4c0.1,0,0.1,0,0.2,0c0,0.1,0,0.3,0,0.4
			c0.1,0.1,0.3,0.1,0.4,0.2c0,0.1,0,0.3,0,0.4l0.4,0.4c0,0.1,0,0.3,0,0.4c0.1,0.1,0.3,0.1,0.4,0.2c0,0.1,0,0.3,0,0.4l0.4,0.4
			c0,0.1,0,0.3,0,0.4c0.1,0,0.1,0,0.2,0c0,0.1,0,0.3,0,0.4c0.1,0.1,0.3,0.1,0.4,0.2c0,0.1,0,0.3,0,0.4l0.4,0.4
			c0.1,0.3,0.1,0.5,0.2,0.8c0.1,0.1,0.3,0.1,0.4,0.2c0,0.1,0,0.3,0,0.4l0.4,0.4c0,0.1,0,0.3,0,0.4c0.1,0,0.1,0,0.2,0
			c0,0.1,0,0.3,0,0.4c0.1,0.1,0.3,0.1,0.4,0.2c0,0.1,0,0.3,0,0.4l0.4,0.4c0,0.1,0,0.3,0,0.4c0.1,0,0.1,0,0.2,0c0,0.1,0,0.3,0,0.4
			c0.1,0.1,0.3,0.1,0.4,0.2c0,0.1,0,0.3,0,0.4l0.4,0.4c0,0.1,0,0.3,0,0.4c0.1,0,0.1,0,0.2,0c0,0.1,0,0.3,0,0.4
			c0.1,0.1,0.3,0.1,0.4,0.2c0.1,0.4,0.3,0.8,0.4,1.2c0.1,0.1,0.3,0.1,0.4,0.2c0,0.1,0,0.3,0,0.4l0.4,0.4c0,0.1,0,0.3,0,0.4
			c0.1,0,0.1,0,0.2,0c0,0.1,0,0.3,0,0.4c0.1,0.1,0.3,0.1,0.4,0.2c0,0.1,0,0.3,0,0.4l0.4,0.4c0,0.1,0,0.3,0,0.4c0.1,0,0.1,0,0.2,0
			c0,0.1,0,0.3,0,0.4c0.1,0.1,0.3,0.1,0.4,0.2c0,0.1,0,0.3,0,0.4l0.4,0.4c0,0.1,0,0.3,0,0.4c0.1,0,0.1,0,0.2,0c0,0.1,0,0.3,0,0.4
			c0.1,0.1,0.3,0.1,0.4,0.2c0,0.1,0,0.3,0,0.4l0.4,0.4c0.1,0.3,0.1,0.5,0.2,0.8c0.1,0.1,0.3,0.1,0.4,0.2c0,0.1,0,0.3,0,0.4l0.4,0.4
			c0,0.1,0,0.3,0,0.4c0.1,0,0.1,0,0.2,0c0,0.1,0,0.3,0,0.4c0.1,0.1,0.3,0.1,0.4,0.2c0.1,0.4,0.3,0.8,0.4,1.2
			c0.1,0.1,0.3,0.1,0.4,0.2c0,0.1,0,0.3,0,0.4l0.4,0.4c0,0.1,0,0.3,0,0.4c0.1,0,0.1,0,0.2,0c0,0.1,0,0.3,0,0.4
			c0.1,0.1,0.3,0.1,0.4,0.2c0,0.1,0,0.3,0,0.4l0.4,0.4c0,0.1,0,0.3,0,0.4c0.1,0,0.1,0,0.2,0c0,0.1,0,0.3,0,0.4
			c0.1,0.1,0.3,0.1,0.4,0.2c0,0.1,0,0.3,0,0.4l0.4,0.4c0,0.1,0,0.3,0,0.4c0.1,0,0.1,0,0.2,0c0,0.1,0,0.3,0,0.4
			c0.1,0.1,0.3,0.1,0.4,0.2c0,0.1,0,0.3,0,0.4l0.4,0.4c0,0.1,0,0.3,0,0.4c0.1,0,0.1,0,0.2,0c0,0.1,0,0.3,0,0.4
			c0.1,0.1,0.3,0.1,0.4,0.2c0,0.1,0,0.3,0,0.4l0.4,0.4c0.1,0.3,0.1,0.5,0.2,0.8c0.1,0.1,0.3,0.1,0.4,0.2c0,0.1,0,0.3,0,0.4l0.4,0.4
			c0,0.1,0,0.3,0,0.4c0.1,0,0.1,0,0.2,0c0,0.1,0,0.3,0,0.4c0.1,0.1,0.3,0.1,0.4,0.2c0,0.1,0,0.3,0,0.4l0.4,0.4c0,0.1,0,0.3,0,0.4
			c0.1,0.1,0.3,0.1,0.4,0.2c0,0.1,0,0.3,0,0.4l0.4,0.4c0,0.1,0,0.3,0,0.4c0.1,0,0.1,0,0.2,0c0,0.1,0,0.3,0,0.4
			c0.1,0.1,0.3,0.1,0.4,0.2c0,0.1,0,0.3,0,0.4l0.4,0.4c0,0.1,0,0.3,0,0.4c0.1,0,0.1,0,0.2,0c0,0.1,0,0.3,0,0.4
			c0.1,0.1,0.3,0.1,0.4,0.2c0.1,0.3,0.1,0.5,0.2,0.8c0.2,0.4,0.6,0.8,0.8,1.2c11.7,0,23.3,0,35,0c-0.2-0.7-0.4-1.3-0.8-1.8
			c-0.1-0.1-0.3-0.1-0.4-0.2c-0.1-0.3-0.1-0.5-0.2-0.8c-0.1-0.1-0.3-0.1-0.4-0.2c0-0.1,0-0.3,0-0.4c-0.1,0-0.1,0-0.2,0
			c0-0.1,0-0.3,0-0.4c-0.1-0.1-0.3-0.1-0.4-0.2c-0.1-0.2-0.1-0.4-0.2-0.6c-0.1,0-0.1,0-0.2,0c-0.1-0.3-0.1-0.5-0.2-0.8
			c-0.1-0.1-0.3-0.1-0.4-0.2c0-0.1,0-0.3,0-0.4c-0.1-0.1-0.3-0.1-0.4-0.2c-0.1-0.3-0.1-0.5-0.2-0.8c-0.1-0.1-0.3-0.1-0.4-0.2
			c-0.1-0.2-0.1-0.4-0.2-0.6c-0.1,0-0.1,0-0.2,0c-0.1-0.3-0.1-0.5-0.2-0.8c-0.1-0.1-0.3-0.1-0.4-0.2c-0.1-0.3-0.1-0.5-0.2-0.8
			c-0.1-0.1-0.3-0.1-0.4-0.2c-0.1-0.2-0.1-0.4-0.2-0.6c-0.1,0-0.1,0-0.2,0c-0.1-0.3-0.1-0.5-0.2-0.8c-0.1-0.1-0.3-0.1-0.4-0.2
			c0-0.1,0-0.3,0-0.4c-0.1-0.1-0.3-0.1-0.4-0.2c-0.1-0.3-0.1-0.5-0.2-0.8c-0.1-0.1-0.3-0.1-0.4-0.2c0-0.1,0-0.3,0-0.4
			c-0.1,0-0.1,0-0.2,0c0-0.1,0-0.3,0-0.4c-0.1-0.1-0.3-0.1-0.4-0.2c-0.1-0.2-0.1-0.4-0.2-0.6c-0.1,0-0.1,0-0.2,0
			c-0.1-0.3-0.1-0.5-0.2-0.8c-0.1-0.1-0.3-0.1-0.4-0.2c-0.1-0.2-0.1-0.4-0.2-0.6c-0.1,0-0.1,0-0.2,0c-0.1-0.3-0.1-0.5-0.2-0.8
			c-0.1-0.1-0.3-0.1-0.4-0.2c-0.1-0.2-0.1-0.4-0.2-0.6c-0.1,0-0.1,0-0.2,0c-0.1-0.3-0.1-0.5-0.2-0.8c-0.1-0.1-0.3-0.1-0.4-0.2
			c0-0.1,0-0.3,0-0.4c-0.1,0-0.1,0-0.2,0c0-0.1,0-0.3,0-0.4c-0.1-0.1-0.3-0.1-0.4-0.2c-0.1-0.2-0.1-0.4-0.2-0.6c-0.1,0-0.1,0-0.2,0
			c-0.1-0.3-0.1-0.5-0.2-0.8c-0.1-0.1-0.3-0.1-0.4-0.2c0-0.1,0-0.3,0-0.4c-0.1-0.1-0.3-0.1-0.4-0.2c-0.1-0.3-0.1-0.5-0.2-0.8
			c-0.1-0.1-0.3-0.1-0.4-0.2c-0.1-0.3-0.1-0.5-0.2-0.8c-0.1-0.1-0.3-0.1-0.4-0.2c-0.1-0.2-0.1-0.4-0.2-0.6c-0.1,0-0.1,0-0.2,0
			c-0.1-0.3-0.1-0.5-0.2-0.8c-0.1-0.1-0.3-0.1-0.4-0.2c0-0.1,0-0.3,0-0.4c-0.1-0.1-0.3-0.1-0.4-0.2c-0.1-0.3-0.1-0.5-0.2-0.8
			c-0.1-0.1-0.3-0.1-0.4-0.2c0-0.1,0-0.3,0-0.4c-0.1-0.1-0.3-0.1-0.4-0.2c-0.1-0.3-0.1-0.5-0.2-0.8c-0.1-0.1-0.3-0.1-0.4-0.2
			c0-0.1,0-0.3,0-0.4c-0.1,0-0.1,0-0.2,0c0-0.1,0-0.3,0-0.4c-0.1-0.1-0.3-0.1-0.4-0.2c-0.1-0.2-0.1-0.4-0.2-0.6c-0.1,0-0.1,0-0.2,0
			c-0.1-0.3-0.1-0.5-0.2-0.8c-0.1-0.1-0.3-0.1-0.4-0.2c-0.1-0.2-0.1-0.4-0.2-0.6c-0.1,0-0.1,0-0.2,0c-0.1-0.3-0.1-0.5-0.2-0.8
			c-0.1-0.1-0.3-0.1-0.4-0.2c0-0.1,0-0.3,0-0.4c-0.1,0-0.1,0-0.2,0c0-0.1,0-0.3,0-0.4c-0.1-0.1-0.3-0.1-0.4-0.2
			c-0.1-0.2-0.1-0.4-0.2-0.6c-0.1,0-0.1,0-0.2,0c-0.1-0.3-0.1-0.5-0.2-0.8c-0.1-0.1-0.3-0.1-0.4-0.2c-0.1-0.2-0.1-0.4-0.2-0.6
			c-0.1,0-0.1,0-0.2,0c-0.1-0.3-0.1-0.5-0.2-0.8c-0.1-0.1-0.3-0.1-0.4-0.2c0-0.1,0-0.3,0-0.4c-0.1,0-0.1,0-0.2,0c0-0.1,0-0.3,0-0.4
			c-0.1-0.1-0.3-0.1-0.4-0.2c-0.1-0.2-0.1-0.4-0.2-0.6c-0.1,0-0.1,0-0.2,0c-0.1-0.3-0.1-0.5-0.2-0.8c-0.1-0.1-0.3-0.1-0.4-0.2
			c0-0.1,0-0.3,0-0.4c-0.1-0.1-0.3-0.1-0.4-0.2c-0.1-0.3-0.1-0.5-0.2-0.8c-0.1-0.1-0.3-0.1-0.4-0.2c-0.1-0.2-0.1-0.4-0.2-0.6
			c-0.1,0-0.1,0-0.2,0c-0.1-0.3-0.1-0.5-0.2-0.8c-0.1-0.1-0.3-0.1-0.4-0.2c0-0.1,0-0.3,0-0.4c-0.1,0-0.1,0-0.2,0c0-0.1,0-0.3,0-0.4
			c-0.1-0.1-0.3-0.1-0.4-0.2c-0.1-0.2-0.1-0.4-0.2-0.6c-0.1,0-0.1,0-0.2,0c-0.1-0.3-0.1-0.5-0.2-0.8c-0.1-0.1-0.3-0.1-0.4-0.2
			c-0.1-0.2-0.1-0.4-0.2-0.6c-0.1,0-0.1,0-0.2,0c-0.1-0.3-0.1-0.5-0.2-0.8c-0.1-0.1-0.3-0.1-0.4-0.2c0-0.1,0-0.3,0-0.4
			c-0.1,0-0.1,0-0.2,0c0-0.1,0-0.3,0-0.4c-0.1-0.1-0.3-0.1-0.4-0.2c-0.1-0.2-0.1-0.4-0.2-0.6c-0.1,0-0.1,0-0.2,0
			c-0.1-0.3-0.1-0.5-0.2-0.8c-0.1-0.1-0.3-0.1-0.4-0.2c0-0.1,0-0.3,0-0.4c-0.1-0.1-0.3-0.1-0.4-0.2c-0.1-0.3-0.1-0.5-0.2-0.8
			c-0.1-0.1-0.3-0.1-0.4-0.2c-0.1-0.2-0.1-0.4-0.2-0.6c-0.1,0-0.1,0-0.2,0c-0.1-0.3-0.1-0.5-0.2-0.8c-0.1-0.1-0.3-0.1-0.4-0.2
			c0-0.1,0-0.3,0-0.4c-0.1,0-0.1,0-0.2,0c0-0.1,0-0.3,0-0.4c-0.1-0.1-0.3-0.1-0.4-0.2c-0.1-0.2-0.1-0.4-0.2-0.6c-0.1,0-0.1,0-0.2,0
			c-0.1-0.3-0.1-0.5-0.2-0.8c-0.1-0.1-0.3-0.1-0.4-0.2c0-0.1,0-0.3,0-0.4c-0.1-0.1-0.3-0.1-0.4-0.2c-0.1-0.3-0.1-0.5-0.2-0.8
			c-0.1-0.1-0.3-0.1-0.4-0.2c0-0.1,0-0.3,0-0.4c-0.1,0-0.1,0-0.2,0c0-0.1,0-0.3,0-0.4c-0.1-0.1-0.3-0.1-0.4-0.2
			c-0.1-0.2-0.1-0.4-0.2-0.6c-0.1,0-0.1,0-0.2,0c-0.1-0.3-0.1-0.5-0.2-0.8c-0.1-0.1-0.3-0.1-0.4-0.2c-0.1-0.2-0.1-0.4-0.2-0.6
			c-0.1,0-0.1,0-0.2,0c-0.1-0.3-0.1-0.5-0.2-0.8c-0.1-0.1-0.3-0.1-0.4-0.2c0-0.1,0-0.3,0-0.4c-0.1-0.1-0.3-0.1-0.4-0.2
			c-0.1-0.3-0.1-0.5-0.2-0.8c-0.1-0.1-0.3-0.1-0.4-0.2c0-0.1,0-0.3,0-0.4c-0.1,0-0.1,0-0.2,0c0-0.1,0-0.3,0-0.4
			c-0.1-0.1-0.3-0.1-0.4-0.2c-0.1-0.2-0.1-0.4-0.2-0.6c-0.1,0-0.1,0-0.2,0c-0.1-0.3-0.1-0.5-0.2-0.8c-0.1-0.1-0.3-0.1-0.4-0.2
			c-0.1-0.2-0.1-0.4-0.2-0.6c-0.1,0-0.1,0-0.2,0c-0.1-0.3-0.1-0.5-0.2-0.8c-0.1-0.1-0.3-0.1-0.4-0.2c0-0.1,0-0.3,0-0.4
			c-0.1,0-0.1,0-0.2,0c0-0.1,0-0.3,0-0.4c-0.1-0.1-0.3-0.1-0.4-0.2c-0.1-0.2-0.1-0.4-0.2-0.6c-0.1,0-0.1,0-0.2,0
			c-0.1-0.3-0.1-0.5-0.2-0.8c-0.1-0.1-0.3-0.1-0.4-0.2c-0.1-0.2-0.1-0.4-0.2-0.6c-0.1,0-0.1,0-0.2,0c-0.1-0.3-0.1-0.5-0.2-0.8
			c-0.1-0.1-0.3-0.1-0.4-0.2c0-0.1,0-0.3,0-0.4c-0.1-0.1-0.3-0.1-0.4-0.2c-0.1-0.3-0.1-0.5-0.2-0.8c-0.1-0.1-0.3-0.1-0.4-0.2
			c0-0.1,0-0.3,0-0.4c-0.1,0-0.1,0-0.2,0c0-0.1,0-0.3,0-0.4c-0.1-0.1-0.3-0.1-0.4-0.2c0-0.1,0-0.3,0-0.4c-0.1,0-0.1,0-0.2,0
			c-0.1-0.2-0.1-0.4-0.2-0.6c16.1-25.4,32.1-50.8,48.2-76.2c0-0.1,0-0.1,0-0.2c-11.2,0-22.4,0-33.6,0
			C803.8,804.8,803.8,805,803.7,805.2z M707.7,900.6c0.5-1.7,0.7-3.8,1.2-5.6c0-0.5,0-0.9,0-1.4c0.1,0,0.1,0,0.2,0
			c0-0.5,0-1.1,0-1.6c0.1,0,0.1,0,0.2,0c0-0.6,0-1.2,0-1.8c0.1,0,0.1,0,0.2,0c0-0.8,0-1.6,0-2.4c0.1,0,0.1,0,0.2,0
			c0-1.3,0-2.5,0-3.8c0.7-2.3,0.1-6.1,0-8.4c-0.1-3.1-0.1-6.3-0.8-8.8c0-0.5,0-0.9,0-1.4c-0.1,0-0.1,0-0.2,0c0-0.5,0-0.9,0-1.4
			c-0.1,0-0.1,0-0.2,0c0-0.3,0-0.7,0-1c-0.1,0-0.1,0-0.2,0c-0.1-0.7-0.1-1.5-0.2-2.2c-0.1,0-0.1,0-0.2,0c0-0.3,0-0.7,0-1
			c-0.1,0-0.1,0-0.2,0c-0.1-0.6-0.1-1.2-0.2-1.8c-0.1,0-0.1,0-0.2,0c0-0.3,0-0.5,0-0.8c-0.1,0-0.1,0-0.2,0c0-0.3,0-0.5,0-0.8
			c-0.1,0-0.1,0-0.2,0c0-0.3,0-0.5,0-0.8c-0.1,0-0.1,0-0.2,0c0-0.3,0-0.5,0-0.8c-0.1,0-0.1,0-0.2,0c0-0.2,0-0.4,0-0.6
			c-0.1,0-0.1,0-0.2,0c-0.2-0.9-0.4-1.7-0.6-2.6c-0.1,0-0.1,0-0.2,0c0-0.2,0-0.4,0-0.6c-0.1,0-0.1,0-0.2,0c0-0.2,0-0.4,0-0.6
			c-0.1,0-0.1,0-0.2,0c0-0.2,0-0.4,0-0.6c-0.1,0-0.1,0-0.2,0c0-0.2,0-0.4,0-0.6c-0.1,0-0.1,0-0.2,0c-0.1-0.4-0.1-0.8-0.2-1.2
			c-0.1,0-0.1,0-0.2,0c0-0.1,0-0.3,0-0.4c-0.1,0-0.1,0-0.2,0c0-0.2,0-0.4,0-0.6c-0.1,0-0.1,0-0.2,0c0-0.1,0-0.3,0-0.4
			c-0.1,0-0.1,0-0.2,0c0-0.2,0-0.4,0-0.6c-0.1,0-0.1,0-0.2,0c0-0.1,0-0.3,0-0.4c-0.1,0-0.1,0-0.2,0c0-0.2,0-0.4,0-0.6
			c-0.1,0-0.1,0-0.2,0c-0.1-0.3-0.1-0.5-0.2-0.8c-0.1,0-0.1,0-0.2,0c0-0.2,0-0.4,0-0.6c-0.1,0-0.1,0-0.2,0c-0.1-0.4-0.3-0.8-0.4-1.2
			c-0.1,0-0.1,0-0.2,0c0-0.1,0-0.3,0-0.4c-0.1,0-0.1,0-0.2,0c-0.2-0.6-0.4-1.2-0.6-1.8c-0.1-0.1-0.3-0.1-0.4-0.2
			c-0.1-0.3-0.1-0.5-0.2-0.8c-0.1,0-0.1,0-0.2,0c0-0.1,0-0.3,0-0.4c-0.1,0-0.1,0-0.2,0c0-0.1,0-0.3,0-0.4c-0.1,0-0.1,0-0.2,0
			c0-0.1,0-0.3,0-0.4l-0.4-0.4c0-0.1,0-0.3,0-0.4c-0.1-0.1-0.3-0.1-0.4-0.2c-0.1-0.3-0.1-0.5-0.2-0.8c-0.1-0.1-0.3-0.1-0.4-0.2
			c-0.1-0.3-0.1-0.5-0.2-0.8c-0.1-0.1-0.3-0.1-0.4-0.2c-0.1-0.3-0.1-0.5-0.2-0.8c-0.1,0-0.1,0-0.2,0c-0.1-0.2-0.1-0.4-0.2-0.6
			c-0.1-0.1-0.3-0.1-0.4-0.2c0-0.1,0-0.3,0-0.4c-0.1-0.1-0.3-0.1-0.4-0.2c0-0.1,0-0.3,0-0.4c-0.1-0.1-0.3-0.1-0.4-0.2
			c0-0.1,0-0.3,0-0.4c-0.1,0-0.1,0-0.2,0c-0.1-0.2-0.1-0.4-0.2-0.6c-0.1-0.1-0.3-0.1-0.4-0.2c0-0.1,0-0.3,0-0.4
			c-0.2-0.1-0.4-0.3-0.6-0.4c0-0.1,0-0.3,0-0.4c-0.2-0.1-0.4-0.3-0.6-0.4c0-0.1,0-0.3,0-0.4c-0.2-0.1-0.4-0.3-0.6-0.4
			c0-0.1,0-0.3,0-0.4c-0.3-0.2-0.5-0.4-0.8-0.6c0-0.1,0-0.3,0-0.4c-0.2-0.1-0.4-0.3-0.6-0.4c0-0.1,0-0.1,0-0.2
			c-0.1-0.1-0.3-0.1-0.4-0.2c0-0.1,0-0.3,0-0.4c-0.4-0.3-0.8-0.7-1.2-1c0-0.1,0-0.3,0-0.4c-0.7-0.6-1.3-1.2-2-1.8
			c-1-1.1-2-2.1-3-3.2c-0.1,0-0.3,0-0.4,0c-0.4-0.5-0.8-0.9-1.2-1.4c-0.1,0-0.3,0-0.4,0c-0.3-0.3-0.5-0.7-0.8-1c-0.1,0-0.3,0-0.4,0
			c-0.2-0.3-0.4-0.5-0.6-0.8c-0.1,0-0.3,0-0.4,0c-0.1-0.2-0.3-0.4-0.4-0.6c-0.1,0-0.3,0-0.4,0c-0.1-0.2-0.3-0.4-0.4-0.6
			c-0.1,0-0.3,0-0.4,0c-0.1-0.1-0.1-0.3-0.2-0.4c-0.1,0-0.3,0-0.4,0c-0.1-0.2-0.3-0.4-0.4-0.6c-0.1,0-0.3,0-0.4,0
			c-0.1-0.1-0.1-0.3-0.2-0.4c-0.2-0.1-0.4-0.1-0.6-0.2c0-0.1,0-0.1,0-0.2c-0.1,0-0.3,0-0.4,0c-0.1-0.1-0.1-0.3-0.2-0.4
			c-0.2-0.1-0.4-0.1-0.6-0.2c0-0.1,0-0.1,0-0.2c-0.3-0.1-0.5-0.1-0.8-0.2c-0.1-0.1-0.1-0.3-0.2-0.4c-0.3-0.1-0.5-0.1-0.8-0.2
			c-0.1-0.1-0.1-0.3-0.2-0.4c-0.4-0.1-0.8-0.3-1.2-0.4c-0.1-0.1-0.1-0.3-0.2-0.4c-0.1,0-0.3,0-0.4,0l-0.4-0.4c-0.1,0-0.3,0-0.4,0
			c0-0.1,0-0.1,0-0.2c-0.1,0-0.3,0-0.4,0c0-0.1,0-0.1,0-0.2c-0.1,0-0.3,0-0.4,0c0-0.1,0-0.1,0-0.2c-0.1,0-0.3,0-0.4,0
			c0-0.1,0-0.1,0-0.2c-0.1,0-0.3,0-0.4,0c0-0.1,0-0.1,0-0.2c-0.1,0-0.3,0-0.4,0c0-0.1,0-0.1,0-0.2c-0.1,0-0.3,0-0.4,0
			c0-0.1,0-0.1,0-0.2c-0.3-0.1-0.5-0.1-0.8-0.2c0-0.1,0-0.1,0-0.2c-0.3-0.1-0.5-0.1-0.8-0.2c0-0.1,0-0.1,0-0.2c-0.1,0-0.3,0-0.4,0
			c0-0.1,0-0.1,0-0.2c-0.2,0-0.4,0-0.6,0c0-0.1,0-0.1,0-0.2c-0.3-0.1-0.5-0.1-0.8-0.2c0-0.1,0-0.1,0-0.2c-0.2,0-0.4,0-0.6,0
			c0-0.1,0-0.1,0-0.2c-0.1,0-0.3,0-0.4,0c0-0.1,0-0.1,0-0.2c-0.2,0-0.4,0-0.6,0c0-0.1,0-0.1,0-0.2c-0.1,0-0.3,0-0.4,0
			c0-0.1,0-0.1,0-0.2c-2-0.7-4-1.3-6-2c-0.3,0-0.5,0-0.8,0c0-0.1,0-0.1,0-0.2c-0.2,0-0.4,0-0.6,0c0-0.1,0-0.1,0-0.2
			c-0.3,0-0.5,0-0.8,0c0-0.1,0-0.1,0-0.2c-0.3,0-0.5,0-0.8,0c0-0.1,0-0.1,0-0.2c-0.3,0-0.5,0-0.8,0c0-0.1,0-0.1,0-0.2
			c-0.3,0-0.7,0-1,0c0-0.1,0-0.1,0-0.2c-0.7-0.1-1.3-0.1-2-0.2c-1-0.3-2.4-0.5-3.4-0.8c-0.5,0-1.1,0-1.6,0c0-0.1,0-0.1,0-0.2
			c-0.6,0-1.2,0-1.8,0c-1.1-0.3-2.6-0.4-4-0.4c-0.7,0-1.3,0-2,0c-1.4-0.4-3.7-0.2-5.4-0.2c-0.4,0.4-1.8,0.2-2.6,0.2
			c-1.7,0.1-3.5,0.3-5.2,0.4c-1.2,0.3-2.8,0.5-4,0.8c-0.4,0-0.8,0-1.2,0c0,0.1,0,0.1,0,0.2c-0.3,0-0.7,0-1,0c0,0.1,0,0.1,0,0.2
			c-0.3,0-0.5,0-0.8,0c0,0.1,0,0.1,0,0.2c-0.3,0-0.7,0-1,0c0,0.1,0,0.1,0,0.2c-0.8,0.1-1.6,0.3-2.4,0.4c0,0.1,0,0.1,0,0.2
			c-0.3,0-0.5,0-0.8,0c0,0.1,0,0.1,0,0.2c-0.7,0.1-1.3,0.3-2,0.4c0,0.1,0,0.1,0,0.2c-0.2,0-0.4,0-0.6,0c0,0.1,0,0.1,0,0.2
			c-0.2,0-0.4,0-0.6,0c0,0.1,0,0.1,0,0.2c-0.2,0-0.4,0-0.6,0c0,0.1,0,0.1,0,0.2c-0.6,0.1-1.2,0.3-1.8,0.4c0,0.1,0,0.1,0,0.2
			c-0.1,0-0.3,0-0.4,0c0,0.1,0,0.1,0,0.2c-0.2,0-0.4,0-0.6,0c0,0.1,0,0.1,0,0.2c-0.3,0.1-0.7,0.1-1,0.2c0,0.1,0,0.1,0,0.2
			c-0.1,0-0.3,0-0.4,0c0,0.1,0,0.1,0,0.2c-0.2,0-0.4,0-0.6,0c0,0.1,0,0.1,0,0.2c-0.3,0.1-0.5,0.1-0.8,0.2c0,0.1,0,0.1,0,0.2
			c-0.2,0-0.4,0-0.6,0c0,0.1,0,0.1,0,0.2c-0.4,0.1-0.8,0.3-1.2,0.4c0,0.1,0,0.1,0,0.2c-0.1,0-0.3,0-0.4,0c0,0.1,0,0.1,0,0.2
			c-0.1,0-0.3,0-0.4,0c0,0.1,0,0.1,0,0.2c-0.1,0-0.3,0-0.4,0c0,0.1,0,0.1,0,0.2c-0.2,0-0.4,0-0.6,0c-0.1,0.1-0.1,0.3-0.2,0.4
			c-0.1,0-0.3,0-0.4,0c0,0.1,0,0.1,0,0.2c-0.1,0-0.3,0-0.4,0c0,0.1,0,0.1,0,0.2c-0.1,0-0.3,0-0.4,0c0,0.1,0,0.1,0,0.2
			c-0.1,0-0.3,0-0.4,0c0,0.1,0,0.1,0,0.2c-0.1,0-0.3,0-0.4,0l-0.4,0.4c-0.1,0-0.3,0-0.4,0c-0.1,0.1-0.1,0.3-0.2,0.4
			c-0.3,0.1-0.5,0.1-0.8,0.2c-0.1,0.1-0.1,0.3-0.2,0.4c-0.3,0.1-0.5,0.1-0.8,0.2c-0.1,0.1-0.1,0.3-0.2,0.4c-0.3,0.1-0.5,0.1-0.8,0.2
			c-0.1,0.1-0.1,0.3-0.2,0.4c-0.1,0-0.3,0-0.4,0c-0.1,0.1-0.1,0.3-0.2,0.4c-0.1,0-0.3,0-0.4,0c-0.1,0.1-0.1,0.3-0.2,0.4
			c-0.1,0-0.3,0-0.4,0c-0.1,0.1-0.1,0.3-0.2,0.4c-0.1,0-0.3,0-0.4,0c-0.1,0.1-0.1,0.3-0.2,0.4c-0.1,0-0.3,0-0.4,0
			c-0.1,0.2-0.3,0.4-0.4,0.6c-0.1,0-0.3,0-0.4,0c-0.1,0.2-0.3,0.4-0.4,0.6c-0.1,0-0.3,0-0.4,0c-0.1,0.2-0.3,0.4-0.4,0.6
			c-0.1,0-0.3,0-0.4,0c-0.2,0.3-0.4,0.5-0.6,0.8c-0.1,0-0.3,0-0.4,0c-0.3,0.3-0.5,0.7-0.8,1c-0.1,0-0.3,0-0.4,0
			c-0.3,0.4-0.7,0.8-1,1.2c-0.1,0-0.3,0-0.4,0c-1.1,1.1-2.1,2.3-3.2,3.4c-0.7,0.6-1.3,1.2-2,1.8c0,0.1,0,0.3,0,0.4
			c-0.5,0.4-0.9,0.8-1.4,1.2c0,0.1,0,0.3,0,0.4c-0.3,0.2-0.5,0.4-0.8,0.6c0,0.1,0,0.3,0,0.4c-0.3,0.2-0.5,0.4-0.8,0.6
			c0,0.1,0,0.3,0,0.4c-0.2,0.1-0.4,0.3-0.6,0.4c0,0.1,0,0.3,0,0.4c-0.2,0.1-0.4,0.3-0.6,0.4c0,0.1,0,0.3,0,0.4
			c-0.2,0.1-0.4,0.3-0.6,0.4c0,0.1,0,0.3,0,0.4c-0.1,0.1-0.3,0.1-0.4,0.2c-0.1,0.2-0.1,0.4-0.2,0.6c-0.1,0-0.1,0-0.2,0
			c0,0.1,0,0.3,0,0.4c-0.2,0.1-0.4,0.3-0.6,0.4c-0.1,0.3-0.1,0.5-0.2,0.8c-0.1,0.1-0.3,0.1-0.4,0.2c0,0.1,0,0.3,0,0.4
			c-0.1,0.1-0.3,0.1-0.4,0.2c0,0.1,0,0.3,0,0.4c-0.1,0.1-0.3,0.1-0.4,0.2c0,0.1,0,0.3,0,0.4c-0.1,0-0.1,0-0.2,0c0,0.1,0,0.3,0,0.4
			c-0.1,0.1-0.3,0.1-0.4,0.2c-0.1,0.4-0.3,0.8-0.4,1.2c-0.1,0.1-0.3,0.1-0.4,0.2c0,0.1,0,0.3,0,0.4l-0.4,0.4c0,0.1,0,0.3,0,0.4
			c-0.1,0-0.1,0-0.2,0c0,0.1,0,0.3,0,0.4c-0.1,0-0.1,0-0.2,0c0,0.1,0,0.3,0,0.4c-0.1,0.1-0.3,0.1-0.4,0.2c-0.1,0.3-0.1,0.5-0.2,0.8
			c-0.1,0-0.1,0-0.2,0c-0.1,0.4-0.3,0.8-0.4,1.2c-0.1,0-0.1,0-0.2,0c0,0.2,0,0.4,0,0.6c-0.1,0-0.1,0-0.2,0c0,0.1,0,0.3,0,0.4
			c-0.1,0-0.1,0-0.2,0c0,0.1,0,0.3,0,0.4c-0.1,0-0.1,0-0.2,0c-0.1,0.4-0.3,0.8-0.4,1.2c-0.1,0-0.1,0-0.2,0c0,0.2,0,0.4,0,0.6
			c-0.1,0-0.1,0-0.2,0c0,0.1,0,0.3,0,0.4c-0.1,0-0.1,0-0.2,0c0,0.2,0,0.4,0,0.6c-0.1,0-0.1,0-0.2,0c-0.1,0.3-0.1,0.5-0.2,0.8
			c-0.1,0-0.1,0-0.2,0c-0.9,2.8-1.9,5.6-2.8,8.4c-0.1,0.5-0.1,1.1-0.2,1.6c-0.7,1.9-1,4.4-1.6,6.4c0,0.4,0,0.8,0,1.2
			c-0.4,1.2-0.4,3-0.8,4.2c0,0.7,0,1.3,0,2c-0.3,1-0.4,2.5-0.4,3.8c0,0.7,0,1.3,0,2c-0.4,1.5-0.4,6.9,0,8.4c0,1.2,0,2.4,0,3.6
			c0.1,0,0.1,0,0.2,0c0,0.8,0,1.6,0,2.4c0.5,1.8,0.5,4.2,1,6c0.1,1.1,0.3,2.3,0.4,3.4c0.1,0,0.1,0,0.2,0c0,0.3,0,0.5,0,0.8
			c0.1,0,0.1,0,0.2,0c0.1,0.6,0.1,1.2,0.2,1.8c0.1,0,0.1,0,0.2,0c0.1,0.6,0.1,1.2,0.2,1.8c0.1,0,0.1,0,0.2,0
			c0.1,0.7,0.3,1.5,0.4,2.2c0.1,0,0.1,0,0.2,0c0.1,0.7,0.3,1.3,0.4,2c0.1,0,0.1,0,0.2,0c0,0.2,0,0.4,0,0.6c0.1,0,0.1,0,0.2,0
			c0,0.2,0,0.4,0,0.6c0.1,0,0.1,0,0.2,0c0,0.2,0,0.4,0,0.6c0.1,0,0.1,0,0.2,0c0.1,0.4,0.1,0.8,0.2,1.2c0.1,0,0.1,0,0.2,0
			c0,0.1,0,0.3,0,0.4c0.1,0,0.1,0,0.2,0c0.1,0.4,0.1,0.8,0.2,1.2c0.1,0,0.1,0,0.2,0c0,0.1,0,0.3,0,0.4c0.1,0,0.1,0,0.2,0
			c0,0.2,0,0.4,0,0.6c0.1,0,0.1,0,0.2,0c0.1,0.3,0.1,0.7,0.2,1c0.1,0,0.1,0,0.2,0c0,0.1,0,0.3,0,0.4c0.1,0,0.1,0,0.2,0
			c0,0.2,0,0.4,0,0.6c0.1,0,0.1,0,0.2,0c0.1,0.3,0.1,0.5,0.2,0.8c0.1,0,0.1,0,0.2,0c0.1,0.3,0.1,0.7,0.2,1c0.1,0,0.1,0,0.2,0
			c0.1,0.4,0.3,0.8,0.4,1.2c0.1,0,0.1,0,0.2,0c0,0.1,0,0.3,0,0.4c0.1,0,0.1,0,0.2,0c0,0.1,0,0.3,0,0.4c0.1,0,0.1,0,0.2,0
			c0,0.1,0,0.3,0,0.4c0.1,0,0.1,0,0.2,0c0,0.1,0,0.3,0,0.4c0.1,0,0.1,0,0.2,0c0,0.1,0,0.3,0,0.4c0.1,0,0.1,0,0.2,0
			c0,0.1,0,0.3,0,0.4l0.4,0.4c0,0.1,0,0.3,0,0.4c0.1,0.1,0.3,0.1,0.4,0.2c0.1,0.4,0.3,0.8,0.4,1.2c0.1,0.1,0.3,0.1,0.4,0.2
			c0.1,0.4,0.3,0.8,0.4,1.2c0.1,0.1,0.3,0.1,0.4,0.2c0,0.1,0,0.3,0,0.4c0.1,0,0.1,0,0.2,0c0,0.1,0,0.3,0,0.4c0.1,0,0.1,0,0.2,0
			c0.1,0.2,0.1,0.4,0.2,0.6c0.1,0.1,0.3,0.1,0.4,0.2c0,0.1,0,0.3,0,0.4c0.1,0.1,0.3,0.1,0.4,0.2c0,0.1,0,0.3,0,0.4
			c0.1,0.1,0.3,0.1,0.4,0.2c0,0.1,0,0.3,0,0.4c0.1,0,0.1,0,0.2,0c0.1,0.2,0.1,0.4,0.2,0.6c0.1,0.1,0.3,0.1,0.4,0.2
			c0,0.1,0,0.3,0,0.4c0.2,0.1,0.4,0.3,0.6,0.4c0,0.1,0,0.3,0,0.4c0.2,0.1,0.4,0.3,0.6,0.4c0,0.1,0,0.3,0,0.4
			c0.2,0.1,0.4,0.3,0.6,0.4c0,0.1,0,0.3,0,0.4c0.2,0.1,0.4,0.3,0.6,0.4c0,0.1,0,0.3,0,0.4c0.3,0.3,0.7,0.5,1,0.8c0,0.1,0,0.3,0,0.4
			c0.3,0.3,0.7,0.5,1,0.8c0,0.1,0,0.3,0,0.4c0.7,0.7,1.5,1.3,2.2,2c0,0.1,0,0.3,0,0.4c0.5,0.4,0.9,0.8,1.4,1.2
			c0.1,0.2,0.3,0.4,0.4,0.6c0.1,0,0.3,0,0.4,0c0.7,0.7,1.3,1.5,2,2.2c0.1,0,0.3,0,0.4,0c0.3,0.3,0.5,0.7,0.8,1c0.1,0,0.3,0,0.4,0
			c0.3,0.3,0.5,0.7,0.8,1c0.1,0,0.3,0,0.4,0c0.1,0.2,0.3,0.4,0.4,0.6c0.1,0,0.3,0,0.4,0c0.1,0.2,0.3,0.4,0.4,0.6c0.1,0,0.3,0,0.4,0
			c0.1,0.2,0.3,0.4,0.4,0.6c0.1,0,0.3,0,0.4,0c0.1,0.2,0.3,0.4,0.4,0.6c0.1,0,0.3,0,0.4,0c0.1,0.1,0.1,0.3,0.2,0.4
			c0.1,0,0.3,0,0.4,0c0.1,0.1,0.1,0.3,0.2,0.4c0.2,0.1,0.4,0.1,0.6,0.2c0,0.1,0,0.1,0,0.2c0.1,0,0.3,0,0.4,0
			c0.1,0.1,0.1,0.3,0.2,0.4c0.1,0,0.3,0,0.4,0c0.1,0.1,0.1,0.3,0.2,0.4c0.3,0.1,0.5,0.1,0.8,0.2c0.1,0.1,0.1,0.3,0.2,0.4
			c0.3,0.1,0.5,0.1,0.8,0.2c0.1,0.1,0.1,0.3,0.2,0.4c0.4,0.1,0.8,0.3,1.2,0.4c0.1,0.1,0.1,0.3,0.2,0.4c0.1,0,0.3,0,0.4,0l0.4,0.4
			c0.1,0,0.3,0,0.4,0c0,0.1,0,0.1,0,0.2c0.1,0,0.3,0,0.4,0c0,0.1,0,0.1,0,0.2c0.1,0,0.3,0,0.4,0c0,0.1,0,0.1,0,0.2
			c0.1,0,0.3,0,0.4,0c0,0.1,0,0.1,0,0.2c0.1,0,0.3,0,0.4,0c0,0.1,0,0.1,0,0.2c0.1,0,0.3,0,0.4,0c0,0.1,0,0.1,0,0.2
			c0.1,0,0.3,0,0.4,0c0,0.1,0,0.1,0,0.2c0.4,0.1,0.8,0.3,1.2,0.4c0,0.1,0,0.1,0,0.2c0.2,0,0.4,0,0.6,0c0,0.1,0,0.1,0,0.2
			c0.1,0,0.3,0,0.4,0c0,0.1,0,0.1,0,0.2c0.3,0.1,0.5,0.1,0.8,0.2c0,0.1,0,0.1,0,0.2c0.2,0,0.4,0,0.6,0c0,0.1,0,0.1,0,0.2
			c0.1,0,0.3,0,0.4,0c0,0.1,0,0.1,0,0.2c0.2,0,0.4,0,0.6,0c0,0.1,0,0.1,0,0.2c0.1,0,0.3,0,0.4,0c0,0.1,0,0.1,0,0.2
			c0.4,0.1,0.8,0.1,1.2,0.2c0,0.1,0,0.1,0,0.2c0.1,0,0.3,0,0.4,0c0,0.1,0,0.1,0,0.2c0.4,0.1,0.8,0.1,1.2,0.2c0,0.1,0,0.1,0,0.2
			c0.2,0,0.4,0,0.6,0c0,0.1,0,0.1,0,0.2c0.2,0,0.4,0,0.6,0c0,0.1,0,0.1,0,0.2c0.2,0,0.4,0,0.6,0c0,0.1,0,0.1,0,0.2
			c0.2,0,0.4,0,0.6,0c0,0.1,0,0.1,0,0.2c0.3,0,0.5,0,0.8,0c0,0.1,0,0.1,0,0.2c0.2,0,0.4,0,0.6,0c0,0.1,0,0.1,0,0.2
			c0.3,0,0.5,0,0.8,0c0,0.1,0,0.1,0,0.2c0.3,0,0.5,0,0.8,0c0,0.1,0,0.1,0,0.2c0.3,0,0.5,0,0.8,0c0,0.1,0,0.1,0,0.2
			c0.3,0,0.5,0,0.8,0c0,0.1,0,0.1,0,0.2c0.3,0,0.5,0,0.8,0c0,0.1,0,0.1,0,0.2c0.7,0.1,1.3,0.1,2,0.2c0,0.1,0,0.1,0,0.2
			c0.3,0,0.7,0,1,0c1.6,0.5,3.8,0.5,5.4,1c0.7,0,1.5,0,2.2,0c0,0.1,0,0.1,0,0.2c1,0,2,0,3,0c1.3,0.4,3.5,0.2,5.2,0.2
			c1.1,0,2.3,0,3.4,0c0-0.1,0-0.1,0-0.2c1,0,2,0,3,0c0-0.1,0-0.1,0-0.2c0.7,0,1.3,0,2,0c0-0.1,0-0.1,0-0.2c0.6,0,1.2,0,1.8,0
			c0-0.1,0-0.1,0-0.2c0.5,0,0.9,0,1.4,0c0-0.1,0-0.1,0-0.2c0.4,0,0.8,0,1.2,0c0-0.1,0-0.1,0-0.2c0.4,0,0.8,0,1.2,0
			c0-0.1,0-0.1,0-0.2c0.3,0,0.7,0,1,0c0-0.1,0-0.1,0-0.2c0.3,0,0.7,0,1,0c0-0.1,0-0.1,0-0.2c0.3,0,0.7,0,1,0c0-0.1,0-0.1,0-0.2
			c0.8-0.1,1.6-0.3,2.4-0.4c0-0.1,0-0.1,0-0.2c0.5-0.1,1.1-0.1,1.6-0.2c0-0.1,0-0.1,0-0.2c0.5-0.1,0.9-0.1,1.4-0.2
			c0-0.1,0-0.1,0-0.2c0.2,0,0.4,0,0.6,0c0-0.1,0-0.1,0-0.2c0.2,0,0.4,0,0.6,0c0-0.1,0-0.1,0-0.2c0.2,0,0.4,0,0.6,0
			c0-0.1,0-0.1,0-0.2c0.6-0.1,1.2-0.3,1.8-0.4c0-0.1,0-0.1,0-0.2c0.1,0,0.3,0,0.4,0c0-0.1,0-0.1,0-0.2c0.4-0.1,0.8-0.1,1.2-0.2
			c0-0.1,0-0.1,0-0.2c0.3-0.1,0.7-0.1,1-0.2c0-0.1,0-0.1,0-0.2c0.1,0,0.3,0,0.4,0c0-0.1,0-0.1,0-0.2c0.2,0,0.4,0,0.6,0
			c0-0.1,0-0.1,0-0.2c0.3-0.1,0.5-0.1,0.8-0.2c0-0.1,0-0.1,0-0.2c0.3-0.1,0.7-0.1,1-0.2c0-0.1,0-0.1,0-0.2c0.4-0.1,0.8-0.3,1.2-0.4
			c0-0.1,0-0.1,0-0.2c0.1,0,0.3,0,0.4,0c0-0.1,0-0.1,0-0.2c0.1,0,0.3,0,0.4,0c0-0.1,0-0.1,0-0.2c0.1,0,0.3,0,0.4,0
			c0-0.1,0-0.1,0-0.2c0.1,0,0.3,0,0.4,0c0-0.1,0-0.1,0-0.2c0.1,0,0.3,0,0.4,0c0-0.1,0-0.1,0-0.2c0.1,0,0.3,0,0.4,0
			c0-0.1,0-0.1,0-0.2c0.1,0,0.3,0,0.4,0l0.4-0.4c0.1,0,0.3,0,0.4,0c0.1-0.1,0.1-0.3,0.2-0.4c0.4-0.1,0.8-0.3,1.2-0.4
			c0.1-0.1,0.1-0.3,0.2-0.4c0.1,0,0.3,0,0.4,0c0-0.1,0-0.1,0-0.2c0.1,0,0.3,0,0.4,0c0.1-0.1,0.1-0.3,0.2-0.4c0.1,0,0.3,0,0.4,0
			c0.1-0.1,0.1-0.3,0.2-0.4c0.3-0.1,0.5-0.1,0.8-0.2c0.1-0.1,0.1-0.3,0.2-0.4c0.1,0,0.3,0,0.4,0c0.1-0.1,0.1-0.3,0.2-0.4
			c0.1,0,0.3,0,0.4,0c0.1-0.1,0.1-0.3,0.2-0.4c0.1,0,0.3,0,0.4,0c0.1-0.1,0.1-0.3,0.2-0.4c0.1,0,0.3,0,0.4,0
			c0.1-0.1,0.1-0.3,0.2-0.4c0.2-0.1,0.4-0.1,0.6-0.2c0.1-0.2,0.3-0.4,0.4-0.6c10.4-7.4,17.7-17.5,23.2-29.8c0-0.2,0-0.4,0-0.6
			c0.1,0,0.1,0,0.2,0c0-0.1,0-0.3,0-0.4c0.1,0,0.1,0,0.2,0c0-0.2,0-0.4,0-0.6c0.1,0,0.1,0,0.2,0c0-0.1,0-0.3,0-0.4
			c0.1,0,0.1,0,0.2,0c0.1-0.6,0.3-1.2,0.4-1.8c0.1,0,0.1,0,0.2,0c0-0.1,0-0.3,0-0.4c0.1,0,0.1,0,0.2,0c0.9-3.1,1.7-6.1,2.6-9.2
			C707.7,901.3,707.7,901,707.7,900.6z M678.7,881.8c0,0.7,0,1.5,0,2.2c-0.1,0-0.1,0-0.2,0c0,1.1,0,2.3,0,3.4c-0.1,0-0.1,0-0.2,0
			c0,0.7,0,1.5,0,2.2c-0.1,0-0.1,0-0.2,0c0,0.6,0,1.2,0,1.8c-0.1,0-0.1,0-0.2,0c0,0.5,0,1.1,0,1.6c-0.1,0-0.1,0-0.2,0
			c0,0.4,0,0.8,0,1.2c-0.1,0-0.1,0-0.2,0c0,0.4,0,0.8,0,1.2c-0.1,0-0.1,0-0.2,0c0,0.4,0,0.8,0,1.2c-0.1,0-0.1,0-0.2,0
			c0,0.3,0,0.7,0,1c-0.1,0-0.1,0-0.2,0c0,0.3,0,0.5,0,0.8c-0.1,0-0.1,0-0.2,0c0,0.3,0,0.7,0,1c-0.7,2.5-1.5,4.9-2.2,7.4
			c-0.1,0-0.1,0-0.2,0c0,0.1,0,0.3,0,0.4c-0.1,0-0.1,0-0.2,0c0,0.2,0,0.4,0,0.6c-0.1,0-0.1,0-0.2,0c0,0.1,0,0.3,0,0.4
			c-0.1,0-0.1,0-0.2,0c0,0.2,0,0.4,0,0.6c-0.1,0-0.1,0-0.2,0c0,0.1,0,0.3,0,0.4c-0.1,0-0.1,0-0.2,0c0,0.2,0,0.4,0,0.6
			c-0.1,0-0.1,0-0.2,0c-0.1,0.4-0.3,0.8-0.4,1.2c-0.1,0-0.1,0-0.2,0c0,0.1,0,0.3,0,0.4c-0.1,0-0.1,0-0.2,0c0,0.1,0,0.3,0,0.4
			c-0.1,0-0.1,0-0.2,0c0,0.1,0,0.3,0,0.4c-0.1,0-0.1,0-0.2,0c0,0.1,0,0.3,0,0.4c-0.1,0-0.1,0-0.2,0c0,0.1,0,0.3,0,0.4
			c-0.1,0-0.1,0-0.2,0c0,0.1,0,0.3,0,0.4c-0.1,0-0.1,0-0.2,0c0,0.1,0,0.3,0,0.4l-0.4,0.4c0,0.1,0,0.3,0,0.4
			c-0.1,0.1-0.3,0.1-0.4,0.2c-0.1,0.3-0.1,0.5-0.2,0.8c-0.1,0.1-0.3,0.1-0.4,0.2c0,0.1,0,0.3,0,0.4c-0.1,0.1-0.3,0.1-0.4,0.2
			c0,0.1,0,0.3,0,0.4c-0.1,0.1-0.3,0.1-0.4,0.2c0,0.1,0,0.3,0,0.4c-0.1,0-0.1,0-0.2,0c-0.1,0.2-0.1,0.4-0.2,0.6
			c-0.1,0.1-0.3,0.1-0.4,0.2c0,0.1,0,0.3,0,0.4c-0.1,0.1-0.3,0.1-0.4,0.2c-0.1,0.2-0.1,0.4-0.2,0.6c-0.3,0.2-0.5,0.4-0.8,0.6
			c-3.9,5.4-9.3,9-15.8,11.8c-0.4,0.1-0.8,0.1-1.2,0.2c0,0.1,0,0.1,0,0.2c-0.2,0-0.4,0-0.6,0c0,0.1,0,0.1,0,0.2c-0.2,0-0.4,0-0.6,0
			c0,0.1,0,0.1,0,0.2c-0.5,0.1-0.9,0.1-1.4,0.2c0,0.1,0,0.1,0,0.2c-0.5,0.1-1.1,0.1-1.6,0.2c0,0.1,0,0.1,0,0.2c-0.3,0-0.7,0-1,0
			c0,0.1,0,0.1,0,0.2c-0.4,0-0.8,0-1.2,0c0,0.1,0,0.1,0,0.2c-0.4,0-0.8,0-1.2,0c0,0.1,0,0.1,0,0.2c-0.5,0-1.1,0-1.6,0
			c0,0.1,0,0.1,0,0.2c-0.9,0-1.7,0-2.6,0c0,0.1,0,0.1,0,0.2c-0.9,0.3-4.4,0-5-0.2c-0.9,0-1.7,0-2.6,0c0-0.1,0-0.1,0-0.2
			c-0.5,0-1.1,0-1.6,0c0-0.1,0-0.1,0-0.2c-0.4,0-0.8,0-1.2,0c0-0.1,0-0.1,0-0.2c-0.4,0-0.8,0-1.2,0c0-0.1,0-0.1,0-0.2
			c-0.3,0-0.7,0-1,0c-2.1-0.7-4.3-1.3-6.4-2c0-0.1,0-0.1,0-0.2c-0.1,0-0.3,0-0.4,0c0-0.1,0-0.1,0-0.2c-0.2,0-0.4,0-0.6,0
			c0-0.1,0-0.1,0-0.2c-0.4-0.1-0.8-0.3-1.2-0.4c0-0.1,0-0.1,0-0.2c-0.1,0-0.3,0-0.4,0c0-0.1,0-0.1,0-0.2c-0.1,0-0.3,0-0.4,0
			c0-0.1,0-0.1,0-0.2c-0.1,0-0.3,0-0.4,0l-0.4-0.4c-0.1,0-0.3,0-0.4,0c-0.1-0.1-0.1-0.3-0.2-0.4c-0.3-0.1-0.5-0.1-0.8-0.2
			c-0.1-0.1-0.1-0.3-0.2-0.4c-0.1,0-0.3,0-0.4,0c0-0.1,0-0.1,0-0.2c-0.1,0-0.3,0-0.4,0c-0.1-0.1-0.1-0.3-0.2-0.4c-0.1,0-0.3,0-0.4,0
			c-0.1-0.2-0.3-0.4-0.4-0.6c-0.1,0-0.3,0-0.4,0c-0.1-0.1-0.1-0.3-0.2-0.4c-0.1,0-0.3,0-0.4,0c-0.2-0.3-0.4-0.5-0.6-0.8
			c-0.1,0-0.3,0-0.4,0c-0.3-0.3-0.5-0.7-0.8-1c-0.1,0-0.3,0-0.4,0c-0.5-0.6-1.1-1.2-1.6-1.8c-0.7-0.6-1.3-1.2-2-1.8
			c0-0.1,0-0.3,0-0.4c-0.3-0.3-0.7-0.5-1-0.8c0-0.1,0-0.3,0-0.4c-0.2-0.1-0.4-0.3-0.6-0.4c0-0.1,0-0.3,0-0.4
			c-0.2-0.1-0.4-0.3-0.6-0.4c0-0.1,0-0.3,0-0.4c-0.2-0.1-0.4-0.3-0.6-0.4c0-0.1,0-0.3,0-0.4c-0.1-0.1-0.3-0.1-0.4-0.2
			c0-0.1,0-0.3,0-0.4c-0.1-0.1-0.3-0.1-0.4-0.2c-0.1-0.3-0.1-0.5-0.2-0.8c-0.1-0.1-0.3-0.1-0.4-0.2c-0.1-0.3-0.1-0.5-0.2-0.8
			c-0.1-0.1-0.3-0.1-0.4-0.2c0-0.1,0-0.3,0-0.4l-0.4-0.4c0-0.1,0-0.3,0-0.4c-0.1,0-0.1,0-0.2,0c0-0.1,0-0.3,0-0.4
			c-0.1-0.1-0.3-0.1-0.4-0.2c-0.2-0.6-0.4-1.2-0.6-1.8c-0.1,0-0.1,0-0.2,0c0-0.1,0-0.3,0-0.4c-0.1,0-0.1,0-0.2,0
			c-0.1-0.3-0.1-0.5-0.2-0.8c-0.1,0-0.1,0-0.2,0c0-0.2,0-0.4,0-0.6c-0.1,0-0.1,0-0.2,0c-0.1-0.3-0.1-0.5-0.2-0.8c-0.1,0-0.1,0-0.2,0
			c0-0.2,0-0.4,0-0.6c-0.1,0-0.1,0-0.2,0c0-0.1,0-0.3,0-0.4c-0.1,0-0.1,0-0.2,0c-0.1-0.4-0.1-0.8-0.2-1.2c-0.1,0-0.1,0-0.2,0
			c0-0.2,0-0.4,0-0.6c-0.1,0-0.1,0-0.2,0c0-0.2,0-0.4,0-0.6c-0.1,0-0.1,0-0.2,0c0-0.2,0-0.4,0-0.6c-0.1,0-0.1,0-0.2,0
			c0-0.2,0-0.4,0-0.6c-0.1,0-0.1,0-0.2,0c0-0.2,0-0.4,0-0.6c-0.1,0-0.1,0-0.2,0c-0.7-2.9-1.3-5.9-2-8.8c-0.1-1.5-0.3-3.1-0.4-4.6
			c-0.3-0.9-0.4-2.5-0.4-3.6c0-0.7,0-1.3,0-2c-0.4-1.6-0.4-6.4,0-8c0-1.1,0-2.3,0-3.4c0.1,0,0.1,0,0.2,0c0-0.7,0-1.5,0-2.2
			c0.1,0,0.1,0,0.2,0c0-0.5,0-1.1,0-1.6c0.1,0,0.1,0,0.2,0c0.2-1.7,0.4-3.5,0.6-5.2c0.1,0,0.1,0,0.2,0c0-0.3,0-0.7,0-1
			c0.1,0,0.1,0,0.2,0c0-0.3,0-0.5,0-0.8c0.1,0,0.1,0,0.2,0c0-0.3,0-0.7,0-1c0.1,0,0.1,0,0.2,0c0.1-0.8,0.3-1.6,0.4-2.4
			c0.1,0,0.1,0,0.2,0c0.1-0.7,0.3-1.3,0.4-2c0.1,0,0.1,0,0.2,0c0-0.2,0-0.4,0-0.6c0.1,0,0.1,0,0.2,0c0-0.2,0-0.4,0-0.6
			c0.1,0,0.1,0,0.2,0c0.1-0.6,0.3-1.2,0.4-1.8c0.1,0,0.1,0,0.2,0c0-0.1,0-0.3,0-0.4c0.1,0,0.1,0,0.2,0c0-0.2,0-0.4,0-0.6
			c0.1,0,0.1,0,0.2,0c0-0.1,0-0.3,0-0.4c0.1,0,0.1,0,0.2,0c0-0.2,0-0.4,0-0.6c0.1,0,0.1,0,0.2,0c0.1-0.3,0.1-0.5,0.2-0.8
			c0.1,0,0.1,0,0.2,0c0-0.2,0-0.4,0-0.6c0.1,0,0.1,0,0.2,0c0.1-0.4,0.3-0.8,0.4-1.2c0.1,0,0.1,0,0.2,0c0-0.1,0-0.3,0-0.4
			c0.1,0,0.1,0,0.2,0c0-0.1,0-0.3,0-0.4c0.1,0,0.1,0,0.2,0c0-0.1,0-0.3,0-0.4c0.1,0,0.1,0,0.2,0c0-0.1,0-0.3,0-0.4
			c0.1,0,0.1,0,0.2,0c0-0.1,0-0.3,0-0.4l0.4-0.4c0-0.1,0-0.3,0-0.4c0.1-0.1,0.3-0.1,0.4-0.2c0.1-0.3,0.1-0.5,0.2-0.8
			c0.1-0.1,0.3-0.1,0.4-0.2c0.1-0.3,0.1-0.5,0.2-0.8c0.1-0.1,0.3-0.1,0.4-0.2c0-0.1,0-0.3,0-0.4c0.1,0,0.1,0,0.2,0
			c0.1-0.2,0.1-0.4,0.2-0.6c0.1-0.1,0.3-0.1,0.4-0.2c0-0.1,0-0.3,0-0.4c0.2-0.1,0.4-0.3,0.6-0.4c0-0.1,0-0.3,0-0.4
			c0.1-0.1,0.3-0.1,0.4-0.2c0.1-0.2,0.1-0.4,0.2-0.6c0.3-0.2,0.5-0.4,0.8-0.6c0-0.1,0-0.3,0-0.4c0.4-0.3,0.8-0.7,1.2-1
			c0-0.1,0-0.3,0-0.4c0.3-0.2,0.5-0.4,0.8-0.6c0.5-0.6,1.1-1.2,1.6-1.8c0.1,0,0.3,0,0.4,0c0.4-0.5,0.8-0.9,1.2-1.4
			c0.1,0,0.3,0,0.4,0c0.1-0.2,0.3-0.4,0.4-0.6c0.1,0,0.3,0,0.4,0c0.1-0.2,0.3-0.4,0.4-0.6c0.1,0,0.3,0,0.4,0
			c0.1-0.2,0.3-0.4,0.4-0.6c0.1,0,0.3,0,0.4,0c0.1-0.1,0.1-0.3,0.2-0.4c0.3-0.1,0.5-0.1,0.8-0.2c0.1-0.1,0.1-0.3,0.2-0.4
			c0.2-0.1,0.4-0.1,0.6-0.2c0-0.1,0-0.1,0-0.2c0.1,0,0.3,0,0.4,0l0.4-0.4c0.1,0,0.3,0,0.4,0c0-0.1,0-0.1,0-0.2c0.1,0,0.3,0,0.4,0
			c0-0.1,0-0.1,0-0.2c0.1,0,0.3,0,0.4,0c0-0.1,0-0.1,0-0.2c0.1,0,0.3,0,0.4,0c0-0.1,0-0.1,0-0.2c0.1,0,0.3,0,0.4,0
			c0-0.1,0-0.1,0-0.2c0.1,0,0.3,0,0.4,0c0-0.1,0-0.1,0-0.2c0.4-0.1,0.8-0.3,1.2-0.4c0-0.1,0-0.1,0-0.2c0.2,0,0.4,0,0.6,0
			c0-0.1,0-0.1,0-0.2c0.1,0,0.3,0,0.4,0c0-0.1,0-0.1,0-0.2c0.4-0.1,0.8-0.1,1.2-0.2c0-0.1,0-0.1,0-0.2c0.2,0,0.4,0,0.6,0
			c0-0.1,0-0.1,0-0.2c0.2,0,0.4,0,0.6,0c0-0.1,0-0.1,0-0.2c0.2,0,0.4,0,0.6,0c0-0.1,0-0.1,0-0.2c0.5-0.1,0.9-0.1,1.4-0.2
			c0-0.1,0-0.1,0-0.2c0.3,0,0.5,0,0.8,0c0-0.1,0-0.1,0-0.2c0.7-0.1,1.3-0.1,2-0.2c0-0.1,0-0.1,0-0.2c0.4,0,0.8,0,1.2,0
			c0-0.1,0-0.1,0-0.2c0.4,0,0.8,0,1.2,0c0-0.1,0-0.1,0-0.2c0.7-0.2,1.5,0.2,2-0.2c2.6,0,6.5-0.4,8.6,0.2c0.7,0,1.3,0,2,0
			c0,0.1,0,0.1,0,0.2c0.4,0,0.8,0,1.2,0c0,0.1,0,0.1,0,0.2c0.4,0,0.8,0,1.2,0c0,0.1,0,0.1,0,0.2c0.3,0,0.7,0,1,0c0,0.1,0,0.1,0,0.2
			c0.3,0,0.5,0,0.8,0c0,0.1,0,0.1,0,0.2c0.3,0,0.7,0,1,0c1.6,0.5,3.2,1.1,4.8,1.6c0,0.1,0,0.1,0,0.2c0.1,0,0.3,0,0.4,0
			c0,0.1,0,0.1,0,0.2c0.2,0,0.4,0,0.6,0c0,0.1,0,0.1,0,0.2c0.4,0.1,0.8,0.3,1.2,0.4c0,0.1,0,0.1,0,0.2c0.1,0,0.3,0,0.4,0
			c0,0.1,0,0.1,0,0.2c0.1,0,0.3,0,0.4,0c0,0.1,0,0.1,0,0.2c0.1,0,0.3,0,0.4,0c0,0.1,0,0.1,0,0.2c0.1,0,0.3,0,0.4,0l0.4,0.4
			c0.1,0,0.3,0,0.4,0c0.1,0.1,0.1,0.3,0.2,0.4c0.3,0.1,0.5,0.1,0.8,0.2c0.1,0.1,0.1,0.3,0.2,0.4c0.3,0.1,0.5,0.1,0.8,0.2
			c0.1,0.2,0.3,0.4,0.4,0.6c0.1,0,0.3,0,0.4,0c0.1,0.1,0.1,0.3,0.2,0.4c0.1,0,0.3,0,0.4,0c0.1,0.2,0.3,0.4,0.4,0.6
			c0.1,0,0.3,0,0.4,0c0.1,0.2,0.3,0.4,0.4,0.6c0.2,0.1,0.4,0.1,0.6,0.2c0.3,0.4,0.7,0.8,1,1.2c0.1,0,0.3,0,0.4,0
			c0.2,0.3,0.4,0.5,0.6,0.8c0.5,0.5,1.1,0.9,1.6,1.4c0,0.1,0,0.3,0,0.4c0.5,0.4,0.9,0.8,1.4,1.2c0,0.1,0,0.3,0,0.4
			c0.3,0.2,0.5,0.4,0.8,0.6c0.1,0.2,0.1,0.4,0.2,0.6c0.1,0.1,0.3,0.1,0.4,0.2c0,0.1,0,0.3,0,0.4c0.2,0.1,0.4,0.3,0.6,0.4
			c0,0.1,0,0.3,0,0.4c0.1,0.1,0.3,0.1,0.4,0.2c0.1,0.2,0.1,0.4,0.2,0.6c0.1,0,0.1,0,0.2,0c0,0.1,0,0.3,0,0.4
			c0.1,0.1,0.3,0.1,0.4,0.2c0.1,0.3,0.1,0.5,0.2,0.8c0.1,0.1,0.3,0.1,0.4,0.2c0.1,0.4,0.3,0.8,0.4,1.2c0.1,0.1,0.3,0.1,0.4,0.2
			c0,0.1,0,0.3,0,0.4l0.4,0.4c0,0.1,0,0.3,0,0.4c0.1,0,0.1,0,0.2,0c0,0.1,0,0.3,0,0.4c0.1,0,0.1,0,0.2,0c0,0.1,0,0.3,0,0.4
			c0.1,0,0.1,0,0.2,0c0,0.1,0,0.3,0,0.4c0.1,0,0.1,0,0.2,0c0.1,0.4,0.3,0.8,0.4,1.2c0.1,0,0.1,0,0.2,0c0,0.2,0,0.4,0,0.6
			c0.1,0,0.1,0,0.2,0c0.1,0.3,0.1,0.5,0.2,0.8c0.1,0,0.1,0,0.2,0c0,0.2,0,0.4,0,0.6c0.1,0,0.1,0,0.2,0c0,0.1,0,0.3,0,0.4
			c0.1,0,0.1,0,0.2,0c0.1,0.4,0.1,0.8,0.2,1.2c0.1,0,0.1,0,0.2,0c0,0.1,0,0.3,0,0.4c0.1,0,0.1,0,0.2,0c0.1,0.4,0.1,0.8,0.2,1.2
			c0.1,0,0.1,0,0.2,0c0,0.2,0,0.4,0,0.6c0.1,0,0.1,0,0.2,0c0,0.2,0,0.4,0,0.6c0.1,0,0.1,0,0.2,0c0.1,0.5,0.1,0.9,0.2,1.4
			c0.1,0,0.1,0,0.2,0c0.1,0.5,0.1,0.9,0.2,1.4c0.1,0,0.1,0,0.2,0c0,0.3,0,0.5,0,0.8c0.1,0,0.1,0,0.2,0c0.2,1.3,0.4,2.5,0.6,3.8
			c0.4,1.4,0.6,3.5,1,5c0,0.6,0,1.2,0,1.8c0.1,0,0.1,0,0.2,0c0,0.7,0,1.5,0,2.2c0.1,0,0.1,0,0.2,0c0,1.2,0,2.4,0,3.6
			C678.9,878,678.7,880.2,678.7,881.8z"/>
	</g>
</g>
</svg>
